%TF.GenerationSoftware,KiCad,Pcbnew,7.0.1*%
%TF.CreationDate,2023-04-04T11:47:58-07:00*%
%TF.ProjectId,LM2670SX-3.3,4c4d3236-3730-4535-982d-332e332e6b69,rev?*%
%TF.SameCoordinates,Original*%
%TF.FileFunction,Copper,L1,Top*%
%TF.FilePolarity,Positive*%
%FSLAX46Y46*%
G04 Gerber Fmt 4.6, Leading zero omitted, Abs format (unit mm)*
G04 Created by KiCad (PCBNEW 7.0.1) date 2023-04-04 11:47:58*
%MOMM*%
%LPD*%
G01*
G04 APERTURE LIST*
%TA.AperFunction,ComponentPad*%
%ADD10R,1.700000X1.700000*%
%TD*%
%TA.AperFunction,ComponentPad*%
%ADD11O,1.700000X1.700000*%
%TD*%
%TA.AperFunction,ComponentPad*%
%ADD12R,1.600000X1.600000*%
%TD*%
%TA.AperFunction,ComponentPad*%
%ADD13C,1.600000*%
%TD*%
%TA.AperFunction,ComponentPad*%
%ADD14C,2.000000*%
%TD*%
%TA.AperFunction,ComponentPad*%
%ADD15O,2.000000X2.000000*%
%TD*%
%TA.AperFunction,SMDPad,CuDef*%
%ADD16R,10.800000X10.410000*%
%TD*%
%TA.AperFunction,SMDPad,CuDef*%
%ADD17R,0.910000X2.160000*%
%TD*%
%TA.AperFunction,ViaPad*%
%ADD18C,0.800000*%
%TD*%
%TA.AperFunction,Conductor*%
%ADD19C,1.397000*%
%TD*%
%TA.AperFunction,Conductor*%
%ADD20C,0.762000*%
%TD*%
%TA.AperFunction,Conductor*%
%ADD21C,1.016000*%
%TD*%
%TA.AperFunction,Conductor*%
%ADD22C,0.508000*%
%TD*%
%TA.AperFunction,Conductor*%
%ADD23C,0.889000*%
%TD*%
%TA.AperFunction,Conductor*%
%ADD24C,1.778000*%
%TD*%
G04 APERTURE END LIST*
D10*
%TO.P,J1,1,Pin_1*%
%TO.N,+VDC*%
X188747700Y-101470200D03*
D11*
%TO.P,J1,2,Pin_2*%
%TO.N,+3V3*%
X188747700Y-98930200D03*
%TO.P,J1,3,Pin_3*%
%TO.N,GND*%
X188747700Y-96390200D03*
%TD*%
D12*
%TO.P,C2,1*%
%TO.N,+VDC*%
X183796514Y-103293055D03*
D13*
%TO.P,C2,2*%
%TO.N,GND*%
X183796514Y-105793055D03*
%TD*%
D12*
%TO.P,C1,1*%
%TO.N,+VDC*%
X188788945Y-89705684D03*
D13*
%TO.P,C1,2*%
%TO.N,GND*%
X186288945Y-89705684D03*
%TD*%
D12*
%TO.P,C5,1*%
%TO.N,+3V3*%
X173687637Y-107336169D03*
D13*
%TO.P,C5,2*%
%TO.N,GND*%
X178687637Y-107336169D03*
%TD*%
D14*
%TO.P,L1,1,1*%
%TO.N,Net-(IC1-SWITCH_OUTPUT)*%
X173209934Y-114285576D03*
D15*
%TO.P,L1,2,2*%
%TO.N,+3V3*%
X188449934Y-114285576D03*
%TD*%
D16*
%TO.P,IC1,8,EP*%
%TO.N,GND*%
X177800000Y-90890000D03*
D17*
%TO.P,IC1,7,ON/~{OFF}*%
%TO.N,unconnected-(IC1-ON{slash}~{OFF}-Pad7)*%
X181610000Y-99210000D03*
%TO.P,IC1,6,FEEDBACK/FB*%
%TO.N,+3V3*%
X180340000Y-99210000D03*
%TO.P,IC1,5,SYNC*%
%TO.N,Net-(IC1-SYNC)*%
X179070000Y-99210000D03*
%TO.P,IC1,4,GND*%
%TO.N,GND*%
X177800000Y-99210000D03*
%TO.P,IC1,3,CBOOST/CB*%
%TO.N,Net-(IC1-CBOOST{slash}CB)*%
X176530000Y-99210000D03*
%TO.P,IC1,2,INPUT*%
%TO.N,+VDC*%
X175260000Y-99210000D03*
%TO.P,IC1,1,SWITCH_OUTPUT*%
%TO.N,Net-(IC1-SWITCH_OUTPUT)*%
X173990000Y-99210000D03*
%TD*%
D18*
%TO.N,Net-(IC1-SYNC)*%
X179070000Y-99210000D03*
%TO.N,+VDC*%
X172100988Y-98684801D03*
%TO.N,Net-(IC1-SWITCH_OUTPUT)*%
X173990000Y-99210000D03*
%TO.N,Net-(IC1-CBOOST{slash}CB)*%
X176530000Y-99210000D03*
%TO.N,GND*%
X177800000Y-99210000D03*
%TD*%
D19*
%TO.N,+VDC*%
X188747700Y-101470200D02*
X185619369Y-101470200D01*
X185619369Y-101470200D02*
X183796514Y-103293055D01*
D20*
%TO.N,Net-(IC1-SWITCH_OUTPUT)*%
X173990000Y-100708868D02*
X173990000Y-99210000D01*
X175068637Y-101787505D02*
X173990000Y-100708868D01*
X175068637Y-112426873D02*
X175068637Y-101787505D01*
X173209934Y-114285576D02*
X175068637Y-112426873D01*
D21*
%TO.N,+3V3*%
X180447000Y-97422000D02*
X187239500Y-97422000D01*
X180340000Y-97529000D02*
X180447000Y-97422000D01*
X187239500Y-97422000D02*
X188747700Y-98930200D01*
X180340000Y-99210000D02*
X180340000Y-97529000D01*
D20*
%TO.N,+VDC*%
X175260000Y-100798000D02*
X177755055Y-103293055D01*
X177755055Y-103293055D02*
X183796514Y-103293055D01*
X175260000Y-99210000D02*
X175260000Y-100798000D01*
D22*
X174899000Y-97676000D02*
X173109789Y-97676000D01*
X173109789Y-97676000D02*
X172100988Y-98684801D01*
X175260000Y-98037000D02*
X174899000Y-97676000D01*
X175260000Y-99210000D02*
X175260000Y-98037000D01*
D23*
%TO.N,GND*%
X182253400Y-107336169D02*
X183796514Y-105793055D01*
X178687637Y-107336169D02*
X182253400Y-107336169D01*
X177800000Y-99210000D02*
X177800000Y-90890000D01*
D24*
X180841445Y-93931445D02*
X177800000Y-90890000D01*
X186288945Y-93931445D02*
X180841445Y-93931445D01*
X186288945Y-93931445D02*
X188747700Y-96390200D01*
X186288945Y-89705684D02*
X186288945Y-93931445D01*
%TD*%
M02*
