%TF.GenerationSoftware,KiCad,Pcbnew,7.0.1*%
%TF.CreationDate,2023-04-27T19:12:44-07:00*%
%TF.ProjectId,LM2670SX-3.3,4c4d3236-3730-4535-982d-332e332e6b69,rev?*%
%TF.SameCoordinates,Original*%
%TF.FileFunction,Legend,Top*%
%TF.FilePolarity,Positive*%
%FSLAX46Y46*%
G04 Gerber Fmt 4.6, Leading zero omitted, Abs format (unit mm)*
G04 Created by KiCad (PCBNEW 7.0.1) date 2023-04-27 19:12:44*
%MOMM*%
%LPD*%
G01*
G04 APERTURE LIST*
%ADD10C,0.150000*%
%ADD11C,0.254000*%
%ADD12C,0.120000*%
%ADD13C,0.100000*%
G04 APERTURE END LIST*
D10*
X187383930Y-112432083D02*
X187383930Y-111813036D01*
X187383930Y-111813036D02*
X187764882Y-112146369D01*
X187764882Y-112146369D02*
X187764882Y-112003512D01*
X187764882Y-112003512D02*
X187812501Y-111908274D01*
X187812501Y-111908274D02*
X187860120Y-111860655D01*
X187860120Y-111860655D02*
X187955358Y-111813036D01*
X187955358Y-111813036D02*
X188193453Y-111813036D01*
X188193453Y-111813036D02*
X188288691Y-111860655D01*
X188288691Y-111860655D02*
X188336311Y-111908274D01*
X188336311Y-111908274D02*
X188383930Y-112003512D01*
X188383930Y-112003512D02*
X188383930Y-112289226D01*
X188383930Y-112289226D02*
X188336311Y-112384464D01*
X188336311Y-112384464D02*
X188288691Y-112432083D01*
X188288691Y-111384464D02*
X188336311Y-111336845D01*
X188336311Y-111336845D02*
X188383930Y-111384464D01*
X188383930Y-111384464D02*
X188336311Y-111432083D01*
X188336311Y-111432083D02*
X188288691Y-111384464D01*
X188288691Y-111384464D02*
X188383930Y-111384464D01*
X187383930Y-111003512D02*
X187383930Y-110384465D01*
X187383930Y-110384465D02*
X187764882Y-110717798D01*
X187764882Y-110717798D02*
X187764882Y-110574941D01*
X187764882Y-110574941D02*
X187812501Y-110479703D01*
X187812501Y-110479703D02*
X187860120Y-110432084D01*
X187860120Y-110432084D02*
X187955358Y-110384465D01*
X187955358Y-110384465D02*
X188193453Y-110384465D01*
X188193453Y-110384465D02*
X188288691Y-110432084D01*
X188288691Y-110432084D02*
X188336311Y-110479703D01*
X188336311Y-110479703D02*
X188383930Y-110574941D01*
X188383930Y-110574941D02*
X188383930Y-110860655D01*
X188383930Y-110860655D02*
X188336311Y-110955893D01*
X188336311Y-110955893D02*
X188288691Y-111003512D01*
X187383930Y-110098750D02*
X188383930Y-109765417D01*
X188383930Y-109765417D02*
X187383930Y-109432084D01*
X188383930Y-107813036D02*
X188383930Y-108384464D01*
X188383930Y-108098750D02*
X187383930Y-108098750D01*
X187383930Y-108098750D02*
X187526787Y-108193988D01*
X187526787Y-108193988D02*
X187622025Y-108289226D01*
X187622025Y-108289226D02*
X187669644Y-108384464D01*
X188288691Y-107384464D02*
X188336311Y-107336845D01*
X188336311Y-107336845D02*
X188383930Y-107384464D01*
X188383930Y-107384464D02*
X188336311Y-107432083D01*
X188336311Y-107432083D02*
X188288691Y-107384464D01*
X188288691Y-107384464D02*
X188383930Y-107384464D01*
X187383930Y-106717798D02*
X187383930Y-106622560D01*
X187383930Y-106622560D02*
X187431549Y-106527322D01*
X187431549Y-106527322D02*
X187479168Y-106479703D01*
X187479168Y-106479703D02*
X187574406Y-106432084D01*
X187574406Y-106432084D02*
X187764882Y-106384465D01*
X187764882Y-106384465D02*
X188002977Y-106384465D01*
X188002977Y-106384465D02*
X188193453Y-106432084D01*
X188193453Y-106432084D02*
X188288691Y-106479703D01*
X188288691Y-106479703D02*
X188336311Y-106527322D01*
X188336311Y-106527322D02*
X188383930Y-106622560D01*
X188383930Y-106622560D02*
X188383930Y-106717798D01*
X188383930Y-106717798D02*
X188336311Y-106813036D01*
X188336311Y-106813036D02*
X188288691Y-106860655D01*
X188288691Y-106860655D02*
X188193453Y-106908274D01*
X188193453Y-106908274D02*
X188002977Y-106955893D01*
X188002977Y-106955893D02*
X187764882Y-106955893D01*
X187764882Y-106955893D02*
X187574406Y-106908274D01*
X187574406Y-106908274D02*
X187479168Y-106860655D01*
X187479168Y-106860655D02*
X187431549Y-106813036D01*
X187431549Y-106813036D02*
X187383930Y-106717798D01*
X188098215Y-106003512D02*
X188098215Y-105527322D01*
X188383930Y-106098750D02*
X187383930Y-105765417D01*
X187383930Y-105765417D02*
X188383930Y-105432084D01*
X190003930Y-111860655D02*
X190003930Y-112336845D01*
X190003930Y-112336845D02*
X189003930Y-112336845D01*
X190003930Y-111527321D02*
X189003930Y-111527321D01*
X189003930Y-111527321D02*
X189718215Y-111193988D01*
X189718215Y-111193988D02*
X189003930Y-110860655D01*
X189003930Y-110860655D02*
X190003930Y-110860655D01*
X189099168Y-110432083D02*
X189051549Y-110384464D01*
X189051549Y-110384464D02*
X189003930Y-110289226D01*
X189003930Y-110289226D02*
X189003930Y-110051131D01*
X189003930Y-110051131D02*
X189051549Y-109955893D01*
X189051549Y-109955893D02*
X189099168Y-109908274D01*
X189099168Y-109908274D02*
X189194406Y-109860655D01*
X189194406Y-109860655D02*
X189289644Y-109860655D01*
X189289644Y-109860655D02*
X189432501Y-109908274D01*
X189432501Y-109908274D02*
X190003930Y-110479702D01*
X190003930Y-110479702D02*
X190003930Y-109860655D01*
X189003930Y-109003512D02*
X189003930Y-109193988D01*
X189003930Y-109193988D02*
X189051549Y-109289226D01*
X189051549Y-109289226D02*
X189099168Y-109336845D01*
X189099168Y-109336845D02*
X189242025Y-109432083D01*
X189242025Y-109432083D02*
X189432501Y-109479702D01*
X189432501Y-109479702D02*
X189813453Y-109479702D01*
X189813453Y-109479702D02*
X189908691Y-109432083D01*
X189908691Y-109432083D02*
X189956311Y-109384464D01*
X189956311Y-109384464D02*
X190003930Y-109289226D01*
X190003930Y-109289226D02*
X190003930Y-109098750D01*
X190003930Y-109098750D02*
X189956311Y-109003512D01*
X189956311Y-109003512D02*
X189908691Y-108955893D01*
X189908691Y-108955893D02*
X189813453Y-108908274D01*
X189813453Y-108908274D02*
X189575358Y-108908274D01*
X189575358Y-108908274D02*
X189480120Y-108955893D01*
X189480120Y-108955893D02*
X189432501Y-109003512D01*
X189432501Y-109003512D02*
X189384882Y-109098750D01*
X189384882Y-109098750D02*
X189384882Y-109289226D01*
X189384882Y-109289226D02*
X189432501Y-109384464D01*
X189432501Y-109384464D02*
X189480120Y-109432083D01*
X189480120Y-109432083D02*
X189575358Y-109479702D01*
X189003930Y-108574940D02*
X189003930Y-107908274D01*
X189003930Y-107908274D02*
X190003930Y-108336845D01*
X189003930Y-107336845D02*
X189003930Y-107241607D01*
X189003930Y-107241607D02*
X189051549Y-107146369D01*
X189051549Y-107146369D02*
X189099168Y-107098750D01*
X189099168Y-107098750D02*
X189194406Y-107051131D01*
X189194406Y-107051131D02*
X189384882Y-107003512D01*
X189384882Y-107003512D02*
X189622977Y-107003512D01*
X189622977Y-107003512D02*
X189813453Y-107051131D01*
X189813453Y-107051131D02*
X189908691Y-107098750D01*
X189908691Y-107098750D02*
X189956311Y-107146369D01*
X189956311Y-107146369D02*
X190003930Y-107241607D01*
X190003930Y-107241607D02*
X190003930Y-107336845D01*
X190003930Y-107336845D02*
X189956311Y-107432083D01*
X189956311Y-107432083D02*
X189908691Y-107479702D01*
X189908691Y-107479702D02*
X189813453Y-107527321D01*
X189813453Y-107527321D02*
X189622977Y-107574940D01*
X189622977Y-107574940D02*
X189384882Y-107574940D01*
X189384882Y-107574940D02*
X189194406Y-107527321D01*
X189194406Y-107527321D02*
X189099168Y-107479702D01*
X189099168Y-107479702D02*
X189051549Y-107432083D01*
X189051549Y-107432083D02*
X189003930Y-107336845D01*
X189956311Y-106622559D02*
X190003930Y-106479702D01*
X190003930Y-106479702D02*
X190003930Y-106241607D01*
X190003930Y-106241607D02*
X189956311Y-106146369D01*
X189956311Y-106146369D02*
X189908691Y-106098750D01*
X189908691Y-106098750D02*
X189813453Y-106051131D01*
X189813453Y-106051131D02*
X189718215Y-106051131D01*
X189718215Y-106051131D02*
X189622977Y-106098750D01*
X189622977Y-106098750D02*
X189575358Y-106146369D01*
X189575358Y-106146369D02*
X189527739Y-106241607D01*
X189527739Y-106241607D02*
X189480120Y-106432083D01*
X189480120Y-106432083D02*
X189432501Y-106527321D01*
X189432501Y-106527321D02*
X189384882Y-106574940D01*
X189384882Y-106574940D02*
X189289644Y-106622559D01*
X189289644Y-106622559D02*
X189194406Y-106622559D01*
X189194406Y-106622559D02*
X189099168Y-106574940D01*
X189099168Y-106574940D02*
X189051549Y-106527321D01*
X189051549Y-106527321D02*
X189003930Y-106432083D01*
X189003930Y-106432083D02*
X189003930Y-106193988D01*
X189003930Y-106193988D02*
X189051549Y-106051131D01*
X189003930Y-105717797D02*
X190003930Y-105051131D01*
X189003930Y-105051131D02*
X190003930Y-105717797D01*
%TO.C,J1*%
X188414366Y-103262819D02*
X188414366Y-103977104D01*
X188414366Y-103977104D02*
X188366747Y-104119961D01*
X188366747Y-104119961D02*
X188271509Y-104215200D01*
X188271509Y-104215200D02*
X188128652Y-104262819D01*
X188128652Y-104262819D02*
X188033414Y-104262819D01*
X189414366Y-104262819D02*
X188842938Y-104262819D01*
X189128652Y-104262819D02*
X189128652Y-103262819D01*
X189128652Y-103262819D02*
X189033414Y-103405676D01*
X189033414Y-103405676D02*
X188938176Y-103500914D01*
X188938176Y-103500914D02*
X188842938Y-103548533D01*
%TO.C,C2*%
X184263793Y-108522764D02*
X184311413Y-108570383D01*
X184311413Y-108570383D02*
X184359032Y-108713240D01*
X184359032Y-108713240D02*
X184359032Y-108808478D01*
X184359032Y-108808478D02*
X184311413Y-108951335D01*
X184311413Y-108951335D02*
X184216174Y-109046573D01*
X184216174Y-109046573D02*
X184120936Y-109094192D01*
X184120936Y-109094192D02*
X183930460Y-109141811D01*
X183930460Y-109141811D02*
X183787603Y-109141811D01*
X183787603Y-109141811D02*
X183597127Y-109094192D01*
X183597127Y-109094192D02*
X183501889Y-109046573D01*
X183501889Y-109046573D02*
X183406651Y-108951335D01*
X183406651Y-108951335D02*
X183359032Y-108808478D01*
X183359032Y-108808478D02*
X183359032Y-108713240D01*
X183359032Y-108713240D02*
X183406651Y-108570383D01*
X183406651Y-108570383D02*
X183454270Y-108522764D01*
X183454270Y-108141811D02*
X183406651Y-108094192D01*
X183406651Y-108094192D02*
X183359032Y-107998954D01*
X183359032Y-107998954D02*
X183359032Y-107760859D01*
X183359032Y-107760859D02*
X183406651Y-107665621D01*
X183406651Y-107665621D02*
X183454270Y-107618002D01*
X183454270Y-107618002D02*
X183549508Y-107570383D01*
X183549508Y-107570383D02*
X183644746Y-107570383D01*
X183644746Y-107570383D02*
X183787603Y-107618002D01*
X183787603Y-107618002D02*
X184359032Y-108189430D01*
X184359032Y-108189430D02*
X184359032Y-107570383D01*
%TO.C,C1*%
X187372278Y-93823064D02*
X187324659Y-93870684D01*
X187324659Y-93870684D02*
X187181802Y-93918303D01*
X187181802Y-93918303D02*
X187086564Y-93918303D01*
X187086564Y-93918303D02*
X186943707Y-93870684D01*
X186943707Y-93870684D02*
X186848469Y-93775445D01*
X186848469Y-93775445D02*
X186800850Y-93680207D01*
X186800850Y-93680207D02*
X186753231Y-93489731D01*
X186753231Y-93489731D02*
X186753231Y-93346874D01*
X186753231Y-93346874D02*
X186800850Y-93156398D01*
X186800850Y-93156398D02*
X186848469Y-93061160D01*
X186848469Y-93061160D02*
X186943707Y-92965922D01*
X186943707Y-92965922D02*
X187086564Y-92918303D01*
X187086564Y-92918303D02*
X187181802Y-92918303D01*
X187181802Y-92918303D02*
X187324659Y-92965922D01*
X187324659Y-92965922D02*
X187372278Y-93013541D01*
X188324659Y-93918303D02*
X187753231Y-93918303D01*
X188038945Y-93918303D02*
X188038945Y-92918303D01*
X188038945Y-92918303D02*
X187943707Y-93061160D01*
X187943707Y-93061160D02*
X187848469Y-93156398D01*
X187848469Y-93156398D02*
X187753231Y-93204017D01*
%TO.C,C5*%
X176020970Y-102453549D02*
X175973351Y-102501169D01*
X175973351Y-102501169D02*
X175830494Y-102548788D01*
X175830494Y-102548788D02*
X175735256Y-102548788D01*
X175735256Y-102548788D02*
X175592399Y-102501169D01*
X175592399Y-102501169D02*
X175497161Y-102405930D01*
X175497161Y-102405930D02*
X175449542Y-102310692D01*
X175449542Y-102310692D02*
X175401923Y-102120216D01*
X175401923Y-102120216D02*
X175401923Y-101977359D01*
X175401923Y-101977359D02*
X175449542Y-101786883D01*
X175449542Y-101786883D02*
X175497161Y-101691645D01*
X175497161Y-101691645D02*
X175592399Y-101596407D01*
X175592399Y-101596407D02*
X175735256Y-101548788D01*
X175735256Y-101548788D02*
X175830494Y-101548788D01*
X175830494Y-101548788D02*
X175973351Y-101596407D01*
X175973351Y-101596407D02*
X176020970Y-101644026D01*
X176925732Y-101548788D02*
X176449542Y-101548788D01*
X176449542Y-101548788D02*
X176401923Y-102024978D01*
X176401923Y-102024978D02*
X176449542Y-101977359D01*
X176449542Y-101977359D02*
X176544780Y-101929740D01*
X176544780Y-101929740D02*
X176782875Y-101929740D01*
X176782875Y-101929740D02*
X176878113Y-101977359D01*
X176878113Y-101977359D02*
X176925732Y-102024978D01*
X176925732Y-102024978D02*
X176973351Y-102120216D01*
X176973351Y-102120216D02*
X176973351Y-102358311D01*
X176973351Y-102358311D02*
X176925732Y-102453549D01*
X176925732Y-102453549D02*
X176878113Y-102501169D01*
X176878113Y-102501169D02*
X176782875Y-102548788D01*
X176782875Y-102548788D02*
X176544780Y-102548788D01*
X176544780Y-102548788D02*
X176449542Y-102501169D01*
X176449542Y-102501169D02*
X176401923Y-102453549D01*
%TO.C,L1*%
X180663267Y-111628195D02*
X180187077Y-111628195D01*
X180187077Y-111628195D02*
X180187077Y-110628195D01*
X181520410Y-111628195D02*
X180948982Y-111628195D01*
X181234696Y-111628195D02*
X181234696Y-110628195D01*
X181234696Y-110628195D02*
X181139458Y-110771052D01*
X181139458Y-110771052D02*
X181044220Y-110866290D01*
X181044220Y-110866290D02*
X180948982Y-110913909D01*
D11*
%TO.C,IC1*%
X183882329Y-100328745D02*
X182612329Y-100328745D01*
X183761376Y-98998268D02*
X183821853Y-99058744D01*
X183821853Y-99058744D02*
X183882329Y-99240173D01*
X183882329Y-99240173D02*
X183882329Y-99361125D01*
X183882329Y-99361125D02*
X183821853Y-99542554D01*
X183821853Y-99542554D02*
X183700900Y-99663506D01*
X183700900Y-99663506D02*
X183579948Y-99723983D01*
X183579948Y-99723983D02*
X183338043Y-99784459D01*
X183338043Y-99784459D02*
X183156614Y-99784459D01*
X183156614Y-99784459D02*
X182914710Y-99723983D01*
X182914710Y-99723983D02*
X182793757Y-99663506D01*
X182793757Y-99663506D02*
X182672805Y-99542554D01*
X182672805Y-99542554D02*
X182612329Y-99361125D01*
X182612329Y-99361125D02*
X182612329Y-99240173D01*
X182612329Y-99240173D02*
X182672805Y-99058744D01*
X182672805Y-99058744D02*
X182733281Y-98998268D01*
X183882329Y-97788744D02*
X183882329Y-98514459D01*
X183882329Y-98151602D02*
X182612329Y-98151602D01*
X182612329Y-98151602D02*
X182793757Y-98272554D01*
X182793757Y-98272554D02*
X182914710Y-98393506D01*
X182914710Y-98393506D02*
X182975186Y-98514459D01*
D12*
%TO.C,J1*%
X190077700Y-102800200D02*
X188747700Y-102800200D01*
X190077700Y-101470200D02*
X190077700Y-102800200D01*
X190077700Y-100200200D02*
X190077700Y-95060200D01*
X190077700Y-100200200D02*
X187417700Y-100200200D01*
X190077700Y-95060200D02*
X187417700Y-95060200D01*
X187417700Y-100200200D02*
X187417700Y-95060200D01*
%TO.C,C2*%
X185271514Y-101738280D02*
X185271514Y-102238280D01*
X185521514Y-101988280D02*
X185021514Y-101988280D01*
X186376514Y-104543055D02*
X181216514Y-104543055D01*
X186376514Y-104583055D02*
X181216514Y-104583055D01*
X186375514Y-104623055D02*
X181217514Y-104623055D01*
X186374514Y-104663055D02*
X181218514Y-104663055D01*
X186372514Y-104703055D02*
X181220514Y-104703055D01*
X186369514Y-104743055D02*
X181223514Y-104743055D01*
X186365514Y-104783055D02*
X184836514Y-104783055D01*
X182756514Y-104783055D02*
X181227514Y-104783055D01*
X186361514Y-104823055D02*
X184836514Y-104823055D01*
X182756514Y-104823055D02*
X181231514Y-104823055D01*
X186357514Y-104863055D02*
X184836514Y-104863055D01*
X182756514Y-104863055D02*
X181235514Y-104863055D01*
X186352514Y-104903055D02*
X184836514Y-104903055D01*
X182756514Y-104903055D02*
X181240514Y-104903055D01*
X186346514Y-104943055D02*
X184836514Y-104943055D01*
X182756514Y-104943055D02*
X181246514Y-104943055D01*
X186339514Y-104983055D02*
X184836514Y-104983055D01*
X182756514Y-104983055D02*
X181253514Y-104983055D01*
X186332514Y-105023055D02*
X184836514Y-105023055D01*
X182756514Y-105023055D02*
X181260514Y-105023055D01*
X186324514Y-105063055D02*
X184836514Y-105063055D01*
X182756514Y-105063055D02*
X181268514Y-105063055D01*
X186316514Y-105103055D02*
X184836514Y-105103055D01*
X182756514Y-105103055D02*
X181276514Y-105103055D01*
X186307514Y-105143055D02*
X184836514Y-105143055D01*
X182756514Y-105143055D02*
X181285514Y-105143055D01*
X186297514Y-105183055D02*
X184836514Y-105183055D01*
X182756514Y-105183055D02*
X181295514Y-105183055D01*
X186287514Y-105223055D02*
X184836514Y-105223055D01*
X182756514Y-105223055D02*
X181305514Y-105223055D01*
X186276514Y-105264055D02*
X184836514Y-105264055D01*
X182756514Y-105264055D02*
X181316514Y-105264055D01*
X186264514Y-105304055D02*
X184836514Y-105304055D01*
X182756514Y-105304055D02*
X181328514Y-105304055D01*
X186251514Y-105344055D02*
X184836514Y-105344055D01*
X182756514Y-105344055D02*
X181341514Y-105344055D01*
X186238514Y-105384055D02*
X184836514Y-105384055D01*
X182756514Y-105384055D02*
X181354514Y-105384055D01*
X186224514Y-105424055D02*
X184836514Y-105424055D01*
X182756514Y-105424055D02*
X181368514Y-105424055D01*
X186210514Y-105464055D02*
X184836514Y-105464055D01*
X182756514Y-105464055D02*
X181382514Y-105464055D01*
X186194514Y-105504055D02*
X184836514Y-105504055D01*
X182756514Y-105504055D02*
X181398514Y-105504055D01*
X186178514Y-105544055D02*
X184836514Y-105544055D01*
X182756514Y-105544055D02*
X181414514Y-105544055D01*
X186161514Y-105584055D02*
X184836514Y-105584055D01*
X182756514Y-105584055D02*
X181431514Y-105584055D01*
X186144514Y-105624055D02*
X184836514Y-105624055D01*
X182756514Y-105624055D02*
X181448514Y-105624055D01*
X186125514Y-105664055D02*
X184836514Y-105664055D01*
X182756514Y-105664055D02*
X181467514Y-105664055D01*
X186106514Y-105704055D02*
X184836514Y-105704055D01*
X182756514Y-105704055D02*
X181486514Y-105704055D01*
X186086514Y-105744055D02*
X184836514Y-105744055D01*
X182756514Y-105744055D02*
X181506514Y-105744055D01*
X186064514Y-105784055D02*
X184836514Y-105784055D01*
X182756514Y-105784055D02*
X181528514Y-105784055D01*
X186043514Y-105824055D02*
X184836514Y-105824055D01*
X182756514Y-105824055D02*
X181549514Y-105824055D01*
X186020514Y-105864055D02*
X184836514Y-105864055D01*
X182756514Y-105864055D02*
X181572514Y-105864055D01*
X185996514Y-105904055D02*
X184836514Y-105904055D01*
X182756514Y-105904055D02*
X181596514Y-105904055D01*
X185971514Y-105944055D02*
X184836514Y-105944055D01*
X182756514Y-105944055D02*
X181621514Y-105944055D01*
X185945514Y-105984055D02*
X184836514Y-105984055D01*
X182756514Y-105984055D02*
X181647514Y-105984055D01*
X185918514Y-106024055D02*
X184836514Y-106024055D01*
X182756514Y-106024055D02*
X181674514Y-106024055D01*
X185891514Y-106064055D02*
X184836514Y-106064055D01*
X182756514Y-106064055D02*
X181701514Y-106064055D01*
X185861514Y-106104055D02*
X184836514Y-106104055D01*
X182756514Y-106104055D02*
X181731514Y-106104055D01*
X185831514Y-106144055D02*
X184836514Y-106144055D01*
X182756514Y-106144055D02*
X181761514Y-106144055D01*
X185800514Y-106184055D02*
X184836514Y-106184055D01*
X182756514Y-106184055D02*
X181792514Y-106184055D01*
X185767514Y-106224055D02*
X184836514Y-106224055D01*
X182756514Y-106224055D02*
X181825514Y-106224055D01*
X185733514Y-106264055D02*
X184836514Y-106264055D01*
X182756514Y-106264055D02*
X181859514Y-106264055D01*
X185697514Y-106304055D02*
X184836514Y-106304055D01*
X182756514Y-106304055D02*
X181895514Y-106304055D01*
X185660514Y-106344055D02*
X184836514Y-106344055D01*
X182756514Y-106344055D02*
X181932514Y-106344055D01*
X185622514Y-106384055D02*
X184836514Y-106384055D01*
X182756514Y-106384055D02*
X181970514Y-106384055D01*
X185581514Y-106424055D02*
X184836514Y-106424055D01*
X182756514Y-106424055D02*
X182011514Y-106424055D01*
X185539514Y-106464055D02*
X184836514Y-106464055D01*
X182756514Y-106464055D02*
X182053514Y-106464055D01*
X185495514Y-106504055D02*
X184836514Y-106504055D01*
X182756514Y-106504055D02*
X182097514Y-106504055D01*
X185449514Y-106544055D02*
X184836514Y-106544055D01*
X182756514Y-106544055D02*
X182143514Y-106544055D01*
X185401514Y-106584055D02*
X184836514Y-106584055D01*
X182756514Y-106584055D02*
X182191514Y-106584055D01*
X185350514Y-106624055D02*
X184836514Y-106624055D01*
X182756514Y-106624055D02*
X182242514Y-106624055D01*
X185296514Y-106664055D02*
X184836514Y-106664055D01*
X182756514Y-106664055D02*
X182296514Y-106664055D01*
X185239514Y-106704055D02*
X184836514Y-106704055D01*
X182756514Y-106704055D02*
X182353514Y-106704055D01*
X185179514Y-106744055D02*
X184836514Y-106744055D01*
X182756514Y-106744055D02*
X182413514Y-106744055D01*
X185115514Y-106784055D02*
X184836514Y-106784055D01*
X182756514Y-106784055D02*
X182477514Y-106784055D01*
X185047514Y-106824055D02*
X184836514Y-106824055D01*
X182756514Y-106824055D02*
X182545514Y-106824055D01*
X184974514Y-106864055D02*
X182618514Y-106864055D01*
X184894514Y-106904055D02*
X182698514Y-106904055D01*
X184807514Y-106944055D02*
X182785514Y-106944055D01*
X184711514Y-106984055D02*
X182881514Y-106984055D01*
X184601514Y-107024055D02*
X182991514Y-107024055D01*
X184473514Y-107064055D02*
X183119514Y-107064055D01*
X184314514Y-107104055D02*
X183278514Y-107104055D01*
X184080514Y-107144055D02*
X183512514Y-107144055D01*
X186416514Y-104543055D02*
G75*
G03*
X186416514Y-104543055I-2620000J0D01*
G01*
%TO.C,C1*%
X190343720Y-91180684D02*
X189843720Y-91180684D01*
X190093720Y-91430684D02*
X190093720Y-90930684D01*
X187538945Y-92285684D02*
X187538945Y-87125684D01*
X187498945Y-92285684D02*
X187498945Y-87125684D01*
X187458945Y-92284684D02*
X187458945Y-87126684D01*
X187418945Y-92283684D02*
X187418945Y-87127684D01*
X187378945Y-92281684D02*
X187378945Y-87129684D01*
X187338945Y-92278684D02*
X187338945Y-87132684D01*
X187298945Y-92274684D02*
X187298945Y-90745684D01*
X187298945Y-88665684D02*
X187298945Y-87136684D01*
X187258945Y-92270684D02*
X187258945Y-90745684D01*
X187258945Y-88665684D02*
X187258945Y-87140684D01*
X187218945Y-92266684D02*
X187218945Y-90745684D01*
X187218945Y-88665684D02*
X187218945Y-87144684D01*
X187178945Y-92261684D02*
X187178945Y-90745684D01*
X187178945Y-88665684D02*
X187178945Y-87149684D01*
X187138945Y-92255684D02*
X187138945Y-90745684D01*
X187138945Y-88665684D02*
X187138945Y-87155684D01*
X187098945Y-92248684D02*
X187098945Y-90745684D01*
X187098945Y-88665684D02*
X187098945Y-87162684D01*
X187058945Y-92241684D02*
X187058945Y-90745684D01*
X187058945Y-88665684D02*
X187058945Y-87169684D01*
X187018945Y-92233684D02*
X187018945Y-90745684D01*
X187018945Y-88665684D02*
X187018945Y-87177684D01*
X186978945Y-92225684D02*
X186978945Y-90745684D01*
X186978945Y-88665684D02*
X186978945Y-87185684D01*
X186938945Y-92216684D02*
X186938945Y-90745684D01*
X186938945Y-88665684D02*
X186938945Y-87194684D01*
X186898945Y-92206684D02*
X186898945Y-90745684D01*
X186898945Y-88665684D02*
X186898945Y-87204684D01*
X186858945Y-92196684D02*
X186858945Y-90745684D01*
X186858945Y-88665684D02*
X186858945Y-87214684D01*
X186817945Y-92185684D02*
X186817945Y-90745684D01*
X186817945Y-88665684D02*
X186817945Y-87225684D01*
X186777945Y-92173684D02*
X186777945Y-90745684D01*
X186777945Y-88665684D02*
X186777945Y-87237684D01*
X186737945Y-92160684D02*
X186737945Y-90745684D01*
X186737945Y-88665684D02*
X186737945Y-87250684D01*
X186697945Y-92147684D02*
X186697945Y-90745684D01*
X186697945Y-88665684D02*
X186697945Y-87263684D01*
X186657945Y-92133684D02*
X186657945Y-90745684D01*
X186657945Y-88665684D02*
X186657945Y-87277684D01*
X186617945Y-92119684D02*
X186617945Y-90745684D01*
X186617945Y-88665684D02*
X186617945Y-87291684D01*
X186577945Y-92103684D02*
X186577945Y-90745684D01*
X186577945Y-88665684D02*
X186577945Y-87307684D01*
X186537945Y-92087684D02*
X186537945Y-90745684D01*
X186537945Y-88665684D02*
X186537945Y-87323684D01*
X186497945Y-92070684D02*
X186497945Y-90745684D01*
X186497945Y-88665684D02*
X186497945Y-87340684D01*
X186457945Y-92053684D02*
X186457945Y-90745684D01*
X186457945Y-88665684D02*
X186457945Y-87357684D01*
X186417945Y-92034684D02*
X186417945Y-90745684D01*
X186417945Y-88665684D02*
X186417945Y-87376684D01*
X186377945Y-92015684D02*
X186377945Y-90745684D01*
X186377945Y-88665684D02*
X186377945Y-87395684D01*
X186337945Y-91995684D02*
X186337945Y-90745684D01*
X186337945Y-88665684D02*
X186337945Y-87415684D01*
X186297945Y-91973684D02*
X186297945Y-90745684D01*
X186297945Y-88665684D02*
X186297945Y-87437684D01*
X186257945Y-91952684D02*
X186257945Y-90745684D01*
X186257945Y-88665684D02*
X186257945Y-87458684D01*
X186217945Y-91929684D02*
X186217945Y-90745684D01*
X186217945Y-88665684D02*
X186217945Y-87481684D01*
X186177945Y-91905684D02*
X186177945Y-90745684D01*
X186177945Y-88665684D02*
X186177945Y-87505684D01*
X186137945Y-91880684D02*
X186137945Y-90745684D01*
X186137945Y-88665684D02*
X186137945Y-87530684D01*
X186097945Y-91854684D02*
X186097945Y-90745684D01*
X186097945Y-88665684D02*
X186097945Y-87556684D01*
X186057945Y-91827684D02*
X186057945Y-90745684D01*
X186057945Y-88665684D02*
X186057945Y-87583684D01*
X186017945Y-91800684D02*
X186017945Y-90745684D01*
X186017945Y-88665684D02*
X186017945Y-87610684D01*
X185977945Y-91770684D02*
X185977945Y-90745684D01*
X185977945Y-88665684D02*
X185977945Y-87640684D01*
X185937945Y-91740684D02*
X185937945Y-90745684D01*
X185937945Y-88665684D02*
X185937945Y-87670684D01*
X185897945Y-91709684D02*
X185897945Y-90745684D01*
X185897945Y-88665684D02*
X185897945Y-87701684D01*
X185857945Y-91676684D02*
X185857945Y-90745684D01*
X185857945Y-88665684D02*
X185857945Y-87734684D01*
X185817945Y-91642684D02*
X185817945Y-90745684D01*
X185817945Y-88665684D02*
X185817945Y-87768684D01*
X185777945Y-91606684D02*
X185777945Y-90745684D01*
X185777945Y-88665684D02*
X185777945Y-87804684D01*
X185737945Y-91569684D02*
X185737945Y-90745684D01*
X185737945Y-88665684D02*
X185737945Y-87841684D01*
X185697945Y-91531684D02*
X185697945Y-90745684D01*
X185697945Y-88665684D02*
X185697945Y-87879684D01*
X185657945Y-91490684D02*
X185657945Y-90745684D01*
X185657945Y-88665684D02*
X185657945Y-87920684D01*
X185617945Y-91448684D02*
X185617945Y-90745684D01*
X185617945Y-88665684D02*
X185617945Y-87962684D01*
X185577945Y-91404684D02*
X185577945Y-90745684D01*
X185577945Y-88665684D02*
X185577945Y-88006684D01*
X185537945Y-91358684D02*
X185537945Y-90745684D01*
X185537945Y-88665684D02*
X185537945Y-88052684D01*
X185497945Y-91310684D02*
X185497945Y-90745684D01*
X185497945Y-88665684D02*
X185497945Y-88100684D01*
X185457945Y-91259684D02*
X185457945Y-90745684D01*
X185457945Y-88665684D02*
X185457945Y-88151684D01*
X185417945Y-91205684D02*
X185417945Y-90745684D01*
X185417945Y-88665684D02*
X185417945Y-88205684D01*
X185377945Y-91148684D02*
X185377945Y-90745684D01*
X185377945Y-88665684D02*
X185377945Y-88262684D01*
X185337945Y-91088684D02*
X185337945Y-90745684D01*
X185337945Y-88665684D02*
X185337945Y-88322684D01*
X185297945Y-91024684D02*
X185297945Y-90745684D01*
X185297945Y-88665684D02*
X185297945Y-88386684D01*
X185257945Y-90956684D02*
X185257945Y-90745684D01*
X185257945Y-88665684D02*
X185257945Y-88454684D01*
X185217945Y-90883684D02*
X185217945Y-88527684D01*
X185177945Y-90803684D02*
X185177945Y-88607684D01*
X185137945Y-90716684D02*
X185137945Y-88694684D01*
X185097945Y-90620684D02*
X185097945Y-88790684D01*
X185057945Y-90510684D02*
X185057945Y-88900684D01*
X185017945Y-90382684D02*
X185017945Y-89028684D01*
X184977945Y-90223684D02*
X184977945Y-89187684D01*
X184937945Y-89989684D02*
X184937945Y-89421684D01*
X190158945Y-89705684D02*
G75*
G03*
X190158945Y-89705684I-2620000J0D01*
G01*
%TO.C,C5*%
X171777939Y-105021169D02*
X172577939Y-105021169D01*
X172177939Y-104621169D02*
X172177939Y-105421169D01*
X176187637Y-103256169D02*
X176187637Y-111416169D01*
X176227637Y-103256169D02*
X176227637Y-111416169D01*
X176267637Y-103256169D02*
X176267637Y-111416169D01*
X176307637Y-103257169D02*
X176307637Y-111415169D01*
X176347637Y-103259169D02*
X176347637Y-111413169D01*
X176387637Y-103260169D02*
X176387637Y-111412169D01*
X176427637Y-103262169D02*
X176427637Y-111410169D01*
X176467637Y-103265169D02*
X176467637Y-111407169D01*
X176507637Y-103268169D02*
X176507637Y-111404169D01*
X176547637Y-103271169D02*
X176547637Y-111401169D01*
X176587637Y-103275169D02*
X176587637Y-111397169D01*
X176627637Y-103279169D02*
X176627637Y-111393169D01*
X176667637Y-103284169D02*
X176667637Y-111388169D01*
X176707637Y-103288169D02*
X176707637Y-111384169D01*
X176747637Y-103294169D02*
X176747637Y-111378169D01*
X176787637Y-103299169D02*
X176787637Y-111373169D01*
X176827637Y-103306169D02*
X176827637Y-111366169D01*
X176867637Y-103312169D02*
X176867637Y-111360169D01*
X176908637Y-103319169D02*
X176908637Y-111353169D01*
X176948637Y-103326169D02*
X176948637Y-111346169D01*
X176988637Y-103334169D02*
X176988637Y-111338169D01*
X177028637Y-103342169D02*
X177028637Y-111330169D01*
X177068637Y-103351169D02*
X177068637Y-111321169D01*
X177108637Y-103360169D02*
X177108637Y-111312169D01*
X177148637Y-103369169D02*
X177148637Y-111303169D01*
X177188637Y-103379169D02*
X177188637Y-111293169D01*
X177228637Y-103389169D02*
X177228637Y-111283169D01*
X177268637Y-103400169D02*
X177268637Y-111272169D01*
X177308637Y-103411169D02*
X177308637Y-111261169D01*
X177348637Y-103422169D02*
X177348637Y-111250169D01*
X177388637Y-103434169D02*
X177388637Y-111238169D01*
X177428637Y-103447169D02*
X177428637Y-111225169D01*
X177468637Y-103459169D02*
X177468637Y-111213169D01*
X177508637Y-103473169D02*
X177508637Y-111199169D01*
X177548637Y-103486169D02*
X177548637Y-111186169D01*
X177588637Y-103501169D02*
X177588637Y-111171169D01*
X177628637Y-103515169D02*
X177628637Y-111157169D01*
X177668637Y-103531169D02*
X177668637Y-106296169D01*
X177668637Y-108376169D02*
X177668637Y-111141169D01*
X177708637Y-103546169D02*
X177708637Y-106296169D01*
X177708637Y-108376169D02*
X177708637Y-111126169D01*
X177748637Y-103562169D02*
X177748637Y-106296169D01*
X177748637Y-108376169D02*
X177748637Y-111110169D01*
X177788637Y-103579169D02*
X177788637Y-106296169D01*
X177788637Y-108376169D02*
X177788637Y-111093169D01*
X177828637Y-103596169D02*
X177828637Y-106296169D01*
X177828637Y-108376169D02*
X177828637Y-111076169D01*
X177868637Y-103614169D02*
X177868637Y-106296169D01*
X177868637Y-108376169D02*
X177868637Y-111058169D01*
X177908637Y-103632169D02*
X177908637Y-106296169D01*
X177908637Y-108376169D02*
X177908637Y-111040169D01*
X177948637Y-103650169D02*
X177948637Y-106296169D01*
X177948637Y-108376169D02*
X177948637Y-111022169D01*
X177988637Y-103670169D02*
X177988637Y-106296169D01*
X177988637Y-108376169D02*
X177988637Y-111002169D01*
X178028637Y-103689169D02*
X178028637Y-106296169D01*
X178028637Y-108376169D02*
X178028637Y-110983169D01*
X178068637Y-103709169D02*
X178068637Y-106296169D01*
X178068637Y-108376169D02*
X178068637Y-110963169D01*
X178108637Y-103730169D02*
X178108637Y-106296169D01*
X178108637Y-108376169D02*
X178108637Y-110942169D01*
X178148637Y-103752169D02*
X178148637Y-106296169D01*
X178148637Y-108376169D02*
X178148637Y-110920169D01*
X178188637Y-103774169D02*
X178188637Y-106296169D01*
X178188637Y-108376169D02*
X178188637Y-110898169D01*
X178228637Y-103796169D02*
X178228637Y-106296169D01*
X178228637Y-108376169D02*
X178228637Y-110876169D01*
X178268637Y-103819169D02*
X178268637Y-106296169D01*
X178268637Y-108376169D02*
X178268637Y-110853169D01*
X178308637Y-103843169D02*
X178308637Y-106296169D01*
X178308637Y-108376169D02*
X178308637Y-110829169D01*
X178348637Y-103867169D02*
X178348637Y-106296169D01*
X178348637Y-108376169D02*
X178348637Y-110805169D01*
X178388637Y-103892169D02*
X178388637Y-106296169D01*
X178388637Y-108376169D02*
X178388637Y-110780169D01*
X178428637Y-103918169D02*
X178428637Y-106296169D01*
X178428637Y-108376169D02*
X178428637Y-110754169D01*
X178468637Y-103944169D02*
X178468637Y-106296169D01*
X178468637Y-108376169D02*
X178468637Y-110728169D01*
X178508637Y-103971169D02*
X178508637Y-106296169D01*
X178508637Y-108376169D02*
X178508637Y-110701169D01*
X178548637Y-103998169D02*
X178548637Y-106296169D01*
X178548637Y-108376169D02*
X178548637Y-110674169D01*
X178588637Y-104027169D02*
X178588637Y-106296169D01*
X178588637Y-108376169D02*
X178588637Y-110645169D01*
X178628637Y-104056169D02*
X178628637Y-106296169D01*
X178628637Y-108376169D02*
X178628637Y-110616169D01*
X178668637Y-104086169D02*
X178668637Y-106296169D01*
X178668637Y-108376169D02*
X178668637Y-110586169D01*
X178708637Y-104116169D02*
X178708637Y-106296169D01*
X178708637Y-108376169D02*
X178708637Y-110556169D01*
X178748637Y-104147169D02*
X178748637Y-106296169D01*
X178748637Y-108376169D02*
X178748637Y-110525169D01*
X178788637Y-104180169D02*
X178788637Y-106296169D01*
X178788637Y-108376169D02*
X178788637Y-110492169D01*
X178828637Y-104212169D02*
X178828637Y-106296169D01*
X178828637Y-108376169D02*
X178828637Y-110460169D01*
X178868637Y-104246169D02*
X178868637Y-106296169D01*
X178868637Y-108376169D02*
X178868637Y-110426169D01*
X178908637Y-104281169D02*
X178908637Y-106296169D01*
X178908637Y-108376169D02*
X178908637Y-110391169D01*
X178948637Y-104317169D02*
X178948637Y-106296169D01*
X178948637Y-108376169D02*
X178948637Y-110355169D01*
X178988637Y-104353169D02*
X178988637Y-106296169D01*
X178988637Y-108376169D02*
X178988637Y-110319169D01*
X179028637Y-104391169D02*
X179028637Y-106296169D01*
X179028637Y-108376169D02*
X179028637Y-110281169D01*
X179068637Y-104429169D02*
X179068637Y-106296169D01*
X179068637Y-108376169D02*
X179068637Y-110243169D01*
X179108637Y-104469169D02*
X179108637Y-106296169D01*
X179108637Y-108376169D02*
X179108637Y-110203169D01*
X179148637Y-104510169D02*
X179148637Y-106296169D01*
X179148637Y-108376169D02*
X179148637Y-110162169D01*
X179188637Y-104552169D02*
X179188637Y-106296169D01*
X179188637Y-108376169D02*
X179188637Y-110120169D01*
X179228637Y-104595169D02*
X179228637Y-106296169D01*
X179228637Y-108376169D02*
X179228637Y-110077169D01*
X179268637Y-104639169D02*
X179268637Y-106296169D01*
X179268637Y-108376169D02*
X179268637Y-110033169D01*
X179308637Y-104685169D02*
X179308637Y-106296169D01*
X179308637Y-108376169D02*
X179308637Y-109987169D01*
X179348637Y-104732169D02*
X179348637Y-106296169D01*
X179348637Y-108376169D02*
X179348637Y-109940169D01*
X179388637Y-104780169D02*
X179388637Y-106296169D01*
X179388637Y-108376169D02*
X179388637Y-109892169D01*
X179428637Y-104831169D02*
X179428637Y-106296169D01*
X179428637Y-108376169D02*
X179428637Y-109841169D01*
X179468637Y-104882169D02*
X179468637Y-106296169D01*
X179468637Y-108376169D02*
X179468637Y-109790169D01*
X179508637Y-104936169D02*
X179508637Y-106296169D01*
X179508637Y-108376169D02*
X179508637Y-109736169D01*
X179548637Y-104991169D02*
X179548637Y-106296169D01*
X179548637Y-108376169D02*
X179548637Y-109681169D01*
X179588637Y-105049169D02*
X179588637Y-106296169D01*
X179588637Y-108376169D02*
X179588637Y-109623169D01*
X179628637Y-105108169D02*
X179628637Y-106296169D01*
X179628637Y-108376169D02*
X179628637Y-109564169D01*
X179668637Y-105170169D02*
X179668637Y-106296169D01*
X179668637Y-108376169D02*
X179668637Y-109502169D01*
X179708637Y-105234169D02*
X179708637Y-106296169D01*
X179708637Y-108376169D02*
X179708637Y-109438169D01*
X179748637Y-105302169D02*
X179748637Y-109370169D01*
X179788637Y-105372169D02*
X179788637Y-109300169D01*
X179828637Y-105446169D02*
X179828637Y-109226169D01*
X179868637Y-105523169D02*
X179868637Y-109149169D01*
X179908637Y-105605169D02*
X179908637Y-109067169D01*
X179948637Y-105691169D02*
X179948637Y-108981169D01*
X179988637Y-105784169D02*
X179988637Y-108888169D01*
X180028637Y-105883169D02*
X180028637Y-108789169D01*
X180068637Y-105990169D02*
X180068637Y-108682169D01*
X180108637Y-106107169D02*
X180108637Y-108565169D01*
X180148637Y-106238169D02*
X180148637Y-108434169D01*
X180188637Y-106388169D02*
X180188637Y-108284169D01*
X180228637Y-106568169D02*
X180228637Y-108104169D01*
X180268637Y-106803169D02*
X180268637Y-107869169D01*
X180307637Y-107336169D02*
G75*
G03*
X180307637Y-107336169I-4120000J0D01*
G01*
%TO.C,L1*%
X174449934Y-114285576D02*
X175959934Y-114285576D01*
X175959934Y-112165576D02*
X175959934Y-116405576D01*
X175959934Y-116405576D02*
X185699934Y-116405576D01*
X185699934Y-112165576D02*
X175959934Y-112165576D01*
X185699934Y-116405576D02*
X185699934Y-112165576D01*
X187209934Y-114285576D02*
X185699934Y-114285576D01*
D13*
%TO.C,IC1*%
X173990000Y-100840000D02*
X173990000Y-100840000D01*
X173990000Y-100940000D02*
X173990000Y-100940000D01*
X173990000Y-100940000D02*
G75*
G03*
X173990000Y-100840000I0J50000D01*
G01*
X173990000Y-100840000D02*
G75*
G03*
X173990000Y-100940000I0J-50000D01*
G01*
%TD*%
M02*
