%TF.GenerationSoftware,KiCad,Pcbnew,7.0.1*%
%TF.CreationDate,2023-04-27T19:12:44-07:00*%
%TF.ProjectId,LM2670SX-3.3,4c4d3236-3730-4535-982d-332e332e6b69,rev?*%
%TF.SameCoordinates,Original*%
%TF.FileFunction,Copper,L2,Bot*%
%TF.FilePolarity,Positive*%
%FSLAX46Y46*%
G04 Gerber Fmt 4.6, Leading zero omitted, Abs format (unit mm)*
G04 Created by KiCad (PCBNEW 7.0.1) date 2023-04-27 19:12:44*
%MOMM*%
%LPD*%
G01*
G04 APERTURE LIST*
G04 Aperture macros list*
%AMRoundRect*
0 Rectangle with rounded corners*
0 $1 Rounding radius*
0 $2 $3 $4 $5 $6 $7 $8 $9 X,Y pos of 4 corners*
0 Add a 4 corners polygon primitive as box body*
4,1,4,$2,$3,$4,$5,$6,$7,$8,$9,$2,$3,0*
0 Add four circle primitives for the rounded corners*
1,1,$1+$1,$2,$3*
1,1,$1+$1,$4,$5*
1,1,$1+$1,$6,$7*
1,1,$1+$1,$8,$9*
0 Add four rect primitives between the rounded corners*
20,1,$1+$1,$2,$3,$4,$5,0*
20,1,$1+$1,$4,$5,$6,$7,0*
20,1,$1+$1,$6,$7,$8,$9,0*
20,1,$1+$1,$8,$9,$2,$3,0*%
G04 Aperture macros list end*
%TA.AperFunction,ComponentPad*%
%ADD10R,1.700000X1.700000*%
%TD*%
%TA.AperFunction,ComponentPad*%
%ADD11O,1.700000X1.700000*%
%TD*%
%TA.AperFunction,ComponentPad*%
%ADD12R,1.600000X1.600000*%
%TD*%
%TA.AperFunction,ComponentPad*%
%ADD13C,1.600000*%
%TD*%
%TA.AperFunction,ComponentPad*%
%ADD14C,2.000000*%
%TD*%
%TA.AperFunction,ComponentPad*%
%ADD15O,2.000000X2.000000*%
%TD*%
%TA.AperFunction,SMDPad,CuDef*%
%ADD16RoundRect,0.250000X0.337500X1.450000X-0.337500X1.450000X-0.337500X-1.450000X0.337500X-1.450000X0*%
%TD*%
%TA.AperFunction,SMDPad,CuDef*%
%ADD17R,1.450000X1.490000*%
%TD*%
%TA.AperFunction,SMDPad,CuDef*%
%ADD18RoundRect,0.237500X-0.237500X0.300000X-0.237500X-0.300000X0.237500X-0.300000X0.237500X0.300000X0*%
%TD*%
%TA.AperFunction,SMDPad,CuDef*%
%ADD19RoundRect,0.237500X0.300000X0.237500X-0.300000X0.237500X-0.300000X-0.237500X0.300000X-0.237500X0*%
%TD*%
%TA.AperFunction,ViaPad*%
%ADD20C,0.800000*%
%TD*%
%TA.AperFunction,Conductor*%
%ADD21C,0.762000*%
%TD*%
%TA.AperFunction,Conductor*%
%ADD22C,0.508000*%
%TD*%
%TA.AperFunction,Conductor*%
%ADD23C,0.889000*%
%TD*%
G04 APERTURE END LIST*
D10*
%TO.P,J1,1,Pin_1*%
%TO.N,+VDC*%
X188747700Y-101470200D03*
D11*
%TO.P,J1,2,Pin_2*%
%TO.N,+3V3*%
X188747700Y-98930200D03*
%TO.P,J1,3,Pin_3*%
%TO.N,GND*%
X188747700Y-96390200D03*
%TD*%
D12*
%TO.P,C2,1*%
%TO.N,+VDC*%
X183796514Y-103293055D03*
D13*
%TO.P,C2,2*%
%TO.N,GND*%
X183796514Y-105793055D03*
%TD*%
D12*
%TO.P,C1,1*%
%TO.N,+VDC*%
X188788945Y-89705684D03*
D13*
%TO.P,C1,2*%
%TO.N,GND*%
X186288945Y-89705684D03*
%TD*%
D12*
%TO.P,C5,1*%
%TO.N,+3V3*%
X173687637Y-107336169D03*
D13*
%TO.P,C5,2*%
%TO.N,GND*%
X178687637Y-107336169D03*
%TD*%
D14*
%TO.P,L1,1,1*%
%TO.N,Net-(IC1-SWITCH_OUTPUT)*%
X173209934Y-114285576D03*
D15*
%TO.P,L1,2,2*%
%TO.N,+3V3*%
X188449934Y-114285576D03*
%TD*%
D16*
%TO.P,R1,1*%
%TO.N,Net-(IC1-SYNC)*%
X179529660Y-95497996D03*
%TO.P,R1,2*%
%TO.N,GND*%
X177854660Y-95497996D03*
%TD*%
D17*
%TO.P,D2,1*%
%TO.N,Net-(IC1-SWITCH_OUTPUT)*%
X173802430Y-102517684D03*
%TO.P,D2,2*%
%TO.N,GND*%
X178152430Y-102517684D03*
%TD*%
D18*
%TO.P,C4,1*%
%TO.N,+VDC*%
X172100988Y-98684801D03*
%TO.P,C4,2*%
%TO.N,GND*%
X172100988Y-100409801D03*
%TD*%
D19*
%TO.P,C3,1*%
%TO.N,Net-(IC1-CBOOST{slash}CB)*%
X175432040Y-96590316D03*
%TO.P,C3,2*%
%TO.N,Net-(IC1-SWITCH_OUTPUT)*%
X173707040Y-96590316D03*
%TD*%
D20*
%TO.N,+VDC*%
X172100988Y-98684801D03*
%TO.N,GND*%
X177800000Y-99210000D03*
%TO.N,Net-(IC1-CBOOST{slash}CB)*%
X176530000Y-99210000D03*
%TO.N,Net-(IC1-SWITCH_OUTPUT)*%
X173990000Y-99210000D03*
%TO.N,Net-(IC1-SYNC)*%
X179070000Y-99210000D03*
%TD*%
D21*
%TO.N,+VDC*%
X183796514Y-94698115D02*
X183796514Y-103293055D01*
X188788945Y-89705684D02*
X183796514Y-94698115D01*
D22*
%TO.N,GND*%
X172100988Y-100409801D02*
X172100988Y-103194242D01*
X177854660Y-95497996D02*
X177854660Y-99155340D01*
D23*
X177800000Y-102165254D02*
X178152430Y-102517684D01*
D22*
X177854660Y-99155340D02*
X177800000Y-99210000D01*
D23*
X177800000Y-99210000D02*
X177800000Y-100609213D01*
D22*
X176242915Y-107336169D02*
X178687637Y-107336169D01*
D23*
X178687637Y-107336169D02*
X178687637Y-103052891D01*
X177800000Y-100609213D02*
X177800000Y-102165254D01*
X178687637Y-103052891D02*
X178152430Y-102517684D01*
D22*
X172100988Y-103194242D02*
X176242915Y-107336169D01*
%TO.N,Net-(IC1-CBOOST{slash}CB)*%
X176530000Y-97688276D02*
X175432040Y-96590316D01*
X176530000Y-99210000D02*
X176530000Y-97688276D01*
%TO.N,Net-(IC1-SWITCH_OUTPUT)*%
X173990000Y-96873276D02*
X173707040Y-96590316D01*
X173990000Y-99210000D02*
X173990000Y-102330114D01*
X173990000Y-99210000D02*
X173990000Y-96873276D01*
D21*
%TO.N,+3V3*%
X173687637Y-107336169D02*
X180637044Y-114285576D01*
X188449934Y-114285576D02*
X187316700Y-113152342D01*
X180637044Y-114285576D02*
X188449934Y-114285576D01*
X187316700Y-113152342D02*
X187316700Y-100361200D01*
X187316700Y-100361200D02*
X188747700Y-98930200D01*
D22*
%TO.N,Net-(IC1-SYNC)*%
X179070000Y-99210000D02*
X179070000Y-95957656D01*
X179070000Y-95957656D02*
X179529660Y-95497996D01*
%TD*%
M02*
