%TF.GenerationSoftware,KiCad,Pcbnew,7.0.1*%
%TF.CreationDate,2023-04-04T11:47:58-07:00*%
%TF.ProjectId,LM2670SX-3.3,4c4d3236-3730-4535-982d-332e332e6b69,rev?*%
%TF.SameCoordinates,Original*%
%TF.FileFunction,Legend,Bot*%
%TF.FilePolarity,Positive*%
%FSLAX46Y46*%
G04 Gerber Fmt 4.6, Leading zero omitted, Abs format (unit mm)*
G04 Created by KiCad (PCBNEW 7.0.1) date 2023-04-04 11:47:58*
%MOMM*%
%LPD*%
G01*
G04 APERTURE LIST*
%ADD10C,0.150000*%
%ADD11C,0.254000*%
%ADD12C,0.120000*%
%ADD13C,0.200000*%
G04 APERTURE END LIST*
D10*
%TO.C,R1*%
X178858826Y-93310615D02*
X179192159Y-92834424D01*
X179430254Y-93310615D02*
X179430254Y-92310615D01*
X179430254Y-92310615D02*
X179049302Y-92310615D01*
X179049302Y-92310615D02*
X178954064Y-92358234D01*
X178954064Y-92358234D02*
X178906445Y-92405853D01*
X178906445Y-92405853D02*
X178858826Y-92501091D01*
X178858826Y-92501091D02*
X178858826Y-92643948D01*
X178858826Y-92643948D02*
X178906445Y-92739186D01*
X178906445Y-92739186D02*
X178954064Y-92786805D01*
X178954064Y-92786805D02*
X179049302Y-92834424D01*
X179049302Y-92834424D02*
X179430254Y-92834424D01*
X177906445Y-93310615D02*
X178477873Y-93310615D01*
X178192159Y-93310615D02*
X178192159Y-92310615D01*
X178192159Y-92310615D02*
X178287397Y-92453472D01*
X178287397Y-92453472D02*
X178382635Y-92548710D01*
X178382635Y-92548710D02*
X178477873Y-92596329D01*
D11*
%TO.C,D2*%
X176914811Y-103105210D02*
X176914811Y-101835210D01*
X176914811Y-101835210D02*
X176612430Y-101835210D01*
X176612430Y-101835210D02*
X176431001Y-101895686D01*
X176431001Y-101895686D02*
X176310049Y-102016638D01*
X176310049Y-102016638D02*
X176249572Y-102137591D01*
X176249572Y-102137591D02*
X176189096Y-102379495D01*
X176189096Y-102379495D02*
X176189096Y-102560924D01*
X176189096Y-102560924D02*
X176249572Y-102802829D01*
X176249572Y-102802829D02*
X176310049Y-102923781D01*
X176310049Y-102923781D02*
X176431001Y-103044734D01*
X176431001Y-103044734D02*
X176612430Y-103105210D01*
X176612430Y-103105210D02*
X176914811Y-103105210D01*
X175705287Y-101956162D02*
X175644811Y-101895686D01*
X175644811Y-101895686D02*
X175523858Y-101835210D01*
X175523858Y-101835210D02*
X175221477Y-101835210D01*
X175221477Y-101835210D02*
X175100525Y-101895686D01*
X175100525Y-101895686D02*
X175040049Y-101956162D01*
X175040049Y-101956162D02*
X174979572Y-102077114D01*
X174979572Y-102077114D02*
X174979572Y-102198067D01*
X174979572Y-102198067D02*
X175040049Y-102379495D01*
X175040049Y-102379495D02*
X175765763Y-103105210D01*
X175765763Y-103105210D02*
X174979572Y-103105210D01*
D10*
%TO.C,C4*%
X172490903Y-102084054D02*
X172538523Y-102036435D01*
X172538523Y-102036435D02*
X172586142Y-101893578D01*
X172586142Y-101893578D02*
X172586142Y-101798340D01*
X172586142Y-101798340D02*
X172538523Y-101655483D01*
X172538523Y-101655483D02*
X172443284Y-101560245D01*
X172443284Y-101560245D02*
X172348046Y-101512626D01*
X172348046Y-101512626D02*
X172157570Y-101465007D01*
X172157570Y-101465007D02*
X172014713Y-101465007D01*
X172014713Y-101465007D02*
X171824237Y-101512626D01*
X171824237Y-101512626D02*
X171728999Y-101560245D01*
X171728999Y-101560245D02*
X171633761Y-101655483D01*
X171633761Y-101655483D02*
X171586142Y-101798340D01*
X171586142Y-101798340D02*
X171586142Y-101893578D01*
X171586142Y-101893578D02*
X171633761Y-102036435D01*
X171633761Y-102036435D02*
X171681380Y-102084054D01*
X171919475Y-102941197D02*
X172586142Y-102941197D01*
X171538523Y-102703102D02*
X172252808Y-102465007D01*
X172252808Y-102465007D02*
X172252808Y-103084054D01*
%TO.C,C3*%
X174736206Y-95527696D02*
X174783825Y-95575316D01*
X174783825Y-95575316D02*
X174926682Y-95622935D01*
X174926682Y-95622935D02*
X175021920Y-95622935D01*
X175021920Y-95622935D02*
X175164777Y-95575316D01*
X175164777Y-95575316D02*
X175260015Y-95480077D01*
X175260015Y-95480077D02*
X175307634Y-95384839D01*
X175307634Y-95384839D02*
X175355253Y-95194363D01*
X175355253Y-95194363D02*
X175355253Y-95051506D01*
X175355253Y-95051506D02*
X175307634Y-94861030D01*
X175307634Y-94861030D02*
X175260015Y-94765792D01*
X175260015Y-94765792D02*
X175164777Y-94670554D01*
X175164777Y-94670554D02*
X175021920Y-94622935D01*
X175021920Y-94622935D02*
X174926682Y-94622935D01*
X174926682Y-94622935D02*
X174783825Y-94670554D01*
X174783825Y-94670554D02*
X174736206Y-94718173D01*
X174402872Y-94622935D02*
X173783825Y-94622935D01*
X173783825Y-94622935D02*
X174117158Y-95003887D01*
X174117158Y-95003887D02*
X173974301Y-95003887D01*
X173974301Y-95003887D02*
X173879063Y-95051506D01*
X173879063Y-95051506D02*
X173831444Y-95099125D01*
X173831444Y-95099125D02*
X173783825Y-95194363D01*
X173783825Y-95194363D02*
X173783825Y-95432458D01*
X173783825Y-95432458D02*
X173831444Y-95527696D01*
X173831444Y-95527696D02*
X173879063Y-95575316D01*
X173879063Y-95575316D02*
X173974301Y-95622935D01*
X173974301Y-95622935D02*
X174260015Y-95622935D01*
X174260015Y-95622935D02*
X174355253Y-95575316D01*
X174355253Y-95575316D02*
X174402872Y-95527696D01*
D12*
%TO.C,R1*%
X178875143Y-97207996D02*
X178509177Y-97207996D01*
X178875143Y-93787996D02*
X178509177Y-93787996D01*
D13*
%TO.C,D2*%
X173077430Y-103817684D02*
X178102430Y-103817684D01*
X173852430Y-101217684D02*
X178102430Y-101217684D01*
D12*
%TO.C,C4*%
X172610988Y-99401034D02*
X172610988Y-99693568D01*
X171590988Y-99401034D02*
X171590988Y-99693568D01*
%TO.C,C3*%
X174715807Y-97100316D02*
X174423273Y-97100316D01*
X174715807Y-96080316D02*
X174423273Y-96080316D01*
%TD*%
M02*
