%TF.GenerationSoftware,KiCad,Pcbnew,8.0.1-rc1*%
%TF.CreationDate,2024-10-01T13:01:29-07:00*%
%TF.ProjectId,LM2670-ADJ-Carrier,4c4d3236-3730-42d4-9144-4a2d43617272,rev?*%
%TF.SameCoordinates,Original*%
%TF.FileFunction,Legend,Bot*%
%TF.FilePolarity,Positive*%
%FSLAX46Y46*%
G04 Gerber Fmt 4.6, Leading zero omitted, Abs format (unit mm)*
G04 Created by KiCad (PCBNEW 8.0.1-rc1) date 2024-10-01 13:01:29*
%MOMM*%
%LPD*%
G01*
G04 APERTURE LIST*
G04 Aperture macros list*
%AMRoundRect*
0 Rectangle with rounded corners*
0 $1 Rounding radius*
0 $2 $3 $4 $5 $6 $7 $8 $9 X,Y pos of 4 corners*
0 Add a 4 corners polygon primitive as box body*
4,1,4,$2,$3,$4,$5,$6,$7,$8,$9,$2,$3,0*
0 Add four circle primitives for the rounded corners*
1,1,$1+$1,$2,$3*
1,1,$1+$1,$4,$5*
1,1,$1+$1,$6,$7*
1,1,$1+$1,$8,$9*
0 Add four rect primitives between the rounded corners*
20,1,$1+$1,$2,$3,$4,$5,0*
20,1,$1+$1,$4,$5,$6,$7,0*
20,1,$1+$1,$6,$7,$8,$9,0*
20,1,$1+$1,$8,$9,$2,$3,0*%
G04 Aperture macros list end*
%ADD10C,0.254000*%
%ADD11C,0.150000*%
%ADD12C,0.200000*%
%ADD13C,0.120000*%
%ADD14R,1.450000X1.490000*%
%ADD15R,1.700000X1.700000*%
%ADD16O,1.700000X1.700000*%
%ADD17C,2.000000*%
%ADD18O,2.000000X2.000000*%
%ADD19R,1.600000X1.600000*%
%ADD20C,1.600000*%
%ADD21RoundRect,0.250000X0.400000X0.625000X-0.400000X0.625000X-0.400000X-0.625000X0.400000X-0.625000X0*%
%ADD22RoundRect,0.250000X-0.650000X0.412500X-0.650000X-0.412500X0.650000X-0.412500X0.650000X0.412500X0*%
%ADD23RoundRect,0.250000X0.412500X0.650000X-0.412500X0.650000X-0.412500X-0.650000X0.412500X-0.650000X0*%
G04 APERTURE END LIST*
D10*
X143425059Y-105473377D02*
X143425059Y-104203377D01*
X143425059Y-104203377D02*
X143122678Y-104203377D01*
X143122678Y-104203377D02*
X142941249Y-104263853D01*
X142941249Y-104263853D02*
X142820297Y-104384805D01*
X142820297Y-104384805D02*
X142759820Y-104505758D01*
X142759820Y-104505758D02*
X142699344Y-104747662D01*
X142699344Y-104747662D02*
X142699344Y-104929091D01*
X142699344Y-104929091D02*
X142759820Y-105170996D01*
X142759820Y-105170996D02*
X142820297Y-105291948D01*
X142820297Y-105291948D02*
X142941249Y-105412901D01*
X142941249Y-105412901D02*
X143122678Y-105473377D01*
X143122678Y-105473377D02*
X143425059Y-105473377D01*
X141489820Y-105473377D02*
X142215535Y-105473377D01*
X141852678Y-105473377D02*
X141852678Y-104203377D01*
X141852678Y-104203377D02*
X141973630Y-104384805D01*
X141973630Y-104384805D02*
X142094582Y-104505758D01*
X142094582Y-104505758D02*
X142215535Y-104566234D01*
D11*
X144949118Y-88583855D02*
X145282451Y-88107664D01*
X145520546Y-88583855D02*
X145520546Y-87583855D01*
X145520546Y-87583855D02*
X145139594Y-87583855D01*
X145139594Y-87583855D02*
X145044356Y-87631474D01*
X145044356Y-87631474D02*
X144996737Y-87679093D01*
X144996737Y-87679093D02*
X144949118Y-87774331D01*
X144949118Y-87774331D02*
X144949118Y-87917188D01*
X144949118Y-87917188D02*
X144996737Y-88012426D01*
X144996737Y-88012426D02*
X145044356Y-88060045D01*
X145044356Y-88060045D02*
X145139594Y-88107664D01*
X145139594Y-88107664D02*
X145520546Y-88107664D01*
X144568165Y-87679093D02*
X144520546Y-87631474D01*
X144520546Y-87631474D02*
X144425308Y-87583855D01*
X144425308Y-87583855D02*
X144187213Y-87583855D01*
X144187213Y-87583855D02*
X144091975Y-87631474D01*
X144091975Y-87631474D02*
X144044356Y-87679093D01*
X144044356Y-87679093D02*
X143996737Y-87774331D01*
X143996737Y-87774331D02*
X143996737Y-87869569D01*
X143996737Y-87869569D02*
X144044356Y-88012426D01*
X144044356Y-88012426D02*
X144615784Y-88583855D01*
X144615784Y-88583855D02*
X143996737Y-88583855D01*
X136518593Y-103118361D02*
X136566213Y-103070742D01*
X136566213Y-103070742D02*
X136613832Y-102927885D01*
X136613832Y-102927885D02*
X136613832Y-102832647D01*
X136613832Y-102832647D02*
X136566213Y-102689790D01*
X136566213Y-102689790D02*
X136470974Y-102594552D01*
X136470974Y-102594552D02*
X136375736Y-102546933D01*
X136375736Y-102546933D02*
X136185260Y-102499314D01*
X136185260Y-102499314D02*
X136042403Y-102499314D01*
X136042403Y-102499314D02*
X135851927Y-102546933D01*
X135851927Y-102546933D02*
X135756689Y-102594552D01*
X135756689Y-102594552D02*
X135661451Y-102689790D01*
X135661451Y-102689790D02*
X135613832Y-102832647D01*
X135613832Y-102832647D02*
X135613832Y-102927885D01*
X135613832Y-102927885D02*
X135661451Y-103070742D01*
X135661451Y-103070742D02*
X135709070Y-103118361D01*
X135947165Y-103975504D02*
X136613832Y-103975504D01*
X135566213Y-103737409D02*
X136280498Y-103499314D01*
X136280498Y-103499314D02*
X136280498Y-104118361D01*
X139898208Y-88595308D02*
X140231541Y-88119117D01*
X140469636Y-88595308D02*
X140469636Y-87595308D01*
X140469636Y-87595308D02*
X140088684Y-87595308D01*
X140088684Y-87595308D02*
X139993446Y-87642927D01*
X139993446Y-87642927D02*
X139945827Y-87690546D01*
X139945827Y-87690546D02*
X139898208Y-87785784D01*
X139898208Y-87785784D02*
X139898208Y-87928641D01*
X139898208Y-87928641D02*
X139945827Y-88023879D01*
X139945827Y-88023879D02*
X139993446Y-88071498D01*
X139993446Y-88071498D02*
X140088684Y-88119117D01*
X140088684Y-88119117D02*
X140469636Y-88119117D01*
X139564874Y-87595308D02*
X138945827Y-87595308D01*
X138945827Y-87595308D02*
X139279160Y-87976260D01*
X139279160Y-87976260D02*
X139136303Y-87976260D01*
X139136303Y-87976260D02*
X139041065Y-88023879D01*
X139041065Y-88023879D02*
X138993446Y-88071498D01*
X138993446Y-88071498D02*
X138945827Y-88166736D01*
X138945827Y-88166736D02*
X138945827Y-88404831D01*
X138945827Y-88404831D02*
X138993446Y-88500069D01*
X138993446Y-88500069D02*
X139041065Y-88547689D01*
X139041065Y-88547689D02*
X139136303Y-88595308D01*
X139136303Y-88595308D02*
X139422017Y-88595308D01*
X139422017Y-88595308D02*
X139517255Y-88547689D01*
X139517255Y-88547689D02*
X139564874Y-88500069D01*
X139779250Y-93487497D02*
X139826869Y-93535117D01*
X139826869Y-93535117D02*
X139969726Y-93582736D01*
X139969726Y-93582736D02*
X140064964Y-93582736D01*
X140064964Y-93582736D02*
X140207821Y-93535117D01*
X140207821Y-93535117D02*
X140303059Y-93439878D01*
X140303059Y-93439878D02*
X140350678Y-93344640D01*
X140350678Y-93344640D02*
X140398297Y-93154164D01*
X140398297Y-93154164D02*
X140398297Y-93011307D01*
X140398297Y-93011307D02*
X140350678Y-92820831D01*
X140350678Y-92820831D02*
X140303059Y-92725593D01*
X140303059Y-92725593D02*
X140207821Y-92630355D01*
X140207821Y-92630355D02*
X140064964Y-92582736D01*
X140064964Y-92582736D02*
X139969726Y-92582736D01*
X139969726Y-92582736D02*
X139826869Y-92630355D01*
X139826869Y-92630355D02*
X139779250Y-92677974D01*
X139445916Y-92582736D02*
X138826869Y-92582736D01*
X138826869Y-92582736D02*
X139160202Y-92963688D01*
X139160202Y-92963688D02*
X139017345Y-92963688D01*
X139017345Y-92963688D02*
X138922107Y-93011307D01*
X138922107Y-93011307D02*
X138874488Y-93058926D01*
X138874488Y-93058926D02*
X138826869Y-93154164D01*
X138826869Y-93154164D02*
X138826869Y-93392259D01*
X138826869Y-93392259D02*
X138874488Y-93487497D01*
X138874488Y-93487497D02*
X138922107Y-93535117D01*
X138922107Y-93535117D02*
X139017345Y-93582736D01*
X139017345Y-93582736D02*
X139303059Y-93582736D01*
X139303059Y-93582736D02*
X139398297Y-93535117D01*
X139398297Y-93535117D02*
X139445916Y-93487497D01*
D12*
%TO.C,D1*%
X140362678Y-103599059D02*
X145387678Y-103599059D01*
X140362678Y-106199059D02*
X144612678Y-106199059D01*
D13*
%TO.C,R2*%
X144055388Y-89039036D02*
X145509516Y-89039036D01*
X144055388Y-90859036D02*
X145509516Y-90859036D01*
%TO.C,C4*%
X137099013Y-103996280D02*
X137099013Y-102573776D01*
X138919013Y-103996280D02*
X138919013Y-102573776D01*
%TO.C,R3*%
X139004478Y-89050489D02*
X140458606Y-89050489D01*
X139004478Y-90870489D02*
X140458606Y-90870489D01*
%TO.C,C3*%
X138901332Y-94067917D02*
X140323836Y-94067917D01*
X138901332Y-95887917D02*
X140323836Y-95887917D01*
%TD*%
%LPC*%
D14*
%TO.C,D1*%
X144662678Y-104899059D03*
X140312678Y-104899059D03*
%TD*%
D15*
%TO.C,J1*%
X153109449Y-101617000D03*
D16*
X153109449Y-99077000D03*
X153109449Y-96537000D03*
%TD*%
D17*
%TO.C,L1*%
X137571683Y-114432376D03*
D18*
X152811683Y-114432376D03*
%TD*%
D19*
%TO.C,C5*%
X138049386Y-107482969D03*
D20*
X143049386Y-107482969D03*
%TD*%
D19*
%TO.C,C2*%
X148158263Y-103439855D03*
D20*
X148158263Y-105939855D03*
%TD*%
D19*
%TO.C,C1*%
X153150694Y-89852484D03*
D20*
X150650694Y-89852484D03*
%TD*%
D21*
%TO.C,R2*%
X146332452Y-89949036D03*
X143232452Y-89949036D03*
%TD*%
D22*
%TO.C,C4*%
X138009013Y-101722528D03*
X138009013Y-104847528D03*
%TD*%
D21*
%TO.C,R3*%
X141281542Y-89960489D03*
X138181542Y-89960489D03*
%TD*%
D23*
%TO.C,C3*%
X141175084Y-94977917D03*
X138050084Y-94977917D03*
%TD*%
%LPD*%
M02*
