%TF.GenerationSoftware,KiCad,Pcbnew,7.0.1*%
%TF.CreationDate,2023-05-08T08:01:26-07:00*%
%TF.ProjectId,LM2670-ADJ-Carrier,4c4d3236-3730-42d4-9144-4a2d43617272,rev?*%
%TF.SameCoordinates,Original*%
%TF.FileFunction,Copper,L1,Top*%
%TF.FilePolarity,Positive*%
%FSLAX46Y46*%
G04 Gerber Fmt 4.6, Leading zero omitted, Abs format (unit mm)*
G04 Created by KiCad (PCBNEW 7.0.1) date 2023-05-08 08:01:26*
%MOMM*%
%LPD*%
G01*
G04 APERTURE LIST*
%TA.AperFunction,ComponentPad*%
%ADD10O,1.700000X1.700000*%
%TD*%
%TA.AperFunction,ComponentPad*%
%ADD11R,1.700000X1.700000*%
%TD*%
%TA.AperFunction,ComponentPad*%
%ADD12C,2.000000*%
%TD*%
%TA.AperFunction,ComponentPad*%
%ADD13O,2.000000X2.000000*%
%TD*%
%TA.AperFunction,ComponentPad*%
%ADD14R,1.600000X1.600000*%
%TD*%
%TA.AperFunction,ComponentPad*%
%ADD15C,1.600000*%
%TD*%
%TA.AperFunction,SMDPad,CuDef*%
%ADD16R,0.910000X2.160000*%
%TD*%
%TA.AperFunction,SMDPad,CuDef*%
%ADD17R,10.800000X10.410000*%
%TD*%
%TA.AperFunction,ViaPad*%
%ADD18C,0.800000*%
%TD*%
%TA.AperFunction,Conductor*%
%ADD19C,0.762000*%
%TD*%
G04 APERTURE END LIST*
D10*
%TO.P,J1,3,Pin_3*%
%TO.N,GND*%
X153109449Y-96537000D03*
%TO.P,J1,2,Pin_2*%
%TO.N,Net-(J1-Pin_2)*%
X153109449Y-99077000D03*
D11*
%TO.P,J1,1,Pin_1*%
%TO.N,+VDC*%
X153109449Y-101617000D03*
%TD*%
D12*
%TO.P,L1,1,1*%
%TO.N,Net-(IC1-SWITCH_OUTPUT)*%
X137571683Y-114432376D03*
D13*
%TO.P,L1,2,2*%
%TO.N,Net-(J1-Pin_2)*%
X152811683Y-114432376D03*
%TD*%
D14*
%TO.P,C5,1*%
%TO.N,Net-(J1-Pin_2)*%
X138049386Y-107482969D03*
D15*
%TO.P,C5,2*%
%TO.N,GND*%
X143049386Y-107482969D03*
%TD*%
D14*
%TO.P,C2,1*%
%TO.N,+VDC*%
X148158263Y-103439855D03*
D15*
%TO.P,C2,2*%
%TO.N,GND*%
X148158263Y-105939855D03*
%TD*%
D14*
%TO.P,C1,1*%
%TO.N,+VDC*%
X153150694Y-89852484D03*
D15*
%TO.P,C1,2*%
%TO.N,GND*%
X150650694Y-89852484D03*
%TD*%
D16*
%TO.P,IC1,1,SWITCH_OUTPUT*%
%TO.N,Net-(IC1-SWITCH_OUTPUT)*%
X138351749Y-99356800D03*
%TO.P,IC1,2,INPUT*%
%TO.N,+VDC*%
X139621749Y-99356800D03*
%TO.P,IC1,3,CBOOST/CB*%
%TO.N,Net-(IC1-CBOOST{slash}CB)*%
X140891749Y-99356800D03*
%TO.P,IC1,4,GND*%
%TO.N,GND*%
X142161749Y-99356800D03*
%TO.P,IC1,5,SYNC*%
%TO.N,unconnected-(IC1-SYNC-Pad5)*%
X143431749Y-99356800D03*
%TO.P,IC1,6,FEEDBACK/FB*%
%TO.N,Net-(IC1-FEEDBACK{slash}FB)*%
X144701749Y-99356800D03*
%TO.P,IC1,7,ON/~{OFF}*%
%TO.N,unconnected-(IC1-ON{slash}~{OFF}-Pad7)*%
X145971749Y-99356800D03*
D17*
%TO.P,IC1,8,EP*%
%TO.N,GND*%
X142161749Y-91036800D03*
%TD*%
D18*
%TO.N,GND*%
X145044492Y-90116316D03*
X139361089Y-104173410D03*
%TO.N,+VDC*%
X136584816Y-100914487D03*
%TO.N,Net-(IC1-SWITCH_OUTPUT)*%
X138310708Y-99329224D03*
%TO.N,Net-(IC1-CBOOST{slash}CB)*%
X140905938Y-99349110D03*
%TO.N,Net-(IC1-FEEDBACK{slash}FB)*%
X144645369Y-99368287D03*
%TD*%
D19*
%TO.N,+VDC*%
X149981118Y-101617000D02*
X148158263Y-103439855D01*
X153109449Y-101617000D02*
X149981118Y-101617000D01*
%TO.N,GND*%
X143082233Y-90116316D02*
X142161749Y-91036800D01*
X145044492Y-90116316D02*
X143082233Y-90116316D01*
X142161749Y-99301423D02*
X142161749Y-91036800D01*
X142114062Y-99349110D02*
X142161749Y-99301423D01*
%TO.N,+VDC*%
X150570675Y-99078226D02*
X153109449Y-101617000D01*
X150570675Y-96463768D02*
X150570675Y-99078226D01*
X153150694Y-93883749D02*
X150570675Y-96463768D01*
X153150694Y-89852484D02*
X153150694Y-93883749D01*
%TO.N,Net-(IC1-SWITCH_OUTPUT)*%
X136571683Y-103031866D02*
X138351749Y-101251800D01*
X138351749Y-101251800D02*
X138351749Y-99356800D01*
X136571683Y-113432376D02*
X136571683Y-103031866D01*
X137571683Y-114432376D02*
X136571683Y-113432376D01*
%TO.N,GND*%
X139739827Y-104173410D02*
X143049386Y-107482969D01*
X139361089Y-104173410D02*
X139739827Y-104173410D01*
X142114062Y-106547645D02*
X143049386Y-107482969D01*
X142114062Y-99349110D02*
X142114062Y-106547645D01*
%TO.N,Net-(J1-Pin_2)*%
X144998793Y-114432376D02*
X152811683Y-114432376D01*
X138049386Y-107482969D02*
X144998793Y-114432376D01*
%TO.N,GND*%
X146615149Y-107482969D02*
X148158263Y-105939855D01*
X143049386Y-107482969D02*
X146615149Y-107482969D01*
%TO.N,+VDC*%
X136699876Y-97207016D02*
X136584816Y-97322076D01*
X139410164Y-97207016D02*
X136699876Y-97207016D01*
X139589142Y-97385994D02*
X139410164Y-97207016D01*
X136584816Y-97322076D02*
X136584816Y-100914487D01*
X139589142Y-99334513D02*
X139589142Y-97385994D01*
%TD*%
M02*
