%TF.GenerationSoftware,KiCad,Pcbnew,8.0.1-rc1*%
%TF.CreationDate,2024-10-01T13:01:29-07:00*%
%TF.ProjectId,LM2670-ADJ-Carrier,4c4d3236-3730-42d4-9144-4a2d43617272,rev?*%
%TF.SameCoordinates,Original*%
%TF.FileFunction,Legend,Top*%
%TF.FilePolarity,Positive*%
%FSLAX46Y46*%
G04 Gerber Fmt 4.6, Leading zero omitted, Abs format (unit mm)*
G04 Created by KiCad (PCBNEW 8.0.1-rc1) date 2024-10-01 13:01:29*
%MOMM*%
%LPD*%
G01*
G04 APERTURE LIST*
%ADD10C,0.150000*%
%ADD11C,0.254000*%
%ADD12C,0.120000*%
%ADD13C,0.100000*%
%ADD14R,1.700000X1.700000*%
%ADD15O,1.700000X1.700000*%
%ADD16C,2.000000*%
%ADD17O,2.000000X2.000000*%
%ADD18R,1.600000X1.600000*%
%ADD19C,1.600000*%
%ADD20R,0.910000X2.160000*%
%ADD21R,10.800000X10.410000*%
G04 APERTURE END LIST*
D10*
X149907978Y-98481998D02*
X150241311Y-99481998D01*
X150241311Y-99481998D02*
X150574644Y-98481998D01*
X151098454Y-98481998D02*
X151288930Y-98481998D01*
X151288930Y-98481998D02*
X151384168Y-98529617D01*
X151384168Y-98529617D02*
X151479406Y-98624855D01*
X151479406Y-98624855D02*
X151527025Y-98815331D01*
X151527025Y-98815331D02*
X151527025Y-99148664D01*
X151527025Y-99148664D02*
X151479406Y-99339140D01*
X151479406Y-99339140D02*
X151384168Y-99434379D01*
X151384168Y-99434379D02*
X151288930Y-99481998D01*
X151288930Y-99481998D02*
X151098454Y-99481998D01*
X151098454Y-99481998D02*
X151003216Y-99434379D01*
X151003216Y-99434379D02*
X150907978Y-99339140D01*
X150907978Y-99339140D02*
X150860359Y-99148664D01*
X150860359Y-99148664D02*
X150860359Y-98815331D01*
X150860359Y-98815331D02*
X150907978Y-98624855D01*
X150907978Y-98624855D02*
X151003216Y-98529617D01*
X151003216Y-98529617D02*
X151098454Y-98481998D01*
X152535253Y-111960346D02*
X152535253Y-112436536D01*
X152535253Y-112436536D02*
X151535253Y-112436536D01*
X152535253Y-111627012D02*
X151535253Y-111627012D01*
X151535253Y-111627012D02*
X152249538Y-111293679D01*
X152249538Y-111293679D02*
X151535253Y-110960346D01*
X151535253Y-110960346D02*
X152535253Y-110960346D01*
X151630491Y-110531774D02*
X151582872Y-110484155D01*
X151582872Y-110484155D02*
X151535253Y-110388917D01*
X151535253Y-110388917D02*
X151535253Y-110150822D01*
X151535253Y-110150822D02*
X151582872Y-110055584D01*
X151582872Y-110055584D02*
X151630491Y-110007965D01*
X151630491Y-110007965D02*
X151725729Y-109960346D01*
X151725729Y-109960346D02*
X151820967Y-109960346D01*
X151820967Y-109960346D02*
X151963824Y-110007965D01*
X151963824Y-110007965D02*
X152535253Y-110579393D01*
X152535253Y-110579393D02*
X152535253Y-109960346D01*
X151535253Y-109103203D02*
X151535253Y-109293679D01*
X151535253Y-109293679D02*
X151582872Y-109388917D01*
X151582872Y-109388917D02*
X151630491Y-109436536D01*
X151630491Y-109436536D02*
X151773348Y-109531774D01*
X151773348Y-109531774D02*
X151963824Y-109579393D01*
X151963824Y-109579393D02*
X152344776Y-109579393D01*
X152344776Y-109579393D02*
X152440014Y-109531774D01*
X152440014Y-109531774D02*
X152487634Y-109484155D01*
X152487634Y-109484155D02*
X152535253Y-109388917D01*
X152535253Y-109388917D02*
X152535253Y-109198441D01*
X152535253Y-109198441D02*
X152487634Y-109103203D01*
X152487634Y-109103203D02*
X152440014Y-109055584D01*
X152440014Y-109055584D02*
X152344776Y-109007965D01*
X152344776Y-109007965D02*
X152106681Y-109007965D01*
X152106681Y-109007965D02*
X152011443Y-109055584D01*
X152011443Y-109055584D02*
X151963824Y-109103203D01*
X151963824Y-109103203D02*
X151916205Y-109198441D01*
X151916205Y-109198441D02*
X151916205Y-109388917D01*
X151916205Y-109388917D02*
X151963824Y-109484155D01*
X151963824Y-109484155D02*
X152011443Y-109531774D01*
X152011443Y-109531774D02*
X152106681Y-109579393D01*
X151535253Y-108674631D02*
X151535253Y-108007965D01*
X151535253Y-108007965D02*
X152535253Y-108436536D01*
X151535253Y-107436536D02*
X151535253Y-107341298D01*
X151535253Y-107341298D02*
X151582872Y-107246060D01*
X151582872Y-107246060D02*
X151630491Y-107198441D01*
X151630491Y-107198441D02*
X151725729Y-107150822D01*
X151725729Y-107150822D02*
X151916205Y-107103203D01*
X151916205Y-107103203D02*
X152154300Y-107103203D01*
X152154300Y-107103203D02*
X152344776Y-107150822D01*
X152344776Y-107150822D02*
X152440014Y-107198441D01*
X152440014Y-107198441D02*
X152487634Y-107246060D01*
X152487634Y-107246060D02*
X152535253Y-107341298D01*
X152535253Y-107341298D02*
X152535253Y-107436536D01*
X152535253Y-107436536D02*
X152487634Y-107531774D01*
X152487634Y-107531774D02*
X152440014Y-107579393D01*
X152440014Y-107579393D02*
X152344776Y-107627012D01*
X152344776Y-107627012D02*
X152154300Y-107674631D01*
X152154300Y-107674631D02*
X151916205Y-107674631D01*
X151916205Y-107674631D02*
X151725729Y-107627012D01*
X151725729Y-107627012D02*
X151630491Y-107579393D01*
X151630491Y-107579393D02*
X151582872Y-107531774D01*
X151582872Y-107531774D02*
X151535253Y-107436536D01*
X152487634Y-106722250D02*
X152535253Y-106579393D01*
X152535253Y-106579393D02*
X152535253Y-106341298D01*
X152535253Y-106341298D02*
X152487634Y-106246060D01*
X152487634Y-106246060D02*
X152440014Y-106198441D01*
X152440014Y-106198441D02*
X152344776Y-106150822D01*
X152344776Y-106150822D02*
X152249538Y-106150822D01*
X152249538Y-106150822D02*
X152154300Y-106198441D01*
X152154300Y-106198441D02*
X152106681Y-106246060D01*
X152106681Y-106246060D02*
X152059062Y-106341298D01*
X152059062Y-106341298D02*
X152011443Y-106531774D01*
X152011443Y-106531774D02*
X151963824Y-106627012D01*
X151963824Y-106627012D02*
X151916205Y-106674631D01*
X151916205Y-106674631D02*
X151820967Y-106722250D01*
X151820967Y-106722250D02*
X151725729Y-106722250D01*
X151725729Y-106722250D02*
X151630491Y-106674631D01*
X151630491Y-106674631D02*
X151582872Y-106627012D01*
X151582872Y-106627012D02*
X151535253Y-106531774D01*
X151535253Y-106531774D02*
X151535253Y-106293679D01*
X151535253Y-106293679D02*
X151582872Y-106150822D01*
X151535253Y-105817488D02*
X152535253Y-105150822D01*
X151535253Y-105150822D02*
X152535253Y-105817488D01*
X153859482Y-112507965D02*
X153859482Y-112031775D01*
X154145197Y-112603203D02*
X153145197Y-112269870D01*
X153145197Y-112269870D02*
X154145197Y-111936537D01*
X154145197Y-111174632D02*
X153145197Y-111174632D01*
X154097578Y-111174632D02*
X154145197Y-111269870D01*
X154145197Y-111269870D02*
X154145197Y-111460346D01*
X154145197Y-111460346D02*
X154097578Y-111555584D01*
X154097578Y-111555584D02*
X154049958Y-111603203D01*
X154049958Y-111603203D02*
X153954720Y-111650822D01*
X153954720Y-111650822D02*
X153669006Y-111650822D01*
X153669006Y-111650822D02*
X153573768Y-111603203D01*
X153573768Y-111603203D02*
X153526149Y-111555584D01*
X153526149Y-111555584D02*
X153478530Y-111460346D01*
X153478530Y-111460346D02*
X153478530Y-111269870D01*
X153478530Y-111269870D02*
X153526149Y-111174632D01*
X153478530Y-110698441D02*
X154335673Y-110698441D01*
X154335673Y-110698441D02*
X154430911Y-110746060D01*
X154430911Y-110746060D02*
X154478530Y-110841298D01*
X154478530Y-110841298D02*
X154478530Y-110888917D01*
X153145197Y-110698441D02*
X153192816Y-110746060D01*
X153192816Y-110746060D02*
X153240435Y-110698441D01*
X153240435Y-110698441D02*
X153192816Y-110650822D01*
X153192816Y-110650822D02*
X153145197Y-110698441D01*
X153145197Y-110698441D02*
X153240435Y-110698441D01*
X153478530Y-109793680D02*
X154145197Y-109793680D01*
X153478530Y-110222251D02*
X154002339Y-110222251D01*
X154002339Y-110222251D02*
X154097578Y-110174632D01*
X154097578Y-110174632D02*
X154145197Y-110079394D01*
X154145197Y-110079394D02*
X154145197Y-109936537D01*
X154145197Y-109936537D02*
X154097578Y-109841299D01*
X154097578Y-109841299D02*
X154049958Y-109793680D01*
X154097578Y-109365108D02*
X154145197Y-109269870D01*
X154145197Y-109269870D02*
X154145197Y-109079394D01*
X154145197Y-109079394D02*
X154097578Y-108984156D01*
X154097578Y-108984156D02*
X154002339Y-108936537D01*
X154002339Y-108936537D02*
X153954720Y-108936537D01*
X153954720Y-108936537D02*
X153859482Y-108984156D01*
X153859482Y-108984156D02*
X153811863Y-109079394D01*
X153811863Y-109079394D02*
X153811863Y-109222251D01*
X153811863Y-109222251D02*
X153764244Y-109317489D01*
X153764244Y-109317489D02*
X153669006Y-109365108D01*
X153669006Y-109365108D02*
X153621387Y-109365108D01*
X153621387Y-109365108D02*
X153526149Y-109317489D01*
X153526149Y-109317489D02*
X153478530Y-109222251D01*
X153478530Y-109222251D02*
X153478530Y-109079394D01*
X153478530Y-109079394D02*
X153526149Y-108984156D01*
X153478530Y-108650822D02*
X153478530Y-108269870D01*
X153145197Y-108507965D02*
X154002339Y-108507965D01*
X154002339Y-108507965D02*
X154097578Y-108460346D01*
X154097578Y-108460346D02*
X154145197Y-108365108D01*
X154145197Y-108365108D02*
X154145197Y-108269870D01*
X154145197Y-107507965D02*
X153621387Y-107507965D01*
X153621387Y-107507965D02*
X153526149Y-107555584D01*
X153526149Y-107555584D02*
X153478530Y-107650822D01*
X153478530Y-107650822D02*
X153478530Y-107841298D01*
X153478530Y-107841298D02*
X153526149Y-107936536D01*
X154097578Y-107507965D02*
X154145197Y-107603203D01*
X154145197Y-107603203D02*
X154145197Y-107841298D01*
X154145197Y-107841298D02*
X154097578Y-107936536D01*
X154097578Y-107936536D02*
X154002339Y-107984155D01*
X154002339Y-107984155D02*
X153907101Y-107984155D01*
X153907101Y-107984155D02*
X153811863Y-107936536D01*
X153811863Y-107936536D02*
X153764244Y-107841298D01*
X153764244Y-107841298D02*
X153764244Y-107603203D01*
X153764244Y-107603203D02*
X153716625Y-107507965D01*
X154145197Y-107031774D02*
X153145197Y-107031774D01*
X153526149Y-107031774D02*
X153478530Y-106936536D01*
X153478530Y-106936536D02*
X153478530Y-106746060D01*
X153478530Y-106746060D02*
X153526149Y-106650822D01*
X153526149Y-106650822D02*
X153573768Y-106603203D01*
X153573768Y-106603203D02*
X153669006Y-106555584D01*
X153669006Y-106555584D02*
X153954720Y-106555584D01*
X153954720Y-106555584D02*
X154049958Y-106603203D01*
X154049958Y-106603203D02*
X154097578Y-106650822D01*
X154097578Y-106650822D02*
X154145197Y-106746060D01*
X154145197Y-106746060D02*
X154145197Y-106936536D01*
X154145197Y-106936536D02*
X154097578Y-107031774D01*
X154145197Y-105984155D02*
X154097578Y-106079393D01*
X154097578Y-106079393D02*
X154002339Y-106127012D01*
X154002339Y-106127012D02*
X153145197Y-106127012D01*
X154097578Y-105222250D02*
X154145197Y-105317488D01*
X154145197Y-105317488D02*
X154145197Y-105507964D01*
X154145197Y-105507964D02*
X154097578Y-105603202D01*
X154097578Y-105603202D02*
X154002339Y-105650821D01*
X154002339Y-105650821D02*
X153621387Y-105650821D01*
X153621387Y-105650821D02*
X153526149Y-105603202D01*
X153526149Y-105603202D02*
X153478530Y-105507964D01*
X153478530Y-105507964D02*
X153478530Y-105317488D01*
X153478530Y-105317488D02*
X153526149Y-105222250D01*
X153526149Y-105222250D02*
X153621387Y-105174631D01*
X153621387Y-105174631D02*
X153716625Y-105174631D01*
X153716625Y-105174631D02*
X153811863Y-105650821D01*
X149094126Y-100531657D02*
X149427459Y-101531657D01*
X149427459Y-101531657D02*
X149760792Y-100531657D01*
X150094126Y-101531657D02*
X150094126Y-100531657D01*
X150094126Y-100531657D02*
X150332221Y-100531657D01*
X150332221Y-100531657D02*
X150475078Y-100579276D01*
X150475078Y-100579276D02*
X150570316Y-100674514D01*
X150570316Y-100674514D02*
X150617935Y-100769752D01*
X150617935Y-100769752D02*
X150665554Y-100960228D01*
X150665554Y-100960228D02*
X150665554Y-101103085D01*
X150665554Y-101103085D02*
X150617935Y-101293561D01*
X150617935Y-101293561D02*
X150570316Y-101388799D01*
X150570316Y-101388799D02*
X150475078Y-101484038D01*
X150475078Y-101484038D02*
X150332221Y-101531657D01*
X150332221Y-101531657D02*
X150094126Y-101531657D01*
X151665554Y-101436418D02*
X151617935Y-101484038D01*
X151617935Y-101484038D02*
X151475078Y-101531657D01*
X151475078Y-101531657D02*
X151379840Y-101531657D01*
X151379840Y-101531657D02*
X151236983Y-101484038D01*
X151236983Y-101484038D02*
X151141745Y-101388799D01*
X151141745Y-101388799D02*
X151094126Y-101293561D01*
X151094126Y-101293561D02*
X151046507Y-101103085D01*
X151046507Y-101103085D02*
X151046507Y-100960228D01*
X151046507Y-100960228D02*
X151094126Y-100769752D01*
X151094126Y-100769752D02*
X151141745Y-100674514D01*
X151141745Y-100674514D02*
X151236983Y-100579276D01*
X151236983Y-100579276D02*
X151379840Y-100531657D01*
X151379840Y-100531657D02*
X151475078Y-100531657D01*
X151475078Y-100531657D02*
X151617935Y-100579276D01*
X151617935Y-100579276D02*
X151665554Y-100626895D01*
X149476046Y-96056775D02*
X149380808Y-96009156D01*
X149380808Y-96009156D02*
X149237951Y-96009156D01*
X149237951Y-96009156D02*
X149095094Y-96056775D01*
X149095094Y-96056775D02*
X148999856Y-96152013D01*
X148999856Y-96152013D02*
X148952237Y-96247251D01*
X148952237Y-96247251D02*
X148904618Y-96437727D01*
X148904618Y-96437727D02*
X148904618Y-96580584D01*
X148904618Y-96580584D02*
X148952237Y-96771060D01*
X148952237Y-96771060D02*
X148999856Y-96866298D01*
X148999856Y-96866298D02*
X149095094Y-96961537D01*
X149095094Y-96961537D02*
X149237951Y-97009156D01*
X149237951Y-97009156D02*
X149333189Y-97009156D01*
X149333189Y-97009156D02*
X149476046Y-96961537D01*
X149476046Y-96961537D02*
X149523665Y-96913917D01*
X149523665Y-96913917D02*
X149523665Y-96580584D01*
X149523665Y-96580584D02*
X149333189Y-96580584D01*
X149952237Y-97009156D02*
X149952237Y-96009156D01*
X149952237Y-96009156D02*
X150523665Y-97009156D01*
X150523665Y-97009156D02*
X150523665Y-96009156D01*
X150999856Y-97009156D02*
X150999856Y-96009156D01*
X150999856Y-96009156D02*
X151237951Y-96009156D01*
X151237951Y-96009156D02*
X151380808Y-96056775D01*
X151380808Y-96056775D02*
X151476046Y-96152013D01*
X151476046Y-96152013D02*
X151523665Y-96247251D01*
X151523665Y-96247251D02*
X151571284Y-96437727D01*
X151571284Y-96437727D02*
X151571284Y-96580584D01*
X151571284Y-96580584D02*
X151523665Y-96771060D01*
X151523665Y-96771060D02*
X151476046Y-96866298D01*
X151476046Y-96866298D02*
X151380808Y-96961537D01*
X151380808Y-96961537D02*
X151237951Y-97009156D01*
X151237951Y-97009156D02*
X150999856Y-97009156D01*
X152776115Y-103401819D02*
X152776115Y-104116104D01*
X152776115Y-104116104D02*
X152728496Y-104258961D01*
X152728496Y-104258961D02*
X152633258Y-104354200D01*
X152633258Y-104354200D02*
X152490401Y-104401819D01*
X152490401Y-104401819D02*
X152395163Y-104401819D01*
X153776115Y-104401819D02*
X153204687Y-104401819D01*
X153490401Y-104401819D02*
X153490401Y-103401819D01*
X153490401Y-103401819D02*
X153395163Y-103544676D01*
X153395163Y-103544676D02*
X153299925Y-103639914D01*
X153299925Y-103639914D02*
X153204687Y-103687533D01*
X145025016Y-111767195D02*
X144548826Y-111767195D01*
X144548826Y-111767195D02*
X144548826Y-110767195D01*
X145882159Y-111767195D02*
X145310731Y-111767195D01*
X145596445Y-111767195D02*
X145596445Y-110767195D01*
X145596445Y-110767195D02*
X145501207Y-110910052D01*
X145501207Y-110910052D02*
X145405969Y-111005290D01*
X145405969Y-111005290D02*
X145310731Y-111052909D01*
X140382719Y-102592549D02*
X140335100Y-102640169D01*
X140335100Y-102640169D02*
X140192243Y-102687788D01*
X140192243Y-102687788D02*
X140097005Y-102687788D01*
X140097005Y-102687788D02*
X139954148Y-102640169D01*
X139954148Y-102640169D02*
X139858910Y-102544930D01*
X139858910Y-102544930D02*
X139811291Y-102449692D01*
X139811291Y-102449692D02*
X139763672Y-102259216D01*
X139763672Y-102259216D02*
X139763672Y-102116359D01*
X139763672Y-102116359D02*
X139811291Y-101925883D01*
X139811291Y-101925883D02*
X139858910Y-101830645D01*
X139858910Y-101830645D02*
X139954148Y-101735407D01*
X139954148Y-101735407D02*
X140097005Y-101687788D01*
X140097005Y-101687788D02*
X140192243Y-101687788D01*
X140192243Y-101687788D02*
X140335100Y-101735407D01*
X140335100Y-101735407D02*
X140382719Y-101783026D01*
X141287481Y-101687788D02*
X140811291Y-101687788D01*
X140811291Y-101687788D02*
X140763672Y-102163978D01*
X140763672Y-102163978D02*
X140811291Y-102116359D01*
X140811291Y-102116359D02*
X140906529Y-102068740D01*
X140906529Y-102068740D02*
X141144624Y-102068740D01*
X141144624Y-102068740D02*
X141239862Y-102116359D01*
X141239862Y-102116359D02*
X141287481Y-102163978D01*
X141287481Y-102163978D02*
X141335100Y-102259216D01*
X141335100Y-102259216D02*
X141335100Y-102497311D01*
X141335100Y-102497311D02*
X141287481Y-102592549D01*
X141287481Y-102592549D02*
X141239862Y-102640169D01*
X141239862Y-102640169D02*
X141144624Y-102687788D01*
X141144624Y-102687788D02*
X140906529Y-102687788D01*
X140906529Y-102687788D02*
X140811291Y-102640169D01*
X140811291Y-102640169D02*
X140763672Y-102592549D01*
X148617742Y-108669564D02*
X148665362Y-108717183D01*
X148665362Y-108717183D02*
X148712981Y-108860040D01*
X148712981Y-108860040D02*
X148712981Y-108955278D01*
X148712981Y-108955278D02*
X148665362Y-109098135D01*
X148665362Y-109098135D02*
X148570123Y-109193373D01*
X148570123Y-109193373D02*
X148474885Y-109240992D01*
X148474885Y-109240992D02*
X148284409Y-109288611D01*
X148284409Y-109288611D02*
X148141552Y-109288611D01*
X148141552Y-109288611D02*
X147951076Y-109240992D01*
X147951076Y-109240992D02*
X147855838Y-109193373D01*
X147855838Y-109193373D02*
X147760600Y-109098135D01*
X147760600Y-109098135D02*
X147712981Y-108955278D01*
X147712981Y-108955278D02*
X147712981Y-108860040D01*
X147712981Y-108860040D02*
X147760600Y-108717183D01*
X147760600Y-108717183D02*
X147808219Y-108669564D01*
X147808219Y-108288611D02*
X147760600Y-108240992D01*
X147760600Y-108240992D02*
X147712981Y-108145754D01*
X147712981Y-108145754D02*
X147712981Y-107907659D01*
X147712981Y-107907659D02*
X147760600Y-107812421D01*
X147760600Y-107812421D02*
X147808219Y-107764802D01*
X147808219Y-107764802D02*
X147903457Y-107717183D01*
X147903457Y-107717183D02*
X147998695Y-107717183D01*
X147998695Y-107717183D02*
X148141552Y-107764802D01*
X148141552Y-107764802D02*
X148712981Y-108336230D01*
X148712981Y-108336230D02*
X148712981Y-107717183D01*
X151734027Y-93962064D02*
X151686408Y-94009684D01*
X151686408Y-94009684D02*
X151543551Y-94057303D01*
X151543551Y-94057303D02*
X151448313Y-94057303D01*
X151448313Y-94057303D02*
X151305456Y-94009684D01*
X151305456Y-94009684D02*
X151210218Y-93914445D01*
X151210218Y-93914445D02*
X151162599Y-93819207D01*
X151162599Y-93819207D02*
X151114980Y-93628731D01*
X151114980Y-93628731D02*
X151114980Y-93485874D01*
X151114980Y-93485874D02*
X151162599Y-93295398D01*
X151162599Y-93295398D02*
X151210218Y-93200160D01*
X151210218Y-93200160D02*
X151305456Y-93104922D01*
X151305456Y-93104922D02*
X151448313Y-93057303D01*
X151448313Y-93057303D02*
X151543551Y-93057303D01*
X151543551Y-93057303D02*
X151686408Y-93104922D01*
X151686408Y-93104922D02*
X151734027Y-93152541D01*
X152686408Y-94057303D02*
X152114980Y-94057303D01*
X152400694Y-94057303D02*
X152400694Y-93057303D01*
X152400694Y-93057303D02*
X152305456Y-93200160D01*
X152305456Y-93200160D02*
X152210218Y-93295398D01*
X152210218Y-93295398D02*
X152114980Y-93343017D01*
D11*
X148230870Y-100475545D02*
X146960870Y-100475545D01*
X148109917Y-99145068D02*
X148170394Y-99205544D01*
X148170394Y-99205544D02*
X148230870Y-99386973D01*
X148230870Y-99386973D02*
X148230870Y-99507925D01*
X148230870Y-99507925D02*
X148170394Y-99689354D01*
X148170394Y-99689354D02*
X148049441Y-99810306D01*
X148049441Y-99810306D02*
X147928489Y-99870783D01*
X147928489Y-99870783D02*
X147686584Y-99931259D01*
X147686584Y-99931259D02*
X147505155Y-99931259D01*
X147505155Y-99931259D02*
X147263251Y-99870783D01*
X147263251Y-99870783D02*
X147142298Y-99810306D01*
X147142298Y-99810306D02*
X147021346Y-99689354D01*
X147021346Y-99689354D02*
X146960870Y-99507925D01*
X146960870Y-99507925D02*
X146960870Y-99386973D01*
X146960870Y-99386973D02*
X147021346Y-99205544D01*
X147021346Y-99205544D02*
X147081822Y-99145068D01*
X148230870Y-97935544D02*
X148230870Y-98661259D01*
X148230870Y-98298402D02*
X146960870Y-98298402D01*
X146960870Y-98298402D02*
X147142298Y-98419354D01*
X147142298Y-98419354D02*
X147263251Y-98540306D01*
X147263251Y-98540306D02*
X147323727Y-98661259D01*
D12*
%TO.C,J1*%
X151779449Y-100347000D02*
X151779449Y-95207000D01*
X154439449Y-95207000D02*
X151779449Y-95207000D01*
X154439449Y-100347000D02*
X151779449Y-100347000D01*
X154439449Y-100347000D02*
X154439449Y-95207000D01*
X154439449Y-101617000D02*
X154439449Y-102947000D01*
X154439449Y-102947000D02*
X153109449Y-102947000D01*
%TO.C,L1*%
X138811683Y-114432376D02*
X140321683Y-114432376D01*
X140321683Y-112312376D02*
X140321683Y-116552376D01*
X140321683Y-116552376D02*
X150061683Y-116552376D01*
X150061683Y-112312376D02*
X140321683Y-112312376D01*
X150061683Y-116552376D02*
X150061683Y-112312376D01*
X151571683Y-114432376D02*
X150061683Y-114432376D01*
%TO.C,C5*%
X136139688Y-105167969D02*
X136939688Y-105167969D01*
X136539688Y-104767969D02*
X136539688Y-105567969D01*
X140549386Y-103402969D02*
X140549386Y-111562969D01*
X140589386Y-103402969D02*
X140589386Y-111562969D01*
X140629386Y-103402969D02*
X140629386Y-111562969D01*
X140669386Y-103403969D02*
X140669386Y-111561969D01*
X140709386Y-103405969D02*
X140709386Y-111559969D01*
X140749386Y-103406969D02*
X140749386Y-111558969D01*
X140789386Y-103408969D02*
X140789386Y-111556969D01*
X140829386Y-103411969D02*
X140829386Y-111553969D01*
X140869386Y-103414969D02*
X140869386Y-111550969D01*
X140909386Y-103417969D02*
X140909386Y-111547969D01*
X140949386Y-103421969D02*
X140949386Y-111543969D01*
X140989386Y-103425969D02*
X140989386Y-111539969D01*
X141029386Y-103430969D02*
X141029386Y-111534969D01*
X141069386Y-103434969D02*
X141069386Y-111530969D01*
X141109386Y-103440969D02*
X141109386Y-111524969D01*
X141149386Y-103445969D02*
X141149386Y-111519969D01*
X141189386Y-103452969D02*
X141189386Y-111512969D01*
X141229386Y-103458969D02*
X141229386Y-111506969D01*
X141270386Y-103465969D02*
X141270386Y-111499969D01*
X141310386Y-103472969D02*
X141310386Y-111492969D01*
X141350386Y-103480969D02*
X141350386Y-111484969D01*
X141390386Y-103488969D02*
X141390386Y-111476969D01*
X141430386Y-103497969D02*
X141430386Y-111467969D01*
X141470386Y-103506969D02*
X141470386Y-111458969D01*
X141510386Y-103515969D02*
X141510386Y-111449969D01*
X141550386Y-103525969D02*
X141550386Y-111439969D01*
X141590386Y-103535969D02*
X141590386Y-111429969D01*
X141630386Y-103546969D02*
X141630386Y-111418969D01*
X141670386Y-103557969D02*
X141670386Y-111407969D01*
X141710386Y-103568969D02*
X141710386Y-111396969D01*
X141750386Y-103580969D02*
X141750386Y-111384969D01*
X141790386Y-103593969D02*
X141790386Y-111371969D01*
X141830386Y-103605969D02*
X141830386Y-111359969D01*
X141870386Y-103619969D02*
X141870386Y-111345969D01*
X141910386Y-103632969D02*
X141910386Y-111332969D01*
X141950386Y-103647969D02*
X141950386Y-111317969D01*
X141990386Y-103661969D02*
X141990386Y-111303969D01*
X142030386Y-103677969D02*
X142030386Y-106442969D01*
X142030386Y-108522969D02*
X142030386Y-111287969D01*
X142070386Y-103692969D02*
X142070386Y-106442969D01*
X142070386Y-108522969D02*
X142070386Y-111272969D01*
X142110386Y-103708969D02*
X142110386Y-106442969D01*
X142110386Y-108522969D02*
X142110386Y-111256969D01*
X142150386Y-103725969D02*
X142150386Y-106442969D01*
X142150386Y-108522969D02*
X142150386Y-111239969D01*
X142190386Y-103742969D02*
X142190386Y-106442969D01*
X142190386Y-108522969D02*
X142190386Y-111222969D01*
X142230386Y-103760969D02*
X142230386Y-106442969D01*
X142230386Y-108522969D02*
X142230386Y-111204969D01*
X142270386Y-103778969D02*
X142270386Y-106442969D01*
X142270386Y-108522969D02*
X142270386Y-111186969D01*
X142310386Y-103796969D02*
X142310386Y-106442969D01*
X142310386Y-108522969D02*
X142310386Y-111168969D01*
X142350386Y-103816969D02*
X142350386Y-106442969D01*
X142350386Y-108522969D02*
X142350386Y-111148969D01*
X142390386Y-103835969D02*
X142390386Y-106442969D01*
X142390386Y-108522969D02*
X142390386Y-111129969D01*
X142430386Y-103855969D02*
X142430386Y-106442969D01*
X142430386Y-108522969D02*
X142430386Y-111109969D01*
X142470386Y-103876969D02*
X142470386Y-106442969D01*
X142470386Y-108522969D02*
X142470386Y-111088969D01*
X142510386Y-103898969D02*
X142510386Y-106442969D01*
X142510386Y-108522969D02*
X142510386Y-111066969D01*
X142550386Y-103920969D02*
X142550386Y-106442969D01*
X142550386Y-108522969D02*
X142550386Y-111044969D01*
X142590386Y-103942969D02*
X142590386Y-106442969D01*
X142590386Y-108522969D02*
X142590386Y-111022969D01*
X142630386Y-103965969D02*
X142630386Y-106442969D01*
X142630386Y-108522969D02*
X142630386Y-110999969D01*
X142670386Y-103989969D02*
X142670386Y-106442969D01*
X142670386Y-108522969D02*
X142670386Y-110975969D01*
X142710386Y-104013969D02*
X142710386Y-106442969D01*
X142710386Y-108522969D02*
X142710386Y-110951969D01*
X142750386Y-104038969D02*
X142750386Y-106442969D01*
X142750386Y-108522969D02*
X142750386Y-110926969D01*
X142790386Y-104064969D02*
X142790386Y-106442969D01*
X142790386Y-108522969D02*
X142790386Y-110900969D01*
X142830386Y-104090969D02*
X142830386Y-106442969D01*
X142830386Y-108522969D02*
X142830386Y-110874969D01*
X142870386Y-104117969D02*
X142870386Y-106442969D01*
X142870386Y-108522969D02*
X142870386Y-110847969D01*
X142910386Y-104144969D02*
X142910386Y-106442969D01*
X142910386Y-108522969D02*
X142910386Y-110820969D01*
X142950386Y-104173969D02*
X142950386Y-106442969D01*
X142950386Y-108522969D02*
X142950386Y-110791969D01*
X142990386Y-104202969D02*
X142990386Y-106442969D01*
X142990386Y-108522969D02*
X142990386Y-110762969D01*
X143030386Y-104232969D02*
X143030386Y-106442969D01*
X143030386Y-108522969D02*
X143030386Y-110732969D01*
X143070386Y-104262969D02*
X143070386Y-106442969D01*
X143070386Y-108522969D02*
X143070386Y-110702969D01*
X143110386Y-104293969D02*
X143110386Y-106442969D01*
X143110386Y-108522969D02*
X143110386Y-110671969D01*
X143150386Y-104326969D02*
X143150386Y-106442969D01*
X143150386Y-108522969D02*
X143150386Y-110638969D01*
X143190386Y-104358969D02*
X143190386Y-106442969D01*
X143190386Y-108522969D02*
X143190386Y-110606969D01*
X143230386Y-104392969D02*
X143230386Y-106442969D01*
X143230386Y-108522969D02*
X143230386Y-110572969D01*
X143270386Y-104427969D02*
X143270386Y-106442969D01*
X143270386Y-108522969D02*
X143270386Y-110537969D01*
X143310386Y-104463969D02*
X143310386Y-106442969D01*
X143310386Y-108522969D02*
X143310386Y-110501969D01*
X143350386Y-104499969D02*
X143350386Y-106442969D01*
X143350386Y-108522969D02*
X143350386Y-110465969D01*
X143390386Y-104537969D02*
X143390386Y-106442969D01*
X143390386Y-108522969D02*
X143390386Y-110427969D01*
X143430386Y-104575969D02*
X143430386Y-106442969D01*
X143430386Y-108522969D02*
X143430386Y-110389969D01*
X143470386Y-104615969D02*
X143470386Y-106442969D01*
X143470386Y-108522969D02*
X143470386Y-110349969D01*
X143510386Y-104656969D02*
X143510386Y-106442969D01*
X143510386Y-108522969D02*
X143510386Y-110308969D01*
X143550386Y-104698969D02*
X143550386Y-106442969D01*
X143550386Y-108522969D02*
X143550386Y-110266969D01*
X143590386Y-104741969D02*
X143590386Y-106442969D01*
X143590386Y-108522969D02*
X143590386Y-110223969D01*
X143630386Y-104785969D02*
X143630386Y-106442969D01*
X143630386Y-108522969D02*
X143630386Y-110179969D01*
X143670386Y-104831969D02*
X143670386Y-106442969D01*
X143670386Y-108522969D02*
X143670386Y-110133969D01*
X143710386Y-104878969D02*
X143710386Y-106442969D01*
X143710386Y-108522969D02*
X143710386Y-110086969D01*
X143750386Y-104926969D02*
X143750386Y-106442969D01*
X143750386Y-108522969D02*
X143750386Y-110038969D01*
X143790386Y-104977969D02*
X143790386Y-106442969D01*
X143790386Y-108522969D02*
X143790386Y-109987969D01*
X143830386Y-105028969D02*
X143830386Y-106442969D01*
X143830386Y-108522969D02*
X143830386Y-109936969D01*
X143870386Y-105082969D02*
X143870386Y-106442969D01*
X143870386Y-108522969D02*
X143870386Y-109882969D01*
X143910386Y-105137969D02*
X143910386Y-106442969D01*
X143910386Y-108522969D02*
X143910386Y-109827969D01*
X143950386Y-105195969D02*
X143950386Y-106442969D01*
X143950386Y-108522969D02*
X143950386Y-109769969D01*
X143990386Y-105254969D02*
X143990386Y-106442969D01*
X143990386Y-108522969D02*
X143990386Y-109710969D01*
X144030386Y-105316969D02*
X144030386Y-106442969D01*
X144030386Y-108522969D02*
X144030386Y-109648969D01*
X144070386Y-105380969D02*
X144070386Y-106442969D01*
X144070386Y-108522969D02*
X144070386Y-109584969D01*
X144110386Y-105448969D02*
X144110386Y-109516969D01*
X144150386Y-105518969D02*
X144150386Y-109446969D01*
X144190386Y-105592969D02*
X144190386Y-109372969D01*
X144230386Y-105669969D02*
X144230386Y-109295969D01*
X144270386Y-105751969D02*
X144270386Y-109213969D01*
X144310386Y-105837969D02*
X144310386Y-109127969D01*
X144350386Y-105930969D02*
X144350386Y-109034969D01*
X144390386Y-106029969D02*
X144390386Y-108935969D01*
X144430386Y-106136969D02*
X144430386Y-108828969D01*
X144470386Y-106253969D02*
X144470386Y-108711969D01*
X144510386Y-106384969D02*
X144510386Y-108580969D01*
X144550386Y-106534969D02*
X144550386Y-108430969D01*
X144590386Y-106714969D02*
X144590386Y-108250969D01*
X144630386Y-106949969D02*
X144630386Y-108015969D01*
X144669386Y-107482969D02*
G75*
G02*
X136429386Y-107482969I-4120000J0D01*
G01*
X136429386Y-107482969D02*
G75*
G02*
X144669386Y-107482969I4120000J0D01*
G01*
%TO.C,C2*%
X147118263Y-104929855D02*
X145589263Y-104929855D01*
X147118263Y-104969855D02*
X145593263Y-104969855D01*
X147118263Y-105009855D02*
X145597263Y-105009855D01*
X147118263Y-105049855D02*
X145602263Y-105049855D01*
X147118263Y-105089855D02*
X145608263Y-105089855D01*
X147118263Y-105129855D02*
X145615263Y-105129855D01*
X147118263Y-105169855D02*
X145622263Y-105169855D01*
X147118263Y-105209855D02*
X145630263Y-105209855D01*
X147118263Y-105249855D02*
X145638263Y-105249855D01*
X147118263Y-105289855D02*
X145647263Y-105289855D01*
X147118263Y-105329855D02*
X145657263Y-105329855D01*
X147118263Y-105369855D02*
X145667263Y-105369855D01*
X147118263Y-105410855D02*
X145678263Y-105410855D01*
X147118263Y-105450855D02*
X145690263Y-105450855D01*
X147118263Y-105490855D02*
X145703263Y-105490855D01*
X147118263Y-105530855D02*
X145716263Y-105530855D01*
X147118263Y-105570855D02*
X145730263Y-105570855D01*
X147118263Y-105610855D02*
X145744263Y-105610855D01*
X147118263Y-105650855D02*
X145760263Y-105650855D01*
X147118263Y-105690855D02*
X145776263Y-105690855D01*
X147118263Y-105730855D02*
X145793263Y-105730855D01*
X147118263Y-105770855D02*
X145810263Y-105770855D01*
X147118263Y-105810855D02*
X145829263Y-105810855D01*
X147118263Y-105850855D02*
X145848263Y-105850855D01*
X147118263Y-105890855D02*
X145868263Y-105890855D01*
X147118263Y-105930855D02*
X145890263Y-105930855D01*
X147118263Y-105970855D02*
X145911263Y-105970855D01*
X147118263Y-106010855D02*
X145934263Y-106010855D01*
X147118263Y-106050855D02*
X145958263Y-106050855D01*
X147118263Y-106090855D02*
X145983263Y-106090855D01*
X147118263Y-106130855D02*
X146009263Y-106130855D01*
X147118263Y-106170855D02*
X146036263Y-106170855D01*
X147118263Y-106210855D02*
X146063263Y-106210855D01*
X147118263Y-106250855D02*
X146093263Y-106250855D01*
X147118263Y-106290855D02*
X146123263Y-106290855D01*
X147118263Y-106330855D02*
X146154263Y-106330855D01*
X147118263Y-106370855D02*
X146187263Y-106370855D01*
X147118263Y-106410855D02*
X146221263Y-106410855D01*
X147118263Y-106450855D02*
X146257263Y-106450855D01*
X147118263Y-106490855D02*
X146294263Y-106490855D01*
X147118263Y-106530855D02*
X146332263Y-106530855D01*
X147118263Y-106570855D02*
X146373263Y-106570855D01*
X147118263Y-106610855D02*
X146415263Y-106610855D01*
X147118263Y-106650855D02*
X146459263Y-106650855D01*
X147118263Y-106690855D02*
X146505263Y-106690855D01*
X147118263Y-106730855D02*
X146553263Y-106730855D01*
X147118263Y-106770855D02*
X146604263Y-106770855D01*
X147118263Y-106810855D02*
X146658263Y-106810855D01*
X147118263Y-106850855D02*
X146715263Y-106850855D01*
X147118263Y-106890855D02*
X146775263Y-106890855D01*
X147118263Y-106930855D02*
X146839263Y-106930855D01*
X147118263Y-106970855D02*
X146907263Y-106970855D01*
X148442263Y-107290855D02*
X147874263Y-107290855D01*
X148676263Y-107250855D02*
X147640263Y-107250855D01*
X148835263Y-107210855D02*
X147481263Y-107210855D01*
X148963263Y-107170855D02*
X147353263Y-107170855D01*
X149073263Y-107130855D02*
X147243263Y-107130855D01*
X149169263Y-107090855D02*
X147147263Y-107090855D01*
X149256263Y-107050855D02*
X147060263Y-107050855D01*
X149336263Y-107010855D02*
X146980263Y-107010855D01*
X149409263Y-106970855D02*
X149198263Y-106970855D01*
X149477263Y-106930855D02*
X149198263Y-106930855D01*
X149541263Y-106890855D02*
X149198263Y-106890855D01*
X149601263Y-106850855D02*
X149198263Y-106850855D01*
X149633263Y-101885080D02*
X149633263Y-102385080D01*
X149658263Y-106810855D02*
X149198263Y-106810855D01*
X149712263Y-106770855D02*
X149198263Y-106770855D01*
X149763263Y-106730855D02*
X149198263Y-106730855D01*
X149811263Y-106690855D02*
X149198263Y-106690855D01*
X149857263Y-106650855D02*
X149198263Y-106650855D01*
X149883263Y-102135080D02*
X149383263Y-102135080D01*
X149901263Y-106610855D02*
X149198263Y-106610855D01*
X149943263Y-106570855D02*
X149198263Y-106570855D01*
X149984263Y-106530855D02*
X149198263Y-106530855D01*
X150022263Y-106490855D02*
X149198263Y-106490855D01*
X150059263Y-106450855D02*
X149198263Y-106450855D01*
X150095263Y-106410855D02*
X149198263Y-106410855D01*
X150129263Y-106370855D02*
X149198263Y-106370855D01*
X150162263Y-106330855D02*
X149198263Y-106330855D01*
X150193263Y-106290855D02*
X149198263Y-106290855D01*
X150223263Y-106250855D02*
X149198263Y-106250855D01*
X150253263Y-106210855D02*
X149198263Y-106210855D01*
X150280263Y-106170855D02*
X149198263Y-106170855D01*
X150307263Y-106130855D02*
X149198263Y-106130855D01*
X150333263Y-106090855D02*
X149198263Y-106090855D01*
X150358263Y-106050855D02*
X149198263Y-106050855D01*
X150382263Y-106010855D02*
X149198263Y-106010855D01*
X150405263Y-105970855D02*
X149198263Y-105970855D01*
X150426263Y-105930855D02*
X149198263Y-105930855D01*
X150448263Y-105890855D02*
X149198263Y-105890855D01*
X150468263Y-105850855D02*
X149198263Y-105850855D01*
X150487263Y-105810855D02*
X149198263Y-105810855D01*
X150506263Y-105770855D02*
X149198263Y-105770855D01*
X150523263Y-105730855D02*
X149198263Y-105730855D01*
X150540263Y-105690855D02*
X149198263Y-105690855D01*
X150556263Y-105650855D02*
X149198263Y-105650855D01*
X150572263Y-105610855D02*
X149198263Y-105610855D01*
X150586263Y-105570855D02*
X149198263Y-105570855D01*
X150600263Y-105530855D02*
X149198263Y-105530855D01*
X150613263Y-105490855D02*
X149198263Y-105490855D01*
X150626263Y-105450855D02*
X149198263Y-105450855D01*
X150638263Y-105410855D02*
X149198263Y-105410855D01*
X150649263Y-105369855D02*
X149198263Y-105369855D01*
X150659263Y-105329855D02*
X149198263Y-105329855D01*
X150669263Y-105289855D02*
X149198263Y-105289855D01*
X150678263Y-105249855D02*
X149198263Y-105249855D01*
X150686263Y-105209855D02*
X149198263Y-105209855D01*
X150694263Y-105169855D02*
X149198263Y-105169855D01*
X150701263Y-105129855D02*
X149198263Y-105129855D01*
X150708263Y-105089855D02*
X149198263Y-105089855D01*
X150714263Y-105049855D02*
X149198263Y-105049855D01*
X150719263Y-105009855D02*
X149198263Y-105009855D01*
X150723263Y-104969855D02*
X149198263Y-104969855D01*
X150727263Y-104929855D02*
X149198263Y-104929855D01*
X150731263Y-104889855D02*
X145585263Y-104889855D01*
X150734263Y-104849855D02*
X145582263Y-104849855D01*
X150736263Y-104809855D02*
X145580263Y-104809855D01*
X150737263Y-104769855D02*
X145579263Y-104769855D01*
X150738263Y-104689855D02*
X145578263Y-104689855D01*
X150738263Y-104729855D02*
X145578263Y-104729855D01*
X150778263Y-104689855D02*
G75*
G02*
X145538263Y-104689855I-2620000J0D01*
G01*
X145538263Y-104689855D02*
G75*
G02*
X150778263Y-104689855I2620000J0D01*
G01*
%TO.C,C1*%
X149299694Y-90136484D02*
X149299694Y-89568484D01*
X149339694Y-90370484D02*
X149339694Y-89334484D01*
X149379694Y-90529484D02*
X149379694Y-89175484D01*
X149419694Y-90657484D02*
X149419694Y-89047484D01*
X149459694Y-90767484D02*
X149459694Y-88937484D01*
X149499694Y-90863484D02*
X149499694Y-88841484D01*
X149539694Y-90950484D02*
X149539694Y-88754484D01*
X149579694Y-91030484D02*
X149579694Y-88674484D01*
X149619694Y-88812484D02*
X149619694Y-88601484D01*
X149619694Y-91103484D02*
X149619694Y-90892484D01*
X149659694Y-88812484D02*
X149659694Y-88533484D01*
X149659694Y-91171484D02*
X149659694Y-90892484D01*
X149699694Y-88812484D02*
X149699694Y-88469484D01*
X149699694Y-91235484D02*
X149699694Y-90892484D01*
X149739694Y-88812484D02*
X149739694Y-88409484D01*
X149739694Y-91295484D02*
X149739694Y-90892484D01*
X149779694Y-88812484D02*
X149779694Y-88352484D01*
X149779694Y-91352484D02*
X149779694Y-90892484D01*
X149819694Y-88812484D02*
X149819694Y-88298484D01*
X149819694Y-91406484D02*
X149819694Y-90892484D01*
X149859694Y-88812484D02*
X149859694Y-88247484D01*
X149859694Y-91457484D02*
X149859694Y-90892484D01*
X149899694Y-88812484D02*
X149899694Y-88199484D01*
X149899694Y-91505484D02*
X149899694Y-90892484D01*
X149939694Y-88812484D02*
X149939694Y-88153484D01*
X149939694Y-91551484D02*
X149939694Y-90892484D01*
X149979694Y-88812484D02*
X149979694Y-88109484D01*
X149979694Y-91595484D02*
X149979694Y-90892484D01*
X150019694Y-88812484D02*
X150019694Y-88067484D01*
X150019694Y-91637484D02*
X150019694Y-90892484D01*
X150059694Y-88812484D02*
X150059694Y-88026484D01*
X150059694Y-91678484D02*
X150059694Y-90892484D01*
X150099694Y-88812484D02*
X150099694Y-87988484D01*
X150099694Y-91716484D02*
X150099694Y-90892484D01*
X150139694Y-88812484D02*
X150139694Y-87951484D01*
X150139694Y-91753484D02*
X150139694Y-90892484D01*
X150179694Y-88812484D02*
X150179694Y-87915484D01*
X150179694Y-91789484D02*
X150179694Y-90892484D01*
X150219694Y-88812484D02*
X150219694Y-87881484D01*
X150219694Y-91823484D02*
X150219694Y-90892484D01*
X150259694Y-88812484D02*
X150259694Y-87848484D01*
X150259694Y-91856484D02*
X150259694Y-90892484D01*
X150299694Y-88812484D02*
X150299694Y-87817484D01*
X150299694Y-91887484D02*
X150299694Y-90892484D01*
X150339694Y-88812484D02*
X150339694Y-87787484D01*
X150339694Y-91917484D02*
X150339694Y-90892484D01*
X150379694Y-88812484D02*
X150379694Y-87757484D01*
X150379694Y-91947484D02*
X150379694Y-90892484D01*
X150419694Y-88812484D02*
X150419694Y-87730484D01*
X150419694Y-91974484D02*
X150419694Y-90892484D01*
X150459694Y-88812484D02*
X150459694Y-87703484D01*
X150459694Y-92001484D02*
X150459694Y-90892484D01*
X150499694Y-88812484D02*
X150499694Y-87677484D01*
X150499694Y-92027484D02*
X150499694Y-90892484D01*
X150539694Y-88812484D02*
X150539694Y-87652484D01*
X150539694Y-92052484D02*
X150539694Y-90892484D01*
X150579694Y-88812484D02*
X150579694Y-87628484D01*
X150579694Y-92076484D02*
X150579694Y-90892484D01*
X150619694Y-88812484D02*
X150619694Y-87605484D01*
X150619694Y-92099484D02*
X150619694Y-90892484D01*
X150659694Y-88812484D02*
X150659694Y-87584484D01*
X150659694Y-92120484D02*
X150659694Y-90892484D01*
X150699694Y-88812484D02*
X150699694Y-87562484D01*
X150699694Y-92142484D02*
X150699694Y-90892484D01*
X150739694Y-88812484D02*
X150739694Y-87542484D01*
X150739694Y-92162484D02*
X150739694Y-90892484D01*
X150779694Y-88812484D02*
X150779694Y-87523484D01*
X150779694Y-92181484D02*
X150779694Y-90892484D01*
X150819694Y-88812484D02*
X150819694Y-87504484D01*
X150819694Y-92200484D02*
X150819694Y-90892484D01*
X150859694Y-88812484D02*
X150859694Y-87487484D01*
X150859694Y-92217484D02*
X150859694Y-90892484D01*
X150899694Y-88812484D02*
X150899694Y-87470484D01*
X150899694Y-92234484D02*
X150899694Y-90892484D01*
X150939694Y-88812484D02*
X150939694Y-87454484D01*
X150939694Y-92250484D02*
X150939694Y-90892484D01*
X150979694Y-88812484D02*
X150979694Y-87438484D01*
X150979694Y-92266484D02*
X150979694Y-90892484D01*
X151019694Y-88812484D02*
X151019694Y-87424484D01*
X151019694Y-92280484D02*
X151019694Y-90892484D01*
X151059694Y-88812484D02*
X151059694Y-87410484D01*
X151059694Y-92294484D02*
X151059694Y-90892484D01*
X151099694Y-88812484D02*
X151099694Y-87397484D01*
X151099694Y-92307484D02*
X151099694Y-90892484D01*
X151139694Y-88812484D02*
X151139694Y-87384484D01*
X151139694Y-92320484D02*
X151139694Y-90892484D01*
X151179694Y-88812484D02*
X151179694Y-87372484D01*
X151179694Y-92332484D02*
X151179694Y-90892484D01*
X151220694Y-88812484D02*
X151220694Y-87361484D01*
X151220694Y-92343484D02*
X151220694Y-90892484D01*
X151260694Y-88812484D02*
X151260694Y-87351484D01*
X151260694Y-92353484D02*
X151260694Y-90892484D01*
X151300694Y-88812484D02*
X151300694Y-87341484D01*
X151300694Y-92363484D02*
X151300694Y-90892484D01*
X151340694Y-88812484D02*
X151340694Y-87332484D01*
X151340694Y-92372484D02*
X151340694Y-90892484D01*
X151380694Y-88812484D02*
X151380694Y-87324484D01*
X151380694Y-92380484D02*
X151380694Y-90892484D01*
X151420694Y-88812484D02*
X151420694Y-87316484D01*
X151420694Y-92388484D02*
X151420694Y-90892484D01*
X151460694Y-88812484D02*
X151460694Y-87309484D01*
X151460694Y-92395484D02*
X151460694Y-90892484D01*
X151500694Y-88812484D02*
X151500694Y-87302484D01*
X151500694Y-92402484D02*
X151500694Y-90892484D01*
X151540694Y-88812484D02*
X151540694Y-87296484D01*
X151540694Y-92408484D02*
X151540694Y-90892484D01*
X151580694Y-88812484D02*
X151580694Y-87291484D01*
X151580694Y-92413484D02*
X151580694Y-90892484D01*
X151620694Y-88812484D02*
X151620694Y-87287484D01*
X151620694Y-92417484D02*
X151620694Y-90892484D01*
X151660694Y-88812484D02*
X151660694Y-87283484D01*
X151660694Y-92421484D02*
X151660694Y-90892484D01*
X151700694Y-92425484D02*
X151700694Y-87279484D01*
X151740694Y-92428484D02*
X151740694Y-87276484D01*
X151780694Y-92430484D02*
X151780694Y-87274484D01*
X151820694Y-92431484D02*
X151820694Y-87273484D01*
X151860694Y-92432484D02*
X151860694Y-87272484D01*
X151900694Y-92432484D02*
X151900694Y-87272484D01*
X154455469Y-91577484D02*
X154455469Y-91077484D01*
X154705469Y-91327484D02*
X154205469Y-91327484D01*
X154520694Y-89852484D02*
G75*
G02*
X149280694Y-89852484I-2620000J0D01*
G01*
X149280694Y-89852484D02*
G75*
G02*
X154520694Y-89852484I2620000J0D01*
G01*
D13*
%TO.C,IC1*%
X138351749Y-100986800D02*
X138351749Y-100986800D01*
X138351749Y-101086800D02*
X138351749Y-101086800D01*
X138351749Y-100986800D02*
G75*
G02*
X138351749Y-101086800I0J-50000D01*
G01*
X138351749Y-101086800D02*
G75*
G02*
X138351749Y-100986800I0J50000D01*
G01*
%TD*%
%LPC*%
D14*
%TO.C,J1*%
X153109449Y-101617000D03*
D15*
X153109449Y-99077000D03*
X153109449Y-96537000D03*
%TD*%
D16*
%TO.C,L1*%
X137571683Y-114432376D03*
D17*
X152811683Y-114432376D03*
%TD*%
D18*
%TO.C,C5*%
X138049386Y-107482969D03*
D19*
X143049386Y-107482969D03*
%TD*%
D18*
%TO.C,C2*%
X148158263Y-103439855D03*
D19*
X148158263Y-105939855D03*
%TD*%
D18*
%TO.C,C1*%
X153150694Y-89852484D03*
D19*
X150650694Y-89852484D03*
%TD*%
D20*
%TO.C,IC1*%
X138351749Y-99356800D03*
X139621749Y-99356800D03*
X140891749Y-99356800D03*
X142161749Y-99356800D03*
X143431749Y-99356800D03*
X144701749Y-99356800D03*
X145971749Y-99356800D03*
D21*
X142161749Y-91036800D03*
%TD*%
%LPD*%
M02*
