%TF.GenerationSoftware,KiCad,Pcbnew,8.0.1-rc1*%
%TF.CreationDate,2024-10-01T19:09:29-07:00*%
%TF.ProjectId,LM2670SX-Carrier,4c4d3236-3730-4535-982d-436172726965,rev?*%
%TF.SameCoordinates,Original*%
%TF.FileFunction,Legend,Bot*%
%TF.FilePolarity,Positive*%
%FSLAX46Y46*%
G04 Gerber Fmt 4.6, Leading zero omitted, Abs format (unit mm)*
G04 Created by KiCad (PCBNEW 8.0.1-rc1) date 2024-10-01 19:09:29*
%MOMM*%
%LPD*%
G01*
G04 APERTURE LIST*
G04 Aperture macros list*
%AMRoundRect*
0 Rectangle with rounded corners*
0 $1 Rounding radius*
0 $2 $3 $4 $5 $6 $7 $8 $9 X,Y pos of 4 corners*
0 Add a 4 corners polygon primitive as box body*
4,1,4,$2,$3,$4,$5,$6,$7,$8,$9,$2,$3,0*
0 Add four circle primitives for the rounded corners*
1,1,$1+$1,$2,$3*
1,1,$1+$1,$4,$5*
1,1,$1+$1,$6,$7*
1,1,$1+$1,$8,$9*
0 Add four rect primitives between the rounded corners*
20,1,$1+$1,$2,$3,$4,$5,0*
20,1,$1+$1,$4,$5,$6,$7,0*
20,1,$1+$1,$6,$7,$8,$9,0*
20,1,$1+$1,$8,$9,$2,$3,0*%
G04 Aperture macros list end*
%ADD10C,0.150000*%
%ADD11C,0.254000*%
%ADD12C,0.120000*%
%ADD13C,0.200000*%
%ADD14RoundRect,0.250000X0.400000X0.625000X-0.400000X0.625000X-0.400000X-0.625000X0.400000X-0.625000X0*%
%ADD15R,1.450000X1.490000*%
%ADD16RoundRect,0.250000X-0.650000X0.412500X-0.650000X-0.412500X0.650000X-0.412500X0.650000X0.412500X0*%
%ADD17RoundRect,0.250000X0.412500X0.650000X-0.412500X0.650000X-0.412500X-0.650000X0.412500X-0.650000X0*%
%ADD18R,1.700000X1.700000*%
%ADD19O,1.700000X1.700000*%
%ADD20R,1.600000X1.600000*%
%ADD21C,1.600000*%
%ADD22C,2.000000*%
%ADD23O,2.000000X2.000000*%
G04 APERTURE END LIST*
D10*
X180778541Y-92033845D02*
X181111874Y-91557654D01*
X181349969Y-92033845D02*
X181349969Y-91033845D01*
X181349969Y-91033845D02*
X180969017Y-91033845D01*
X180969017Y-91033845D02*
X180873779Y-91081464D01*
X180873779Y-91081464D02*
X180826160Y-91129083D01*
X180826160Y-91129083D02*
X180778541Y-91224321D01*
X180778541Y-91224321D02*
X180778541Y-91367178D01*
X180778541Y-91367178D02*
X180826160Y-91462416D01*
X180826160Y-91462416D02*
X180873779Y-91510035D01*
X180873779Y-91510035D02*
X180969017Y-91557654D01*
X180969017Y-91557654D02*
X181349969Y-91557654D01*
X179826160Y-92033845D02*
X180397588Y-92033845D01*
X180111874Y-92033845D02*
X180111874Y-91033845D01*
X180111874Y-91033845D02*
X180207112Y-91176702D01*
X180207112Y-91176702D02*
X180302350Y-91271940D01*
X180302350Y-91271940D02*
X180397588Y-91319559D01*
D11*
X179888526Y-103916248D02*
X179888526Y-102646248D01*
X179888526Y-102646248D02*
X179586145Y-102646248D01*
X179586145Y-102646248D02*
X179404716Y-102706724D01*
X179404716Y-102706724D02*
X179283764Y-102827676D01*
X179283764Y-102827676D02*
X179223287Y-102948629D01*
X179223287Y-102948629D02*
X179162811Y-103190533D01*
X179162811Y-103190533D02*
X179162811Y-103371962D01*
X179162811Y-103371962D02*
X179223287Y-103613867D01*
X179223287Y-103613867D02*
X179283764Y-103734819D01*
X179283764Y-103734819D02*
X179404716Y-103855772D01*
X179404716Y-103855772D02*
X179586145Y-103916248D01*
X179586145Y-103916248D02*
X179888526Y-103916248D01*
X178679002Y-102767200D02*
X178618526Y-102706724D01*
X178618526Y-102706724D02*
X178497573Y-102646248D01*
X178497573Y-102646248D02*
X178195192Y-102646248D01*
X178195192Y-102646248D02*
X178074240Y-102706724D01*
X178074240Y-102706724D02*
X178013764Y-102767200D01*
X178013764Y-102767200D02*
X177953287Y-102888152D01*
X177953287Y-102888152D02*
X177953287Y-103009105D01*
X177953287Y-103009105D02*
X178013764Y-103190533D01*
X178013764Y-103190533D02*
X178739478Y-103916248D01*
X178739478Y-103916248D02*
X177953287Y-103916248D01*
D10*
X172188385Y-103141619D02*
X172236005Y-103094000D01*
X172236005Y-103094000D02*
X172283624Y-102951143D01*
X172283624Y-102951143D02*
X172283624Y-102855905D01*
X172283624Y-102855905D02*
X172236005Y-102713048D01*
X172236005Y-102713048D02*
X172140766Y-102617810D01*
X172140766Y-102617810D02*
X172045528Y-102570191D01*
X172045528Y-102570191D02*
X171855052Y-102522572D01*
X171855052Y-102522572D02*
X171712195Y-102522572D01*
X171712195Y-102522572D02*
X171521719Y-102570191D01*
X171521719Y-102570191D02*
X171426481Y-102617810D01*
X171426481Y-102617810D02*
X171331243Y-102713048D01*
X171331243Y-102713048D02*
X171283624Y-102855905D01*
X171283624Y-102855905D02*
X171283624Y-102951143D01*
X171283624Y-102951143D02*
X171331243Y-103094000D01*
X171331243Y-103094000D02*
X171378862Y-103141619D01*
X171616957Y-103998762D02*
X172283624Y-103998762D01*
X171236005Y-103760667D02*
X171950290Y-103522572D01*
X171950290Y-103522572D02*
X171950290Y-104141619D01*
X174954533Y-91857066D02*
X175002152Y-91904686D01*
X175002152Y-91904686D02*
X175145009Y-91952305D01*
X175145009Y-91952305D02*
X175240247Y-91952305D01*
X175240247Y-91952305D02*
X175383104Y-91904686D01*
X175383104Y-91904686D02*
X175478342Y-91809447D01*
X175478342Y-91809447D02*
X175525961Y-91714209D01*
X175525961Y-91714209D02*
X175573580Y-91523733D01*
X175573580Y-91523733D02*
X175573580Y-91380876D01*
X175573580Y-91380876D02*
X175525961Y-91190400D01*
X175525961Y-91190400D02*
X175478342Y-91095162D01*
X175478342Y-91095162D02*
X175383104Y-90999924D01*
X175383104Y-90999924D02*
X175240247Y-90952305D01*
X175240247Y-90952305D02*
X175145009Y-90952305D01*
X175145009Y-90952305D02*
X175002152Y-90999924D01*
X175002152Y-90999924D02*
X174954533Y-91047543D01*
X174621199Y-90952305D02*
X174002152Y-90952305D01*
X174002152Y-90952305D02*
X174335485Y-91333257D01*
X174335485Y-91333257D02*
X174192628Y-91333257D01*
X174192628Y-91333257D02*
X174097390Y-91380876D01*
X174097390Y-91380876D02*
X174049771Y-91428495D01*
X174049771Y-91428495D02*
X174002152Y-91523733D01*
X174002152Y-91523733D02*
X174002152Y-91761828D01*
X174002152Y-91761828D02*
X174049771Y-91857066D01*
X174049771Y-91857066D02*
X174097390Y-91904686D01*
X174097390Y-91904686D02*
X174192628Y-91952305D01*
X174192628Y-91952305D02*
X174478342Y-91952305D01*
X174478342Y-91952305D02*
X174573580Y-91904686D01*
X174573580Y-91904686D02*
X174621199Y-91857066D01*
D12*
%TO.C,R1*%
X179884811Y-92489026D02*
X181338939Y-92489026D01*
X179884811Y-94309026D02*
X181338939Y-94309026D01*
D13*
%TO.C,D2*%
X181076145Y-104641930D02*
X176051145Y-104641930D01*
X181076145Y-102041930D02*
X176826145Y-102041930D01*
D12*
%TO.C,C4*%
X172768805Y-104019538D02*
X172768805Y-102597034D01*
X174588805Y-104019538D02*
X174588805Y-102597034D01*
%TO.C,C3*%
X174076615Y-92437486D02*
X175499119Y-92437486D01*
X174076615Y-94257486D02*
X175499119Y-94257486D01*
%TD*%
%LPC*%
D14*
%TO.C,R1*%
X182161875Y-93399026D03*
X179061875Y-93399026D03*
%TD*%
D15*
%TO.C,D2*%
X176776145Y-103341930D03*
X181126145Y-103341930D03*
%TD*%
D16*
%TO.C,C4*%
X173678805Y-101745786D03*
X173678805Y-104870786D03*
%TD*%
D17*
%TO.C,C3*%
X176350367Y-93347486D03*
X173225367Y-93347486D03*
%TD*%
D18*
%TO.C,J1*%
X188747700Y-101470200D03*
D19*
X188747700Y-98930200D03*
X188747700Y-96390200D03*
%TD*%
D20*
%TO.C,C2*%
X183796514Y-103293055D03*
D21*
X183796514Y-105793055D03*
%TD*%
D20*
%TO.C,C1*%
X188788945Y-89705684D03*
D21*
X186288945Y-89705684D03*
%TD*%
D20*
%TO.C,C5*%
X173687637Y-107336169D03*
D21*
X178687637Y-107336169D03*
%TD*%
D22*
%TO.C,L1*%
X173209934Y-114285576D03*
D23*
X188449934Y-114285576D03*
%TD*%
%LPD*%
M02*
