%TF.GenerationSoftware,KiCad,Pcbnew,8.0.1-rc1*%
%TF.CreationDate,2024-10-01T13:14:16-07:00*%
%TF.ProjectId,LM2670-ADJ-Carrier-Set-SMD,4c4d3236-3730-42d4-9144-4a2d43617272,rev?*%
%TF.SameCoordinates,Original*%
%TF.FileFunction,Legend,Bot*%
%TF.FilePolarity,Positive*%
%FSLAX46Y46*%
G04 Gerber Fmt 4.6, Leading zero omitted, Abs format (unit mm)*
G04 Created by KiCad (PCBNEW 8.0.1-rc1) date 2024-10-01 13:14:16*
%MOMM*%
%LPD*%
G01*
G04 APERTURE LIST*
G04 Aperture macros list*
%AMRoundRect*
0 Rectangle with rounded corners*
0 $1 Rounding radius*
0 $2 $3 $4 $5 $6 $7 $8 $9 X,Y pos of 4 corners*
0 Add a 4 corners polygon primitive as box body*
4,1,4,$2,$3,$4,$5,$6,$7,$8,$9,$2,$3,0*
0 Add four circle primitives for the rounded corners*
1,1,$1+$1,$2,$3*
1,1,$1+$1,$4,$5*
1,1,$1+$1,$6,$7*
1,1,$1+$1,$8,$9*
0 Add four rect primitives between the rounded corners*
20,1,$1+$1,$2,$3,$4,$5,0*
20,1,$1+$1,$4,$5,$6,$7,0*
20,1,$1+$1,$6,$7,$8,$9,0*
20,1,$1+$1,$8,$9,$2,$3,0*%
G04 Aperture macros list end*
%ADD10C,0.150000*%
%ADD11C,0.254000*%
%ADD12C,0.120000*%
%ADD13C,0.200000*%
%ADD14RoundRect,0.250000X0.400000X0.625000X-0.400000X0.625000X-0.400000X-0.625000X0.400000X-0.625000X0*%
%ADD15R,1.450000X1.490000*%
%ADD16RoundRect,0.250000X-0.650000X0.412500X-0.650000X-0.412500X0.650000X-0.412500X0.650000X0.412500X0*%
%ADD17RoundRect,0.250000X0.412500X0.650000X-0.412500X0.650000X-0.412500X-0.650000X0.412500X-0.650000X0*%
%ADD18R,1.700000X1.700000*%
%ADD19O,1.700000X1.700000*%
%ADD20R,1.600000X1.600000*%
%ADD21C,1.600000*%
G04 APERTURE END LIST*
D10*
X139882733Y-88615909D02*
X140216066Y-88139718D01*
X140454161Y-88615909D02*
X140454161Y-87615909D01*
X140454161Y-87615909D02*
X140073209Y-87615909D01*
X140073209Y-87615909D02*
X139977971Y-87663528D01*
X139977971Y-87663528D02*
X139930352Y-87711147D01*
X139930352Y-87711147D02*
X139882733Y-87806385D01*
X139882733Y-87806385D02*
X139882733Y-87949242D01*
X139882733Y-87949242D02*
X139930352Y-88044480D01*
X139930352Y-88044480D02*
X139977971Y-88092099D01*
X139977971Y-88092099D02*
X140073209Y-88139718D01*
X140073209Y-88139718D02*
X140454161Y-88139718D01*
X139549399Y-87615909D02*
X138930352Y-87615909D01*
X138930352Y-87615909D02*
X139263685Y-87996861D01*
X139263685Y-87996861D02*
X139120828Y-87996861D01*
X139120828Y-87996861D02*
X139025590Y-88044480D01*
X139025590Y-88044480D02*
X138977971Y-88092099D01*
X138977971Y-88092099D02*
X138930352Y-88187337D01*
X138930352Y-88187337D02*
X138930352Y-88425432D01*
X138930352Y-88425432D02*
X138977971Y-88520670D01*
X138977971Y-88520670D02*
X139025590Y-88568290D01*
X139025590Y-88568290D02*
X139120828Y-88615909D01*
X139120828Y-88615909D02*
X139406542Y-88615909D01*
X139406542Y-88615909D02*
X139501780Y-88568290D01*
X139501780Y-88568290D02*
X139549399Y-88520670D01*
X144910998Y-88610062D02*
X145244331Y-88133871D01*
X145482426Y-88610062D02*
X145482426Y-87610062D01*
X145482426Y-87610062D02*
X145101474Y-87610062D01*
X145101474Y-87610062D02*
X145006236Y-87657681D01*
X145006236Y-87657681D02*
X144958617Y-87705300D01*
X144958617Y-87705300D02*
X144910998Y-87800538D01*
X144910998Y-87800538D02*
X144910998Y-87943395D01*
X144910998Y-87943395D02*
X144958617Y-88038633D01*
X144958617Y-88038633D02*
X145006236Y-88086252D01*
X145006236Y-88086252D02*
X145101474Y-88133871D01*
X145101474Y-88133871D02*
X145482426Y-88133871D01*
X144530045Y-87705300D02*
X144482426Y-87657681D01*
X144482426Y-87657681D02*
X144387188Y-87610062D01*
X144387188Y-87610062D02*
X144149093Y-87610062D01*
X144149093Y-87610062D02*
X144053855Y-87657681D01*
X144053855Y-87657681D02*
X144006236Y-87705300D01*
X144006236Y-87705300D02*
X143958617Y-87800538D01*
X143958617Y-87800538D02*
X143958617Y-87895776D01*
X143958617Y-87895776D02*
X144006236Y-88038633D01*
X144006236Y-88038633D02*
X144577664Y-88610062D01*
X144577664Y-88610062D02*
X143958617Y-88610062D01*
D11*
X144875448Y-104065262D02*
X144875448Y-102795262D01*
X144875448Y-102795262D02*
X144573067Y-102795262D01*
X144573067Y-102795262D02*
X144391638Y-102855738D01*
X144391638Y-102855738D02*
X144270686Y-102976690D01*
X144270686Y-102976690D02*
X144210209Y-103097643D01*
X144210209Y-103097643D02*
X144149733Y-103339547D01*
X144149733Y-103339547D02*
X144149733Y-103520976D01*
X144149733Y-103520976D02*
X144210209Y-103762881D01*
X144210209Y-103762881D02*
X144270686Y-103883833D01*
X144270686Y-103883833D02*
X144391638Y-104004786D01*
X144391638Y-104004786D02*
X144573067Y-104065262D01*
X144573067Y-104065262D02*
X144875448Y-104065262D01*
X142940209Y-104065262D02*
X143665924Y-104065262D01*
X143303067Y-104065262D02*
X143303067Y-102795262D01*
X143303067Y-102795262D02*
X143424019Y-102976690D01*
X143424019Y-102976690D02*
X143544971Y-103097643D01*
X143544971Y-103097643D02*
X143665924Y-103158119D01*
D10*
X137522724Y-103518983D02*
X137570344Y-103471364D01*
X137570344Y-103471364D02*
X137617963Y-103328507D01*
X137617963Y-103328507D02*
X137617963Y-103233269D01*
X137617963Y-103233269D02*
X137570344Y-103090412D01*
X137570344Y-103090412D02*
X137475105Y-102995174D01*
X137475105Y-102995174D02*
X137379867Y-102947555D01*
X137379867Y-102947555D02*
X137189391Y-102899936D01*
X137189391Y-102899936D02*
X137046534Y-102899936D01*
X137046534Y-102899936D02*
X136856058Y-102947555D01*
X136856058Y-102947555D02*
X136760820Y-102995174D01*
X136760820Y-102995174D02*
X136665582Y-103090412D01*
X136665582Y-103090412D02*
X136617963Y-103233269D01*
X136617963Y-103233269D02*
X136617963Y-103328507D01*
X136617963Y-103328507D02*
X136665582Y-103471364D01*
X136665582Y-103471364D02*
X136713201Y-103518983D01*
X136951296Y-104376126D02*
X137617963Y-104376126D01*
X136570344Y-104138031D02*
X137284629Y-103899936D01*
X137284629Y-103899936D02*
X137284629Y-104518983D01*
X139779250Y-93487497D02*
X139826869Y-93535117D01*
X139826869Y-93535117D02*
X139969726Y-93582736D01*
X139969726Y-93582736D02*
X140064964Y-93582736D01*
X140064964Y-93582736D02*
X140207821Y-93535117D01*
X140207821Y-93535117D02*
X140303059Y-93439878D01*
X140303059Y-93439878D02*
X140350678Y-93344640D01*
X140350678Y-93344640D02*
X140398297Y-93154164D01*
X140398297Y-93154164D02*
X140398297Y-93011307D01*
X140398297Y-93011307D02*
X140350678Y-92820831D01*
X140350678Y-92820831D02*
X140303059Y-92725593D01*
X140303059Y-92725593D02*
X140207821Y-92630355D01*
X140207821Y-92630355D02*
X140064964Y-92582736D01*
X140064964Y-92582736D02*
X139969726Y-92582736D01*
X139969726Y-92582736D02*
X139826869Y-92630355D01*
X139826869Y-92630355D02*
X139779250Y-92677974D01*
X139445916Y-92582736D02*
X138826869Y-92582736D01*
X138826869Y-92582736D02*
X139160202Y-92963688D01*
X139160202Y-92963688D02*
X139017345Y-92963688D01*
X139017345Y-92963688D02*
X138922107Y-93011307D01*
X138922107Y-93011307D02*
X138874488Y-93058926D01*
X138874488Y-93058926D02*
X138826869Y-93154164D01*
X138826869Y-93154164D02*
X138826869Y-93392259D01*
X138826869Y-93392259D02*
X138874488Y-93487497D01*
X138874488Y-93487497D02*
X138922107Y-93535117D01*
X138922107Y-93535117D02*
X139017345Y-93582736D01*
X139017345Y-93582736D02*
X139303059Y-93582736D01*
X139303059Y-93582736D02*
X139398297Y-93535117D01*
X139398297Y-93535117D02*
X139445916Y-93487497D01*
D12*
%TO.C,R3*%
X138989003Y-89071090D02*
X140443131Y-89071090D01*
X138989003Y-90891090D02*
X140443131Y-90891090D01*
%TO.C,R2*%
X144017268Y-89065243D02*
X145471396Y-89065243D01*
X144017268Y-90885243D02*
X145471396Y-90885243D01*
D13*
%TO.C,D1*%
X141813067Y-102190944D02*
X146838067Y-102190944D01*
X141813067Y-104790944D02*
X146063067Y-104790944D01*
D12*
%TO.C,C4*%
X138103144Y-104396902D02*
X138103144Y-102974398D01*
X139923144Y-104396902D02*
X139923144Y-102974398D01*
%TO.C,C3*%
X138901332Y-94067917D02*
X140323836Y-94067917D01*
X138901332Y-95887917D02*
X140323836Y-95887917D01*
%TD*%
%LPC*%
D14*
%TO.C,R3*%
X141266067Y-89981090D03*
X138166067Y-89981090D03*
%TD*%
%TO.C,R2*%
X146294332Y-89975243D03*
X143194332Y-89975243D03*
%TD*%
D15*
%TO.C,D1*%
X146113067Y-103490944D03*
X141763067Y-103490944D03*
%TD*%
D16*
%TO.C,C4*%
X139013144Y-102123150D03*
X139013144Y-105248150D03*
%TD*%
D17*
%TO.C,C3*%
X141175084Y-94977917D03*
X138050084Y-94977917D03*
%TD*%
D18*
%TO.C,J1*%
X153109449Y-101617000D03*
D19*
X153109449Y-99077000D03*
X153109449Y-96537000D03*
%TD*%
D20*
%TO.C,C5*%
X138049386Y-107482969D03*
D21*
X143049386Y-107482969D03*
%TD*%
D20*
%TO.C,C2*%
X148158263Y-103439855D03*
D21*
X148158263Y-105939855D03*
%TD*%
D20*
%TO.C,C1*%
X153150694Y-89852484D03*
D21*
X150650694Y-89852484D03*
%TD*%
%LPD*%
M02*
