%TF.GenerationSoftware,KiCad,Pcbnew,7.0.1*%
%TF.CreationDate,2023-06-01T20:44:39-07:00*%
%TF.ProjectId,LM2670SX-Carrier-SMD-inductor-ADJ,4c4d3236-3730-4535-982d-436172726965,rev?*%
%TF.SameCoordinates,Original*%
%TF.FileFunction,Legend,Bot*%
%TF.FilePolarity,Positive*%
%FSLAX46Y46*%
G04 Gerber Fmt 4.6, Leading zero omitted, Abs format (unit mm)*
G04 Created by KiCad (PCBNEW 7.0.1) date 2023-06-01 20:44:39*
%MOMM*%
%LPD*%
G01*
G04 APERTURE LIST*
%ADD10C,0.150000*%
%ADD11C,0.254000*%
%ADD12C,0.120000*%
%ADD13C,0.200000*%
G04 APERTURE END LIST*
D10*
%TO.C,R1*%
X178858826Y-93310615D02*
X179192159Y-92834424D01*
X179430254Y-93310615D02*
X179430254Y-92310615D01*
X179430254Y-92310615D02*
X179049302Y-92310615D01*
X179049302Y-92310615D02*
X178954064Y-92358234D01*
X178954064Y-92358234D02*
X178906445Y-92405853D01*
X178906445Y-92405853D02*
X178858826Y-92501091D01*
X178858826Y-92501091D02*
X178858826Y-92643948D01*
X178858826Y-92643948D02*
X178906445Y-92739186D01*
X178906445Y-92739186D02*
X178954064Y-92786805D01*
X178954064Y-92786805D02*
X179049302Y-92834424D01*
X179049302Y-92834424D02*
X179430254Y-92834424D01*
X177906445Y-93310615D02*
X178477873Y-93310615D01*
X178192159Y-93310615D02*
X178192159Y-92310615D01*
X178192159Y-92310615D02*
X178287397Y-92453472D01*
X178287397Y-92453472D02*
X178382635Y-92548710D01*
X178382635Y-92548710D02*
X178477873Y-92596329D01*
D11*
%TO.C,D2*%
X175131493Y-103522460D02*
X175131493Y-102252460D01*
X175131493Y-102252460D02*
X174829112Y-102252460D01*
X174829112Y-102252460D02*
X174647683Y-102312936D01*
X174647683Y-102312936D02*
X174526731Y-102433888D01*
X174526731Y-102433888D02*
X174466254Y-102554841D01*
X174466254Y-102554841D02*
X174405778Y-102796745D01*
X174405778Y-102796745D02*
X174405778Y-102978174D01*
X174405778Y-102978174D02*
X174466254Y-103220079D01*
X174466254Y-103220079D02*
X174526731Y-103341031D01*
X174526731Y-103341031D02*
X174647683Y-103461984D01*
X174647683Y-103461984D02*
X174829112Y-103522460D01*
X174829112Y-103522460D02*
X175131493Y-103522460D01*
X173921969Y-102373412D02*
X173861493Y-102312936D01*
X173861493Y-102312936D02*
X173740540Y-102252460D01*
X173740540Y-102252460D02*
X173438159Y-102252460D01*
X173438159Y-102252460D02*
X173317207Y-102312936D01*
X173317207Y-102312936D02*
X173256731Y-102373412D01*
X173256731Y-102373412D02*
X173196254Y-102494364D01*
X173196254Y-102494364D02*
X173196254Y-102615317D01*
X173196254Y-102615317D02*
X173256731Y-102796745D01*
X173256731Y-102796745D02*
X173982445Y-103522460D01*
X173982445Y-103522460D02*
X173196254Y-103522460D01*
D10*
%TO.C,C4*%
X172487615Y-96817796D02*
X172535235Y-96770177D01*
X172535235Y-96770177D02*
X172582854Y-96627320D01*
X172582854Y-96627320D02*
X172582854Y-96532082D01*
X172582854Y-96532082D02*
X172535235Y-96389225D01*
X172535235Y-96389225D02*
X172439996Y-96293987D01*
X172439996Y-96293987D02*
X172344758Y-96246368D01*
X172344758Y-96246368D02*
X172154282Y-96198749D01*
X172154282Y-96198749D02*
X172011425Y-96198749D01*
X172011425Y-96198749D02*
X171820949Y-96246368D01*
X171820949Y-96246368D02*
X171725711Y-96293987D01*
X171725711Y-96293987D02*
X171630473Y-96389225D01*
X171630473Y-96389225D02*
X171582854Y-96532082D01*
X171582854Y-96532082D02*
X171582854Y-96627320D01*
X171582854Y-96627320D02*
X171630473Y-96770177D01*
X171630473Y-96770177D02*
X171678092Y-96817796D01*
X171916187Y-97674939D02*
X172582854Y-97674939D01*
X171535235Y-97436844D02*
X172249520Y-97198749D01*
X172249520Y-97198749D02*
X172249520Y-97817796D01*
%TO.C,C3*%
X174736206Y-95527696D02*
X174783825Y-95575316D01*
X174783825Y-95575316D02*
X174926682Y-95622935D01*
X174926682Y-95622935D02*
X175021920Y-95622935D01*
X175021920Y-95622935D02*
X175164777Y-95575316D01*
X175164777Y-95575316D02*
X175260015Y-95480077D01*
X175260015Y-95480077D02*
X175307634Y-95384839D01*
X175307634Y-95384839D02*
X175355253Y-95194363D01*
X175355253Y-95194363D02*
X175355253Y-95051506D01*
X175355253Y-95051506D02*
X175307634Y-94861030D01*
X175307634Y-94861030D02*
X175260015Y-94765792D01*
X175260015Y-94765792D02*
X175164777Y-94670554D01*
X175164777Y-94670554D02*
X175021920Y-94622935D01*
X175021920Y-94622935D02*
X174926682Y-94622935D01*
X174926682Y-94622935D02*
X174783825Y-94670554D01*
X174783825Y-94670554D02*
X174736206Y-94718173D01*
X174402872Y-94622935D02*
X173783825Y-94622935D01*
X173783825Y-94622935D02*
X174117158Y-95003887D01*
X174117158Y-95003887D02*
X173974301Y-95003887D01*
X173974301Y-95003887D02*
X173879063Y-95051506D01*
X173879063Y-95051506D02*
X173831444Y-95099125D01*
X173831444Y-95099125D02*
X173783825Y-95194363D01*
X173783825Y-95194363D02*
X173783825Y-95432458D01*
X173783825Y-95432458D02*
X173831444Y-95527696D01*
X173831444Y-95527696D02*
X173879063Y-95575316D01*
X173879063Y-95575316D02*
X173974301Y-95622935D01*
X173974301Y-95622935D02*
X174260015Y-95622935D01*
X174260015Y-95622935D02*
X174355253Y-95575316D01*
X174355253Y-95575316D02*
X174402872Y-95527696D01*
D12*
%TO.C,R1*%
X178875143Y-97207996D02*
X178509177Y-97207996D01*
X178875143Y-93787996D02*
X178509177Y-93787996D01*
D13*
%TO.C,D2*%
X171294112Y-104234934D02*
X176319112Y-104234934D01*
X172069112Y-101634934D02*
X176319112Y-101634934D01*
D12*
%TO.C,C4*%
X172610988Y-99401034D02*
X172610988Y-99693568D01*
X171590988Y-99401034D02*
X171590988Y-99693568D01*
%TO.C,C3*%
X174715807Y-97100316D02*
X174423273Y-97100316D01*
X174715807Y-96080316D02*
X174423273Y-96080316D01*
%TD*%
M02*
