%TF.GenerationSoftware,KiCad,Pcbnew,7.0.1*%
%TF.CreationDate,2023-06-01T20:44:39-07:00*%
%TF.ProjectId,LM2670SX-Carrier-SMD-inductor-ADJ,4c4d3236-3730-4535-982d-436172726965,rev?*%
%TF.SameCoordinates,Original*%
%TF.FileFunction,Legend,Top*%
%TF.FilePolarity,Positive*%
%FSLAX46Y46*%
G04 Gerber Fmt 4.6, Leading zero omitted, Abs format (unit mm)*
G04 Created by KiCad (PCBNEW 7.0.1) date 2023-06-01 20:44:39*
%MOMM*%
%LPD*%
G01*
G04 APERTURE LIST*
%ADD10C,0.150000*%
%ADD11C,0.254000*%
%ADD12C,0.120000*%
%ADD13C,0.100000*%
%ADD14C,0.200000*%
G04 APERTURE END LIST*
D10*
X173327233Y-116633633D02*
X172851043Y-116633633D01*
X172851043Y-116633633D02*
X172851043Y-115633633D01*
X173660567Y-116633633D02*
X173660567Y-115633633D01*
X173660567Y-115633633D02*
X173993900Y-116347918D01*
X173993900Y-116347918D02*
X174327233Y-115633633D01*
X174327233Y-115633633D02*
X174327233Y-116633633D01*
X174755805Y-115728871D02*
X174803424Y-115681252D01*
X174803424Y-115681252D02*
X174898662Y-115633633D01*
X174898662Y-115633633D02*
X175136757Y-115633633D01*
X175136757Y-115633633D02*
X175231995Y-115681252D01*
X175231995Y-115681252D02*
X175279614Y-115728871D01*
X175279614Y-115728871D02*
X175327233Y-115824109D01*
X175327233Y-115824109D02*
X175327233Y-115919347D01*
X175327233Y-115919347D02*
X175279614Y-116062204D01*
X175279614Y-116062204D02*
X174708186Y-116633633D01*
X174708186Y-116633633D02*
X175327233Y-116633633D01*
X176184376Y-115633633D02*
X175993900Y-115633633D01*
X175993900Y-115633633D02*
X175898662Y-115681252D01*
X175898662Y-115681252D02*
X175851043Y-115728871D01*
X175851043Y-115728871D02*
X175755805Y-115871728D01*
X175755805Y-115871728D02*
X175708186Y-116062204D01*
X175708186Y-116062204D02*
X175708186Y-116443156D01*
X175708186Y-116443156D02*
X175755805Y-116538394D01*
X175755805Y-116538394D02*
X175803424Y-116586014D01*
X175803424Y-116586014D02*
X175898662Y-116633633D01*
X175898662Y-116633633D02*
X176089138Y-116633633D01*
X176089138Y-116633633D02*
X176184376Y-116586014D01*
X176184376Y-116586014D02*
X176231995Y-116538394D01*
X176231995Y-116538394D02*
X176279614Y-116443156D01*
X176279614Y-116443156D02*
X176279614Y-116205061D01*
X176279614Y-116205061D02*
X176231995Y-116109823D01*
X176231995Y-116109823D02*
X176184376Y-116062204D01*
X176184376Y-116062204D02*
X176089138Y-116014585D01*
X176089138Y-116014585D02*
X175898662Y-116014585D01*
X175898662Y-116014585D02*
X175803424Y-116062204D01*
X175803424Y-116062204D02*
X175755805Y-116109823D01*
X175755805Y-116109823D02*
X175708186Y-116205061D01*
X176612948Y-115633633D02*
X177279614Y-115633633D01*
X177279614Y-115633633D02*
X176851043Y-116633633D01*
X177851043Y-115633633D02*
X177946281Y-115633633D01*
X177946281Y-115633633D02*
X178041519Y-115681252D01*
X178041519Y-115681252D02*
X178089138Y-115728871D01*
X178089138Y-115728871D02*
X178136757Y-115824109D01*
X178136757Y-115824109D02*
X178184376Y-116014585D01*
X178184376Y-116014585D02*
X178184376Y-116252680D01*
X178184376Y-116252680D02*
X178136757Y-116443156D01*
X178136757Y-116443156D02*
X178089138Y-116538394D01*
X178089138Y-116538394D02*
X178041519Y-116586014D01*
X178041519Y-116586014D02*
X177946281Y-116633633D01*
X177946281Y-116633633D02*
X177851043Y-116633633D01*
X177851043Y-116633633D02*
X177755805Y-116586014D01*
X177755805Y-116586014D02*
X177708186Y-116538394D01*
X177708186Y-116538394D02*
X177660567Y-116443156D01*
X177660567Y-116443156D02*
X177612948Y-116252680D01*
X177612948Y-116252680D02*
X177612948Y-116014585D01*
X177612948Y-116014585D02*
X177660567Y-115824109D01*
X177660567Y-115824109D02*
X177708186Y-115728871D01*
X177708186Y-115728871D02*
X177755805Y-115681252D01*
X177755805Y-115681252D02*
X177851043Y-115633633D01*
X178565329Y-116586014D02*
X178708186Y-116633633D01*
X178708186Y-116633633D02*
X178946281Y-116633633D01*
X178946281Y-116633633D02*
X179041519Y-116586014D01*
X179041519Y-116586014D02*
X179089138Y-116538394D01*
X179089138Y-116538394D02*
X179136757Y-116443156D01*
X179136757Y-116443156D02*
X179136757Y-116347918D01*
X179136757Y-116347918D02*
X179089138Y-116252680D01*
X179089138Y-116252680D02*
X179041519Y-116205061D01*
X179041519Y-116205061D02*
X178946281Y-116157442D01*
X178946281Y-116157442D02*
X178755805Y-116109823D01*
X178755805Y-116109823D02*
X178660567Y-116062204D01*
X178660567Y-116062204D02*
X178612948Y-116014585D01*
X178612948Y-116014585D02*
X178565329Y-115919347D01*
X178565329Y-115919347D02*
X178565329Y-115824109D01*
X178565329Y-115824109D02*
X178612948Y-115728871D01*
X178612948Y-115728871D02*
X178660567Y-115681252D01*
X178660567Y-115681252D02*
X178755805Y-115633633D01*
X178755805Y-115633633D02*
X178993900Y-115633633D01*
X178993900Y-115633633D02*
X179136757Y-115681252D01*
X179470091Y-115633633D02*
X180136757Y-116633633D01*
X180136757Y-115633633D02*
X179470091Y-116633633D01*
%TO.C,J1*%
X188414366Y-103262819D02*
X188414366Y-103977104D01*
X188414366Y-103977104D02*
X188366747Y-104119961D01*
X188366747Y-104119961D02*
X188271509Y-104215200D01*
X188271509Y-104215200D02*
X188128652Y-104262819D01*
X188128652Y-104262819D02*
X188033414Y-104262819D01*
X189414366Y-104262819D02*
X188842938Y-104262819D01*
X189128652Y-104262819D02*
X189128652Y-103262819D01*
X189128652Y-103262819D02*
X189033414Y-103405676D01*
X189033414Y-103405676D02*
X188938176Y-103500914D01*
X188938176Y-103500914D02*
X188842938Y-103548533D01*
%TO.C,C2*%
X176227462Y-106199968D02*
X176275082Y-106247587D01*
X176275082Y-106247587D02*
X176322701Y-106390444D01*
X176322701Y-106390444D02*
X176322701Y-106485682D01*
X176322701Y-106485682D02*
X176275082Y-106628539D01*
X176275082Y-106628539D02*
X176179843Y-106723777D01*
X176179843Y-106723777D02*
X176084605Y-106771396D01*
X176084605Y-106771396D02*
X175894129Y-106819015D01*
X175894129Y-106819015D02*
X175751272Y-106819015D01*
X175751272Y-106819015D02*
X175560796Y-106771396D01*
X175560796Y-106771396D02*
X175465558Y-106723777D01*
X175465558Y-106723777D02*
X175370320Y-106628539D01*
X175370320Y-106628539D02*
X175322701Y-106485682D01*
X175322701Y-106485682D02*
X175322701Y-106390444D01*
X175322701Y-106390444D02*
X175370320Y-106247587D01*
X175370320Y-106247587D02*
X175417939Y-106199968D01*
X175417939Y-105819015D02*
X175370320Y-105771396D01*
X175370320Y-105771396D02*
X175322701Y-105676158D01*
X175322701Y-105676158D02*
X175322701Y-105438063D01*
X175322701Y-105438063D02*
X175370320Y-105342825D01*
X175370320Y-105342825D02*
X175417939Y-105295206D01*
X175417939Y-105295206D02*
X175513177Y-105247587D01*
X175513177Y-105247587D02*
X175608415Y-105247587D01*
X175608415Y-105247587D02*
X175751272Y-105295206D01*
X175751272Y-105295206D02*
X176322701Y-105866634D01*
X176322701Y-105866634D02*
X176322701Y-105247587D01*
%TO.C,C1*%
X188294018Y-105765440D02*
X188246399Y-105813060D01*
X188246399Y-105813060D02*
X188103542Y-105860679D01*
X188103542Y-105860679D02*
X188008304Y-105860679D01*
X188008304Y-105860679D02*
X187865447Y-105813060D01*
X187865447Y-105813060D02*
X187770209Y-105717821D01*
X187770209Y-105717821D02*
X187722590Y-105622583D01*
X187722590Y-105622583D02*
X187674971Y-105432107D01*
X187674971Y-105432107D02*
X187674971Y-105289250D01*
X187674971Y-105289250D02*
X187722590Y-105098774D01*
X187722590Y-105098774D02*
X187770209Y-105003536D01*
X187770209Y-105003536D02*
X187865447Y-104908298D01*
X187865447Y-104908298D02*
X188008304Y-104860679D01*
X188008304Y-104860679D02*
X188103542Y-104860679D01*
X188103542Y-104860679D02*
X188246399Y-104908298D01*
X188246399Y-104908298D02*
X188294018Y-104955917D01*
X189246399Y-105860679D02*
X188674971Y-105860679D01*
X188960685Y-105860679D02*
X188960685Y-104860679D01*
X188960685Y-104860679D02*
X188865447Y-105003536D01*
X188865447Y-105003536D02*
X188770209Y-105098774D01*
X188770209Y-105098774D02*
X188674971Y-105146393D01*
%TO.C,C5*%
X189100268Y-108689602D02*
X189052649Y-108737222D01*
X189052649Y-108737222D02*
X188909792Y-108784841D01*
X188909792Y-108784841D02*
X188814554Y-108784841D01*
X188814554Y-108784841D02*
X188671697Y-108737222D01*
X188671697Y-108737222D02*
X188576459Y-108641983D01*
X188576459Y-108641983D02*
X188528840Y-108546745D01*
X188528840Y-108546745D02*
X188481221Y-108356269D01*
X188481221Y-108356269D02*
X188481221Y-108213412D01*
X188481221Y-108213412D02*
X188528840Y-108022936D01*
X188528840Y-108022936D02*
X188576459Y-107927698D01*
X188576459Y-107927698D02*
X188671697Y-107832460D01*
X188671697Y-107832460D02*
X188814554Y-107784841D01*
X188814554Y-107784841D02*
X188909792Y-107784841D01*
X188909792Y-107784841D02*
X189052649Y-107832460D01*
X189052649Y-107832460D02*
X189100268Y-107880079D01*
X190005030Y-107784841D02*
X189528840Y-107784841D01*
X189528840Y-107784841D02*
X189481221Y-108261031D01*
X189481221Y-108261031D02*
X189528840Y-108213412D01*
X189528840Y-108213412D02*
X189624078Y-108165793D01*
X189624078Y-108165793D02*
X189862173Y-108165793D01*
X189862173Y-108165793D02*
X189957411Y-108213412D01*
X189957411Y-108213412D02*
X190005030Y-108261031D01*
X190005030Y-108261031D02*
X190052649Y-108356269D01*
X190052649Y-108356269D02*
X190052649Y-108594364D01*
X190052649Y-108594364D02*
X190005030Y-108689602D01*
X190005030Y-108689602D02*
X189957411Y-108737222D01*
X189957411Y-108737222D02*
X189862173Y-108784841D01*
X189862173Y-108784841D02*
X189624078Y-108784841D01*
X189624078Y-108784841D02*
X189528840Y-108737222D01*
X189528840Y-108737222D02*
X189481221Y-108689602D01*
D11*
%TO.C,L2*%
X176408467Y-111802072D02*
X175803705Y-111802072D01*
X175803705Y-111802072D02*
X175803705Y-110532072D01*
X176771324Y-110653024D02*
X176831800Y-110592548D01*
X176831800Y-110592548D02*
X176952753Y-110532072D01*
X176952753Y-110532072D02*
X177255134Y-110532072D01*
X177255134Y-110532072D02*
X177376086Y-110592548D01*
X177376086Y-110592548D02*
X177436562Y-110653024D01*
X177436562Y-110653024D02*
X177497039Y-110773976D01*
X177497039Y-110773976D02*
X177497039Y-110894929D01*
X177497039Y-110894929D02*
X177436562Y-111076357D01*
X177436562Y-111076357D02*
X176710848Y-111802072D01*
X176710848Y-111802072D02*
X177497039Y-111802072D01*
D10*
%TO.C,RV2*%
X184308890Y-90100686D02*
X183832699Y-90434019D01*
X184308890Y-90672114D02*
X183308890Y-90672114D01*
X183308890Y-90672114D02*
X183308890Y-90291162D01*
X183308890Y-90291162D02*
X183356509Y-90195924D01*
X183356509Y-90195924D02*
X183404128Y-90148305D01*
X183404128Y-90148305D02*
X183499366Y-90100686D01*
X183499366Y-90100686D02*
X183642223Y-90100686D01*
X183642223Y-90100686D02*
X183737461Y-90148305D01*
X183737461Y-90148305D02*
X183785080Y-90195924D01*
X183785080Y-90195924D02*
X183832699Y-90291162D01*
X183832699Y-90291162D02*
X183832699Y-90672114D01*
X183308890Y-89814971D02*
X184308890Y-89481638D01*
X184308890Y-89481638D02*
X183308890Y-89148305D01*
X183404128Y-88862590D02*
X183356509Y-88814971D01*
X183356509Y-88814971D02*
X183308890Y-88719733D01*
X183308890Y-88719733D02*
X183308890Y-88481638D01*
X183308890Y-88481638D02*
X183356509Y-88386400D01*
X183356509Y-88386400D02*
X183404128Y-88338781D01*
X183404128Y-88338781D02*
X183499366Y-88291162D01*
X183499366Y-88291162D02*
X183594604Y-88291162D01*
X183594604Y-88291162D02*
X183737461Y-88338781D01*
X183737461Y-88338781D02*
X184308890Y-88910209D01*
X184308890Y-88910209D02*
X184308890Y-88291162D01*
D11*
%TO.C,IC1*%
X183882329Y-100328745D02*
X182612329Y-100328745D01*
X183761376Y-98998268D02*
X183821853Y-99058744D01*
X183821853Y-99058744D02*
X183882329Y-99240173D01*
X183882329Y-99240173D02*
X183882329Y-99361125D01*
X183882329Y-99361125D02*
X183821853Y-99542554D01*
X183821853Y-99542554D02*
X183700900Y-99663506D01*
X183700900Y-99663506D02*
X183579948Y-99723983D01*
X183579948Y-99723983D02*
X183338043Y-99784459D01*
X183338043Y-99784459D02*
X183156614Y-99784459D01*
X183156614Y-99784459D02*
X182914710Y-99723983D01*
X182914710Y-99723983D02*
X182793757Y-99663506D01*
X182793757Y-99663506D02*
X182672805Y-99542554D01*
X182672805Y-99542554D02*
X182612329Y-99361125D01*
X182612329Y-99361125D02*
X182612329Y-99240173D01*
X182612329Y-99240173D02*
X182672805Y-99058744D01*
X182672805Y-99058744D02*
X182733281Y-98998268D01*
X183882329Y-97788744D02*
X183882329Y-98514459D01*
X183882329Y-98151602D02*
X182612329Y-98151602D01*
X182612329Y-98151602D02*
X182793757Y-98272554D01*
X182793757Y-98272554D02*
X182914710Y-98393506D01*
X182914710Y-98393506D02*
X182975186Y-98514459D01*
D12*
%TO.C,J1*%
X190077700Y-102800200D02*
X188747700Y-102800200D01*
X190077700Y-101470200D02*
X190077700Y-102800200D01*
X190077700Y-100200200D02*
X190077700Y-95060200D01*
X190077700Y-100200200D02*
X187417700Y-100200200D01*
X190077700Y-95060200D02*
X187417700Y-95060200D01*
X187417700Y-100200200D02*
X187417700Y-95060200D01*
%TO.C,C2*%
X180631213Y-101324984D02*
X180631213Y-101824984D01*
X180881213Y-101574984D02*
X180381213Y-101574984D01*
X181736213Y-104129759D02*
X176576213Y-104129759D01*
X181736213Y-104169759D02*
X176576213Y-104169759D01*
X181735213Y-104209759D02*
X176577213Y-104209759D01*
X181734213Y-104249759D02*
X176578213Y-104249759D01*
X181732213Y-104289759D02*
X176580213Y-104289759D01*
X181729213Y-104329759D02*
X176583213Y-104329759D01*
X181725213Y-104369759D02*
X180196213Y-104369759D01*
X178116213Y-104369759D02*
X176587213Y-104369759D01*
X181721213Y-104409759D02*
X180196213Y-104409759D01*
X178116213Y-104409759D02*
X176591213Y-104409759D01*
X181717213Y-104449759D02*
X180196213Y-104449759D01*
X178116213Y-104449759D02*
X176595213Y-104449759D01*
X181712213Y-104489759D02*
X180196213Y-104489759D01*
X178116213Y-104489759D02*
X176600213Y-104489759D01*
X181706213Y-104529759D02*
X180196213Y-104529759D01*
X178116213Y-104529759D02*
X176606213Y-104529759D01*
X181699213Y-104569759D02*
X180196213Y-104569759D01*
X178116213Y-104569759D02*
X176613213Y-104569759D01*
X181692213Y-104609759D02*
X180196213Y-104609759D01*
X178116213Y-104609759D02*
X176620213Y-104609759D01*
X181684213Y-104649759D02*
X180196213Y-104649759D01*
X178116213Y-104649759D02*
X176628213Y-104649759D01*
X181676213Y-104689759D02*
X180196213Y-104689759D01*
X178116213Y-104689759D02*
X176636213Y-104689759D01*
X181667213Y-104729759D02*
X180196213Y-104729759D01*
X178116213Y-104729759D02*
X176645213Y-104729759D01*
X181657213Y-104769759D02*
X180196213Y-104769759D01*
X178116213Y-104769759D02*
X176655213Y-104769759D01*
X181647213Y-104809759D02*
X180196213Y-104809759D01*
X178116213Y-104809759D02*
X176665213Y-104809759D01*
X181636213Y-104850759D02*
X180196213Y-104850759D01*
X178116213Y-104850759D02*
X176676213Y-104850759D01*
X181624213Y-104890759D02*
X180196213Y-104890759D01*
X178116213Y-104890759D02*
X176688213Y-104890759D01*
X181611213Y-104930759D02*
X180196213Y-104930759D01*
X178116213Y-104930759D02*
X176701213Y-104930759D01*
X181598213Y-104970759D02*
X180196213Y-104970759D01*
X178116213Y-104970759D02*
X176714213Y-104970759D01*
X181584213Y-105010759D02*
X180196213Y-105010759D01*
X178116213Y-105010759D02*
X176728213Y-105010759D01*
X181570213Y-105050759D02*
X180196213Y-105050759D01*
X178116213Y-105050759D02*
X176742213Y-105050759D01*
X181554213Y-105090759D02*
X180196213Y-105090759D01*
X178116213Y-105090759D02*
X176758213Y-105090759D01*
X181538213Y-105130759D02*
X180196213Y-105130759D01*
X178116213Y-105130759D02*
X176774213Y-105130759D01*
X181521213Y-105170759D02*
X180196213Y-105170759D01*
X178116213Y-105170759D02*
X176791213Y-105170759D01*
X181504213Y-105210759D02*
X180196213Y-105210759D01*
X178116213Y-105210759D02*
X176808213Y-105210759D01*
X181485213Y-105250759D02*
X180196213Y-105250759D01*
X178116213Y-105250759D02*
X176827213Y-105250759D01*
X181466213Y-105290759D02*
X180196213Y-105290759D01*
X178116213Y-105290759D02*
X176846213Y-105290759D01*
X181446213Y-105330759D02*
X180196213Y-105330759D01*
X178116213Y-105330759D02*
X176866213Y-105330759D01*
X181424213Y-105370759D02*
X180196213Y-105370759D01*
X178116213Y-105370759D02*
X176888213Y-105370759D01*
X181403213Y-105410759D02*
X180196213Y-105410759D01*
X178116213Y-105410759D02*
X176909213Y-105410759D01*
X181380213Y-105450759D02*
X180196213Y-105450759D01*
X178116213Y-105450759D02*
X176932213Y-105450759D01*
X181356213Y-105490759D02*
X180196213Y-105490759D01*
X178116213Y-105490759D02*
X176956213Y-105490759D01*
X181331213Y-105530759D02*
X180196213Y-105530759D01*
X178116213Y-105530759D02*
X176981213Y-105530759D01*
X181305213Y-105570759D02*
X180196213Y-105570759D01*
X178116213Y-105570759D02*
X177007213Y-105570759D01*
X181278213Y-105610759D02*
X180196213Y-105610759D01*
X178116213Y-105610759D02*
X177034213Y-105610759D01*
X181251213Y-105650759D02*
X180196213Y-105650759D01*
X178116213Y-105650759D02*
X177061213Y-105650759D01*
X181221213Y-105690759D02*
X180196213Y-105690759D01*
X178116213Y-105690759D02*
X177091213Y-105690759D01*
X181191213Y-105730759D02*
X180196213Y-105730759D01*
X178116213Y-105730759D02*
X177121213Y-105730759D01*
X181160213Y-105770759D02*
X180196213Y-105770759D01*
X178116213Y-105770759D02*
X177152213Y-105770759D01*
X181127213Y-105810759D02*
X180196213Y-105810759D01*
X178116213Y-105810759D02*
X177185213Y-105810759D01*
X181093213Y-105850759D02*
X180196213Y-105850759D01*
X178116213Y-105850759D02*
X177219213Y-105850759D01*
X181057213Y-105890759D02*
X180196213Y-105890759D01*
X178116213Y-105890759D02*
X177255213Y-105890759D01*
X181020213Y-105930759D02*
X180196213Y-105930759D01*
X178116213Y-105930759D02*
X177292213Y-105930759D01*
X180982213Y-105970759D02*
X180196213Y-105970759D01*
X178116213Y-105970759D02*
X177330213Y-105970759D01*
X180941213Y-106010759D02*
X180196213Y-106010759D01*
X178116213Y-106010759D02*
X177371213Y-106010759D01*
X180899213Y-106050759D02*
X180196213Y-106050759D01*
X178116213Y-106050759D02*
X177413213Y-106050759D01*
X180855213Y-106090759D02*
X180196213Y-106090759D01*
X178116213Y-106090759D02*
X177457213Y-106090759D01*
X180809213Y-106130759D02*
X180196213Y-106130759D01*
X178116213Y-106130759D02*
X177503213Y-106130759D01*
X180761213Y-106170759D02*
X180196213Y-106170759D01*
X178116213Y-106170759D02*
X177551213Y-106170759D01*
X180710213Y-106210759D02*
X180196213Y-106210759D01*
X178116213Y-106210759D02*
X177602213Y-106210759D01*
X180656213Y-106250759D02*
X180196213Y-106250759D01*
X178116213Y-106250759D02*
X177656213Y-106250759D01*
X180599213Y-106290759D02*
X180196213Y-106290759D01*
X178116213Y-106290759D02*
X177713213Y-106290759D01*
X180539213Y-106330759D02*
X180196213Y-106330759D01*
X178116213Y-106330759D02*
X177773213Y-106330759D01*
X180475213Y-106370759D02*
X180196213Y-106370759D01*
X178116213Y-106370759D02*
X177837213Y-106370759D01*
X180407213Y-106410759D02*
X180196213Y-106410759D01*
X178116213Y-106410759D02*
X177905213Y-106410759D01*
X180334213Y-106450759D02*
X177978213Y-106450759D01*
X180254213Y-106490759D02*
X178058213Y-106490759D01*
X180167213Y-106530759D02*
X178145213Y-106530759D01*
X180071213Y-106570759D02*
X178241213Y-106570759D01*
X179961213Y-106610759D02*
X178351213Y-106610759D01*
X179833213Y-106650759D02*
X178479213Y-106650759D01*
X179674213Y-106690759D02*
X178638213Y-106690759D01*
X179440213Y-106730759D02*
X178872213Y-106730759D01*
X181776213Y-104129759D02*
G75*
G03*
X181776213Y-104129759I-2620000J0D01*
G01*
%TO.C,C1*%
X187452327Y-106475951D02*
X186952327Y-106475951D01*
X187202327Y-106725951D02*
X187202327Y-106225951D01*
X184647552Y-107580951D02*
X184647552Y-102420951D01*
X184607552Y-107580951D02*
X184607552Y-102420951D01*
X184567552Y-107579951D02*
X184567552Y-102421951D01*
X184527552Y-107578951D02*
X184527552Y-102422951D01*
X184487552Y-107576951D02*
X184487552Y-102424951D01*
X184447552Y-107573951D02*
X184447552Y-102427951D01*
X184407552Y-107569951D02*
X184407552Y-106040951D01*
X184407552Y-103960951D02*
X184407552Y-102431951D01*
X184367552Y-107565951D02*
X184367552Y-106040951D01*
X184367552Y-103960951D02*
X184367552Y-102435951D01*
X184327552Y-107561951D02*
X184327552Y-106040951D01*
X184327552Y-103960951D02*
X184327552Y-102439951D01*
X184287552Y-107556951D02*
X184287552Y-106040951D01*
X184287552Y-103960951D02*
X184287552Y-102444951D01*
X184247552Y-107550951D02*
X184247552Y-106040951D01*
X184247552Y-103960951D02*
X184247552Y-102450951D01*
X184207552Y-107543951D02*
X184207552Y-106040951D01*
X184207552Y-103960951D02*
X184207552Y-102457951D01*
X184167552Y-107536951D02*
X184167552Y-106040951D01*
X184167552Y-103960951D02*
X184167552Y-102464951D01*
X184127552Y-107528951D02*
X184127552Y-106040951D01*
X184127552Y-103960951D02*
X184127552Y-102472951D01*
X184087552Y-107520951D02*
X184087552Y-106040951D01*
X184087552Y-103960951D02*
X184087552Y-102480951D01*
X184047552Y-107511951D02*
X184047552Y-106040951D01*
X184047552Y-103960951D02*
X184047552Y-102489951D01*
X184007552Y-107501951D02*
X184007552Y-106040951D01*
X184007552Y-103960951D02*
X184007552Y-102499951D01*
X183967552Y-107491951D02*
X183967552Y-106040951D01*
X183967552Y-103960951D02*
X183967552Y-102509951D01*
X183926552Y-107480951D02*
X183926552Y-106040951D01*
X183926552Y-103960951D02*
X183926552Y-102520951D01*
X183886552Y-107468951D02*
X183886552Y-106040951D01*
X183886552Y-103960951D02*
X183886552Y-102532951D01*
X183846552Y-107455951D02*
X183846552Y-106040951D01*
X183846552Y-103960951D02*
X183846552Y-102545951D01*
X183806552Y-107442951D02*
X183806552Y-106040951D01*
X183806552Y-103960951D02*
X183806552Y-102558951D01*
X183766552Y-107428951D02*
X183766552Y-106040951D01*
X183766552Y-103960951D02*
X183766552Y-102572951D01*
X183726552Y-107414951D02*
X183726552Y-106040951D01*
X183726552Y-103960951D02*
X183726552Y-102586951D01*
X183686552Y-107398951D02*
X183686552Y-106040951D01*
X183686552Y-103960951D02*
X183686552Y-102602951D01*
X183646552Y-107382951D02*
X183646552Y-106040951D01*
X183646552Y-103960951D02*
X183646552Y-102618951D01*
X183606552Y-107365951D02*
X183606552Y-106040951D01*
X183606552Y-103960951D02*
X183606552Y-102635951D01*
X183566552Y-107348951D02*
X183566552Y-106040951D01*
X183566552Y-103960951D02*
X183566552Y-102652951D01*
X183526552Y-107329951D02*
X183526552Y-106040951D01*
X183526552Y-103960951D02*
X183526552Y-102671951D01*
X183486552Y-107310951D02*
X183486552Y-106040951D01*
X183486552Y-103960951D02*
X183486552Y-102690951D01*
X183446552Y-107290951D02*
X183446552Y-106040951D01*
X183446552Y-103960951D02*
X183446552Y-102710951D01*
X183406552Y-107268951D02*
X183406552Y-106040951D01*
X183406552Y-103960951D02*
X183406552Y-102732951D01*
X183366552Y-107247951D02*
X183366552Y-106040951D01*
X183366552Y-103960951D02*
X183366552Y-102753951D01*
X183326552Y-107224951D02*
X183326552Y-106040951D01*
X183326552Y-103960951D02*
X183326552Y-102776951D01*
X183286552Y-107200951D02*
X183286552Y-106040951D01*
X183286552Y-103960951D02*
X183286552Y-102800951D01*
X183246552Y-107175951D02*
X183246552Y-106040951D01*
X183246552Y-103960951D02*
X183246552Y-102825951D01*
X183206552Y-107149951D02*
X183206552Y-106040951D01*
X183206552Y-103960951D02*
X183206552Y-102851951D01*
X183166552Y-107122951D02*
X183166552Y-106040951D01*
X183166552Y-103960951D02*
X183166552Y-102878951D01*
X183126552Y-107095951D02*
X183126552Y-106040951D01*
X183126552Y-103960951D02*
X183126552Y-102905951D01*
X183086552Y-107065951D02*
X183086552Y-106040951D01*
X183086552Y-103960951D02*
X183086552Y-102935951D01*
X183046552Y-107035951D02*
X183046552Y-106040951D01*
X183046552Y-103960951D02*
X183046552Y-102965951D01*
X183006552Y-107004951D02*
X183006552Y-106040951D01*
X183006552Y-103960951D02*
X183006552Y-102996951D01*
X182966552Y-106971951D02*
X182966552Y-106040951D01*
X182966552Y-103960951D02*
X182966552Y-103029951D01*
X182926552Y-106937951D02*
X182926552Y-106040951D01*
X182926552Y-103960951D02*
X182926552Y-103063951D01*
X182886552Y-106901951D02*
X182886552Y-106040951D01*
X182886552Y-103960951D02*
X182886552Y-103099951D01*
X182846552Y-106864951D02*
X182846552Y-106040951D01*
X182846552Y-103960951D02*
X182846552Y-103136951D01*
X182806552Y-106826951D02*
X182806552Y-106040951D01*
X182806552Y-103960951D02*
X182806552Y-103174951D01*
X182766552Y-106785951D02*
X182766552Y-106040951D01*
X182766552Y-103960951D02*
X182766552Y-103215951D01*
X182726552Y-106743951D02*
X182726552Y-106040951D01*
X182726552Y-103960951D02*
X182726552Y-103257951D01*
X182686552Y-106699951D02*
X182686552Y-106040951D01*
X182686552Y-103960951D02*
X182686552Y-103301951D01*
X182646552Y-106653951D02*
X182646552Y-106040951D01*
X182646552Y-103960951D02*
X182646552Y-103347951D01*
X182606552Y-106605951D02*
X182606552Y-106040951D01*
X182606552Y-103960951D02*
X182606552Y-103395951D01*
X182566552Y-106554951D02*
X182566552Y-106040951D01*
X182566552Y-103960951D02*
X182566552Y-103446951D01*
X182526552Y-106500951D02*
X182526552Y-106040951D01*
X182526552Y-103960951D02*
X182526552Y-103500951D01*
X182486552Y-106443951D02*
X182486552Y-106040951D01*
X182486552Y-103960951D02*
X182486552Y-103557951D01*
X182446552Y-106383951D02*
X182446552Y-106040951D01*
X182446552Y-103960951D02*
X182446552Y-103617951D01*
X182406552Y-106319951D02*
X182406552Y-106040951D01*
X182406552Y-103960951D02*
X182406552Y-103681951D01*
X182366552Y-106251951D02*
X182366552Y-106040951D01*
X182366552Y-103960951D02*
X182366552Y-103749951D01*
X182326552Y-106178951D02*
X182326552Y-103822951D01*
X182286552Y-106098951D02*
X182286552Y-103902951D01*
X182246552Y-106011951D02*
X182246552Y-103989951D01*
X182206552Y-105915951D02*
X182206552Y-104085951D01*
X182166552Y-105805951D02*
X182166552Y-104195951D01*
X182126552Y-105677951D02*
X182126552Y-104323951D01*
X182086552Y-105518951D02*
X182086552Y-104482951D01*
X182046552Y-105284951D02*
X182046552Y-104716951D01*
X187267552Y-105000951D02*
G75*
G03*
X187267552Y-105000951I-2620000J0D01*
G01*
%TO.C,C5*%
X181697728Y-110049040D02*
X182497728Y-110049040D01*
X182097728Y-109649040D02*
X182097728Y-110449040D01*
X186107426Y-108284040D02*
X186107426Y-116444040D01*
X186147426Y-108284040D02*
X186147426Y-116444040D01*
X186187426Y-108284040D02*
X186187426Y-116444040D01*
X186227426Y-108285040D02*
X186227426Y-116443040D01*
X186267426Y-108287040D02*
X186267426Y-116441040D01*
X186307426Y-108288040D02*
X186307426Y-116440040D01*
X186347426Y-108290040D02*
X186347426Y-116438040D01*
X186387426Y-108293040D02*
X186387426Y-116435040D01*
X186427426Y-108296040D02*
X186427426Y-116432040D01*
X186467426Y-108299040D02*
X186467426Y-116429040D01*
X186507426Y-108303040D02*
X186507426Y-116425040D01*
X186547426Y-108307040D02*
X186547426Y-116421040D01*
X186587426Y-108312040D02*
X186587426Y-116416040D01*
X186627426Y-108316040D02*
X186627426Y-116412040D01*
X186667426Y-108322040D02*
X186667426Y-116406040D01*
X186707426Y-108327040D02*
X186707426Y-116401040D01*
X186747426Y-108334040D02*
X186747426Y-116394040D01*
X186787426Y-108340040D02*
X186787426Y-116388040D01*
X186828426Y-108347040D02*
X186828426Y-116381040D01*
X186868426Y-108354040D02*
X186868426Y-116374040D01*
X186908426Y-108362040D02*
X186908426Y-116366040D01*
X186948426Y-108370040D02*
X186948426Y-116358040D01*
X186988426Y-108379040D02*
X186988426Y-116349040D01*
X187028426Y-108388040D02*
X187028426Y-116340040D01*
X187068426Y-108397040D02*
X187068426Y-116331040D01*
X187108426Y-108407040D02*
X187108426Y-116321040D01*
X187148426Y-108417040D02*
X187148426Y-116311040D01*
X187188426Y-108428040D02*
X187188426Y-116300040D01*
X187228426Y-108439040D02*
X187228426Y-116289040D01*
X187268426Y-108450040D02*
X187268426Y-116278040D01*
X187308426Y-108462040D02*
X187308426Y-116266040D01*
X187348426Y-108475040D02*
X187348426Y-116253040D01*
X187388426Y-108487040D02*
X187388426Y-116241040D01*
X187428426Y-108501040D02*
X187428426Y-116227040D01*
X187468426Y-108514040D02*
X187468426Y-116214040D01*
X187508426Y-108529040D02*
X187508426Y-116199040D01*
X187548426Y-108543040D02*
X187548426Y-116185040D01*
X187588426Y-108559040D02*
X187588426Y-111324040D01*
X187588426Y-113404040D02*
X187588426Y-116169040D01*
X187628426Y-108574040D02*
X187628426Y-111324040D01*
X187628426Y-113404040D02*
X187628426Y-116154040D01*
X187668426Y-108590040D02*
X187668426Y-111324040D01*
X187668426Y-113404040D02*
X187668426Y-116138040D01*
X187708426Y-108607040D02*
X187708426Y-111324040D01*
X187708426Y-113404040D02*
X187708426Y-116121040D01*
X187748426Y-108624040D02*
X187748426Y-111324040D01*
X187748426Y-113404040D02*
X187748426Y-116104040D01*
X187788426Y-108642040D02*
X187788426Y-111324040D01*
X187788426Y-113404040D02*
X187788426Y-116086040D01*
X187828426Y-108660040D02*
X187828426Y-111324040D01*
X187828426Y-113404040D02*
X187828426Y-116068040D01*
X187868426Y-108678040D02*
X187868426Y-111324040D01*
X187868426Y-113404040D02*
X187868426Y-116050040D01*
X187908426Y-108698040D02*
X187908426Y-111324040D01*
X187908426Y-113404040D02*
X187908426Y-116030040D01*
X187948426Y-108717040D02*
X187948426Y-111324040D01*
X187948426Y-113404040D02*
X187948426Y-116011040D01*
X187988426Y-108737040D02*
X187988426Y-111324040D01*
X187988426Y-113404040D02*
X187988426Y-115991040D01*
X188028426Y-108758040D02*
X188028426Y-111324040D01*
X188028426Y-113404040D02*
X188028426Y-115970040D01*
X188068426Y-108780040D02*
X188068426Y-111324040D01*
X188068426Y-113404040D02*
X188068426Y-115948040D01*
X188108426Y-108802040D02*
X188108426Y-111324040D01*
X188108426Y-113404040D02*
X188108426Y-115926040D01*
X188148426Y-108824040D02*
X188148426Y-111324040D01*
X188148426Y-113404040D02*
X188148426Y-115904040D01*
X188188426Y-108847040D02*
X188188426Y-111324040D01*
X188188426Y-113404040D02*
X188188426Y-115881040D01*
X188228426Y-108871040D02*
X188228426Y-111324040D01*
X188228426Y-113404040D02*
X188228426Y-115857040D01*
X188268426Y-108895040D02*
X188268426Y-111324040D01*
X188268426Y-113404040D02*
X188268426Y-115833040D01*
X188308426Y-108920040D02*
X188308426Y-111324040D01*
X188308426Y-113404040D02*
X188308426Y-115808040D01*
X188348426Y-108946040D02*
X188348426Y-111324040D01*
X188348426Y-113404040D02*
X188348426Y-115782040D01*
X188388426Y-108972040D02*
X188388426Y-111324040D01*
X188388426Y-113404040D02*
X188388426Y-115756040D01*
X188428426Y-108999040D02*
X188428426Y-111324040D01*
X188428426Y-113404040D02*
X188428426Y-115729040D01*
X188468426Y-109026040D02*
X188468426Y-111324040D01*
X188468426Y-113404040D02*
X188468426Y-115702040D01*
X188508426Y-109055040D02*
X188508426Y-111324040D01*
X188508426Y-113404040D02*
X188508426Y-115673040D01*
X188548426Y-109084040D02*
X188548426Y-111324040D01*
X188548426Y-113404040D02*
X188548426Y-115644040D01*
X188588426Y-109114040D02*
X188588426Y-111324040D01*
X188588426Y-113404040D02*
X188588426Y-115614040D01*
X188628426Y-109144040D02*
X188628426Y-111324040D01*
X188628426Y-113404040D02*
X188628426Y-115584040D01*
X188668426Y-109175040D02*
X188668426Y-111324040D01*
X188668426Y-113404040D02*
X188668426Y-115553040D01*
X188708426Y-109208040D02*
X188708426Y-111324040D01*
X188708426Y-113404040D02*
X188708426Y-115520040D01*
X188748426Y-109240040D02*
X188748426Y-111324040D01*
X188748426Y-113404040D02*
X188748426Y-115488040D01*
X188788426Y-109274040D02*
X188788426Y-111324040D01*
X188788426Y-113404040D02*
X188788426Y-115454040D01*
X188828426Y-109309040D02*
X188828426Y-111324040D01*
X188828426Y-113404040D02*
X188828426Y-115419040D01*
X188868426Y-109345040D02*
X188868426Y-111324040D01*
X188868426Y-113404040D02*
X188868426Y-115383040D01*
X188908426Y-109381040D02*
X188908426Y-111324040D01*
X188908426Y-113404040D02*
X188908426Y-115347040D01*
X188948426Y-109419040D02*
X188948426Y-111324040D01*
X188948426Y-113404040D02*
X188948426Y-115309040D01*
X188988426Y-109457040D02*
X188988426Y-111324040D01*
X188988426Y-113404040D02*
X188988426Y-115271040D01*
X189028426Y-109497040D02*
X189028426Y-111324040D01*
X189028426Y-113404040D02*
X189028426Y-115231040D01*
X189068426Y-109538040D02*
X189068426Y-111324040D01*
X189068426Y-113404040D02*
X189068426Y-115190040D01*
X189108426Y-109580040D02*
X189108426Y-111324040D01*
X189108426Y-113404040D02*
X189108426Y-115148040D01*
X189148426Y-109623040D02*
X189148426Y-111324040D01*
X189148426Y-113404040D02*
X189148426Y-115105040D01*
X189188426Y-109667040D02*
X189188426Y-111324040D01*
X189188426Y-113404040D02*
X189188426Y-115061040D01*
X189228426Y-109713040D02*
X189228426Y-111324040D01*
X189228426Y-113404040D02*
X189228426Y-115015040D01*
X189268426Y-109760040D02*
X189268426Y-111324040D01*
X189268426Y-113404040D02*
X189268426Y-114968040D01*
X189308426Y-109808040D02*
X189308426Y-111324040D01*
X189308426Y-113404040D02*
X189308426Y-114920040D01*
X189348426Y-109859040D02*
X189348426Y-111324040D01*
X189348426Y-113404040D02*
X189348426Y-114869040D01*
X189388426Y-109910040D02*
X189388426Y-111324040D01*
X189388426Y-113404040D02*
X189388426Y-114818040D01*
X189428426Y-109964040D02*
X189428426Y-111324040D01*
X189428426Y-113404040D02*
X189428426Y-114764040D01*
X189468426Y-110019040D02*
X189468426Y-111324040D01*
X189468426Y-113404040D02*
X189468426Y-114709040D01*
X189508426Y-110077040D02*
X189508426Y-111324040D01*
X189508426Y-113404040D02*
X189508426Y-114651040D01*
X189548426Y-110136040D02*
X189548426Y-111324040D01*
X189548426Y-113404040D02*
X189548426Y-114592040D01*
X189588426Y-110198040D02*
X189588426Y-111324040D01*
X189588426Y-113404040D02*
X189588426Y-114530040D01*
X189628426Y-110262040D02*
X189628426Y-111324040D01*
X189628426Y-113404040D02*
X189628426Y-114466040D01*
X189668426Y-110330040D02*
X189668426Y-114398040D01*
X189708426Y-110400040D02*
X189708426Y-114328040D01*
X189748426Y-110474040D02*
X189748426Y-114254040D01*
X189788426Y-110551040D02*
X189788426Y-114177040D01*
X189828426Y-110633040D02*
X189828426Y-114095040D01*
X189868426Y-110719040D02*
X189868426Y-114009040D01*
X189908426Y-110812040D02*
X189908426Y-113916040D01*
X189948426Y-110911040D02*
X189948426Y-113817040D01*
X189988426Y-111018040D02*
X189988426Y-113710040D01*
X190028426Y-111135040D02*
X190028426Y-113593040D01*
X190068426Y-111266040D02*
X190068426Y-113462040D01*
X190108426Y-111416040D02*
X190108426Y-113312040D01*
X190148426Y-111596040D02*
X190148426Y-113132040D01*
X190188426Y-111831040D02*
X190188426Y-112897040D01*
X190227426Y-112364040D02*
G75*
G03*
X190227426Y-112364040I-4120000J0D01*
G01*
D13*
%TO.C,L2*%
X173120134Y-107714546D02*
X180120134Y-107714546D01*
X180120134Y-114714546D02*
X173120134Y-114714546D01*
D14*
X171845134Y-111214546D02*
G75*
G03*
X171845134Y-111214546I-50000J0D01*
G01*
D12*
%TO.C,RV2*%
X184976271Y-94390448D02*
X190046271Y-94390448D01*
X184976271Y-94390448D02*
X184976271Y-84620448D01*
X190046271Y-94390448D02*
X190046271Y-84620448D01*
X184976271Y-84620448D02*
X190046271Y-84620448D01*
D13*
%TO.C,IC1*%
X173990000Y-100840000D02*
X173990000Y-100840000D01*
X173990000Y-100940000D02*
X173990000Y-100940000D01*
X173990000Y-100940000D02*
G75*
G03*
X173990000Y-100840000I0J50000D01*
G01*
X173990000Y-100840000D02*
G75*
G03*
X173990000Y-100940000I0J-50000D01*
G01*
%TD*%
M02*
