%TF.GenerationSoftware,KiCad,Pcbnew,7.0.1*%
%TF.CreationDate,2023-06-01T20:44:38-07:00*%
%TF.ProjectId,LM2670SX-Carrier-SMD-inductor-ADJ,4c4d3236-3730-4535-982d-436172726965,rev?*%
%TF.SameCoordinates,Original*%
%TF.FileFunction,Copper,L1,Top*%
%TF.FilePolarity,Positive*%
%FSLAX46Y46*%
G04 Gerber Fmt 4.6, Leading zero omitted, Abs format (unit mm)*
G04 Created by KiCad (PCBNEW 7.0.1) date 2023-06-01 20:44:38*
%MOMM*%
%LPD*%
G01*
G04 APERTURE LIST*
%TA.AperFunction,ComponentPad*%
%ADD10R,1.700000X1.700000*%
%TD*%
%TA.AperFunction,ComponentPad*%
%ADD11O,1.700000X1.700000*%
%TD*%
%TA.AperFunction,ComponentPad*%
%ADD12R,1.600000X1.600000*%
%TD*%
%TA.AperFunction,ComponentPad*%
%ADD13C,1.600000*%
%TD*%
%TA.AperFunction,SMDPad,CuDef*%
%ADD14R,2.850000X3.300000*%
%TD*%
%TA.AperFunction,ComponentPad*%
%ADD15C,1.440000*%
%TD*%
%TA.AperFunction,SMDPad,CuDef*%
%ADD16R,0.910000X2.160000*%
%TD*%
%TA.AperFunction,SMDPad,CuDef*%
%ADD17R,10.800000X10.410000*%
%TD*%
%TA.AperFunction,ViaPad*%
%ADD18C,0.800000*%
%TD*%
%TA.AperFunction,Conductor*%
%ADD19C,0.889000*%
%TD*%
%TA.AperFunction,Conductor*%
%ADD20C,0.635000*%
%TD*%
%TA.AperFunction,Conductor*%
%ADD21C,0.508000*%
%TD*%
G04 APERTURE END LIST*
D10*
%TO.P,J1,1,Pin_1*%
%TO.N,+VDC*%
X188747700Y-101470200D03*
D11*
%TO.P,J1,2,Pin_2*%
%TO.N,Net-(J1-Pin_2)*%
X188747700Y-98930200D03*
%TO.P,J1,3,Pin_3*%
%TO.N,GND*%
X188747700Y-96390200D03*
%TD*%
D12*
%TO.P,C2,1*%
%TO.N,+VDC*%
X179156213Y-102879759D03*
D13*
%TO.P,C2,2*%
%TO.N,GND*%
X179156213Y-105379759D03*
%TD*%
D12*
%TO.P,C1,1*%
%TO.N,+VDC*%
X185897552Y-105000951D03*
D13*
%TO.P,C1,2*%
%TO.N,GND*%
X183397552Y-105000951D03*
%TD*%
D12*
%TO.P,C5,1*%
%TO.N,Net-(J1-Pin_2)*%
X183607426Y-112364040D03*
D13*
%TO.P,C5,2*%
%TO.N,GND*%
X188607426Y-112364040D03*
%TD*%
D14*
%TO.P,L2,1*%
%TO.N,Net-(IC1-SWITCH_OUTPUT)*%
X173645134Y-111214546D03*
%TO.P,L2,2*%
%TO.N,Net-(J1-Pin_2)*%
X179595134Y-111214546D03*
%TD*%
D15*
%TO.P,RV2,1,1*%
%TO.N,Net-(R1-Pad2)*%
X187506271Y-86965448D03*
%TO.P,RV2,2,2*%
%TO.N,Net-(IC1-FEEDBACK{slash}FB)*%
X187506271Y-89505448D03*
%TO.P,RV2,3,3*%
%TO.N,Net-(J1-Pin_2)*%
X187506271Y-92045448D03*
%TD*%
D16*
%TO.P,IC1,1,SWITCH_OUTPUT*%
%TO.N,Net-(IC1-SWITCH_OUTPUT)*%
X173990000Y-99210000D03*
%TO.P,IC1,2,INPUT*%
%TO.N,+VDC*%
X175260000Y-99210000D03*
%TO.P,IC1,3,CBOOST/CB*%
%TO.N,Net-(IC1-CBOOST{slash}CB)*%
X176530000Y-99210000D03*
%TO.P,IC1,4,GND*%
%TO.N,GND*%
X177800000Y-99210000D03*
%TO.P,IC1,5,SYNC*%
%TO.N,unconnected-(IC1-SYNC-Pad5)*%
X179070000Y-99210000D03*
%TO.P,IC1,6,FEEDBACK/FB*%
%TO.N,Net-(IC1-FEEDBACK{slash}FB)*%
X180340000Y-99210000D03*
%TO.P,IC1,7,ON/~{OFF}*%
%TO.N,unconnected-(IC1-ON{slash}~{OFF}-Pad7)*%
X181610000Y-99210000D03*
D17*
%TO.P,IC1,8,EP*%
%TO.N,GND*%
X177800000Y-90890000D03*
%TD*%
D18*
%TO.N,GND*%
X180433516Y-96388481D03*
%TO.N,Net-(IC1-SWITCH_OUTPUT)*%
X172024972Y-102967844D03*
%TO.N,+VDC*%
X172100988Y-98684801D03*
%TO.N,Net-(IC1-CBOOST{slash}CB)*%
X176530000Y-99210000D03*
%TO.N,Net-(IC1-SWITCH_OUTPUT)*%
X173990000Y-99210000D03*
%TD*%
D19*
%TO.N,GND*%
X183397552Y-107154166D02*
X183397552Y-105000951D01*
X188607426Y-112364040D02*
X183397552Y-107154166D01*
X180433516Y-96388481D02*
X180433516Y-93523516D01*
D20*
%TO.N,Net-(J1-Pin_2)*%
X187380200Y-97562700D02*
X188747700Y-98930200D01*
X187380200Y-92171519D02*
X187380200Y-97562700D01*
%TO.N,Net-(IC1-FEEDBACK{slash}FB)*%
X186268771Y-93762760D02*
X186268771Y-90742948D01*
X182419031Y-97612500D02*
X186268771Y-93762760D01*
X186268771Y-90742948D02*
X187506271Y-89505448D01*
X180637500Y-97612500D02*
X182419031Y-97612500D01*
X180340000Y-97910000D02*
X180637500Y-97612500D01*
X180340000Y-99210000D02*
X180340000Y-97910000D01*
%TO.N,+VDC*%
X176835965Y-102879759D02*
X179156213Y-102879759D01*
X175260000Y-101303794D02*
X176835965Y-102879759D01*
X175260000Y-99210000D02*
X175260000Y-101303794D01*
X185897552Y-104320348D02*
X188747700Y-101470200D01*
X185897552Y-105000951D02*
X185897552Y-104320348D01*
%TO.N,Net-(IC1-SWITCH_OUTPUT)*%
X173990000Y-102426965D02*
X173990000Y-99210000D01*
X173990756Y-102427721D02*
X173990000Y-102426965D01*
X173450633Y-102967844D02*
X173990756Y-102427721D01*
X172024972Y-102967844D02*
X173450633Y-102967844D01*
X173645134Y-104588006D02*
X173645134Y-111214546D01*
X172024972Y-102967844D02*
X173645134Y-104588006D01*
%TO.N,Net-(J1-Pin_2)*%
X182457932Y-111214546D02*
X183607426Y-112364040D01*
X179595134Y-111214546D02*
X182457932Y-111214546D01*
D21*
%TO.N,+VDC*%
X174899000Y-97676000D02*
X173109789Y-97676000D01*
X175260000Y-99210000D02*
X175260000Y-98037000D01*
X175260000Y-98037000D02*
X174899000Y-97676000D01*
X173109789Y-97676000D02*
X172100988Y-98684801D01*
D19*
%TO.N,GND*%
X177800000Y-99210000D02*
X177800000Y-90890000D01*
%TD*%
M02*
