%TF.GenerationSoftware,KiCad,Pcbnew,8.0.1-rc1*%
%TF.CreationDate,2024-10-01T13:14:16-07:00*%
%TF.ProjectId,LM2670-ADJ-Carrier-Set-SMD,4c4d3236-3730-42d4-9144-4a2d43617272,rev?*%
%TF.SameCoordinates,Original*%
%TF.FileFunction,Copper,L1,Top*%
%TF.FilePolarity,Positive*%
%FSLAX46Y46*%
G04 Gerber Fmt 4.6, Leading zero omitted, Abs format (unit mm)*
G04 Created by KiCad (PCBNEW 8.0.1-rc1) date 2024-10-01 13:14:16*
%MOMM*%
%LPD*%
G01*
G04 APERTURE LIST*
%TA.AperFunction,SMDPad,CuDef*%
%ADD10R,2.850000X3.300000*%
%TD*%
%TA.AperFunction,ComponentPad*%
%ADD11R,1.700000X1.700000*%
%TD*%
%TA.AperFunction,ComponentPad*%
%ADD12O,1.700000X1.700000*%
%TD*%
%TA.AperFunction,ComponentPad*%
%ADD13R,1.600000X1.600000*%
%TD*%
%TA.AperFunction,ComponentPad*%
%ADD14C,1.600000*%
%TD*%
%TA.AperFunction,SMDPad,CuDef*%
%ADD15R,0.910000X2.160000*%
%TD*%
%TA.AperFunction,SMDPad,CuDef*%
%ADD16R,10.800000X10.410000*%
%TD*%
%TA.AperFunction,ViaPad*%
%ADD17C,0.800000*%
%TD*%
%TA.AperFunction,Conductor*%
%ADD18C,0.762000*%
%TD*%
G04 APERTURE END LIST*
D10*
%TO.P,L1,1*%
%TO.N,Net-(IC1-SWITCH_OUTPUT)*%
X146853314Y-112641863D03*
%TO.P,L1,2*%
%TO.N,Net-(J1-Pin_2)*%
X152803314Y-112641863D03*
%TD*%
D11*
%TO.P,J1,1,Pin_1*%
%TO.N,+VDC*%
X153109449Y-101617000D03*
D12*
%TO.P,J1,2,Pin_2*%
%TO.N,Net-(J1-Pin_2)*%
X153109449Y-99077000D03*
%TO.P,J1,3,Pin_3*%
%TO.N,GND*%
X153109449Y-96537000D03*
%TD*%
D13*
%TO.P,C5,1*%
%TO.N,Net-(J1-Pin_2)*%
X138049386Y-107482969D03*
D14*
%TO.P,C5,2*%
%TO.N,GND*%
X143049386Y-107482969D03*
%TD*%
D13*
%TO.P,C2,1*%
%TO.N,+VDC*%
X148158263Y-103439855D03*
D14*
%TO.P,C2,2*%
%TO.N,GND*%
X148158263Y-105939855D03*
%TD*%
D13*
%TO.P,C1,1*%
%TO.N,+VDC*%
X153150694Y-89852484D03*
D14*
%TO.P,C1,2*%
%TO.N,GND*%
X150650694Y-89852484D03*
%TD*%
D15*
%TO.P,IC1,1,SWITCH_OUTPUT*%
%TO.N,Net-(IC1-SWITCH_OUTPUT)*%
X138351749Y-99356800D03*
%TO.P,IC1,2,INPUT*%
%TO.N,+VDC*%
X139621749Y-99356800D03*
%TO.P,IC1,3,CBOOST/CB*%
%TO.N,Net-(IC1-CBOOST{slash}CB)*%
X140891749Y-99356800D03*
%TO.P,IC1,4,GND*%
%TO.N,GND*%
X142161749Y-99356800D03*
%TO.P,IC1,5,SYNC*%
%TO.N,unconnected-(IC1-SYNC-Pad5)*%
X143431749Y-99356800D03*
%TO.P,IC1,6,FEEDBACK/FB*%
%TO.N,Net-(IC1-FEEDBACK{slash}FB)*%
X144701749Y-99356800D03*
%TO.P,IC1,7,ON/~{OFF}*%
%TO.N,unconnected-(IC1-ON{slash}~{OFF}-Pad7)*%
X145971749Y-99356800D03*
D16*
%TO.P,IC1,8,EP*%
%TO.N,GND*%
X142161749Y-91036800D03*
%TD*%
D17*
%TO.N,Net-(IC1-SWITCH_OUTPUT)*%
X146092143Y-103476173D03*
%TO.N,GND*%
X142198017Y-99398795D03*
X146294332Y-89975243D03*
%TO.N,+VDC*%
X139621749Y-99356800D03*
%TO.N,GND*%
X141763067Y-103490944D03*
%TO.N,Net-(IC1-CBOOST{slash}CB)*%
X140905938Y-99349110D03*
%TO.N,Net-(IC1-SWITCH_OUTPUT)*%
X138351749Y-99356800D03*
%TO.N,Net-(IC1-FEEDBACK{slash}FB)*%
X144692395Y-99316770D03*
%TD*%
D18*
%TO.N,+VDC*%
X149981118Y-97053325D02*
X149981118Y-101617000D01*
X153150694Y-93883749D02*
X149981118Y-97053325D01*
X153150694Y-89852484D02*
X153150694Y-93883749D01*
%TO.N,Net-(IC1-SWITCH_OUTPUT)*%
X137542054Y-102061496D02*
X144677466Y-102061496D01*
X137542054Y-102061496D02*
X138351749Y-101251800D01*
X136571683Y-103031866D02*
X137542054Y-102061496D01*
X144677466Y-102061496D02*
X146092143Y-103476173D01*
%TO.N,GND*%
X141763067Y-106196650D02*
X143049386Y-107482969D01*
X141763067Y-103490944D02*
X141763067Y-106196650D01*
%TO.N,+VDC*%
X153109449Y-101617000D02*
X149981118Y-101617000D01*
X149981118Y-101617000D02*
X148158263Y-103439855D01*
%TO.N,GND*%
X143049386Y-107482969D02*
X146615149Y-107482969D01*
X142161749Y-99301423D02*
X142161749Y-91036800D01*
X146615149Y-107482969D02*
X148158263Y-105939855D01*
%TO.N,Net-(IC1-SWITCH_OUTPUT)*%
X136571683Y-111738167D02*
X136571683Y-103031866D01*
X138351749Y-101251800D02*
X138351749Y-99356800D01*
X137475379Y-112641863D02*
X146853314Y-112641863D01*
X136571683Y-111738167D02*
X137475379Y-112641863D01*
%TO.N,Net-(J1-Pin_2)*%
X139430386Y-108863969D02*
X149025420Y-108863969D01*
X138049386Y-107482969D02*
X139430386Y-108863969D01*
X149025420Y-108863969D02*
X152803314Y-112641863D01*
%TD*%
M02*
