%TF.GenerationSoftware,KiCad,Pcbnew,8.0.1-rc1*%
%TF.CreationDate,2024-10-01T19:15:30-07:00*%
%TF.ProjectId,LM2670SX-Carrier-SMD-inductor,4c4d3236-3730-4535-982d-436172726965,rev?*%
%TF.SameCoordinates,Original*%
%TF.FileFunction,Copper,L1,Top*%
%TF.FilePolarity,Positive*%
%FSLAX46Y46*%
G04 Gerber Fmt 4.6, Leading zero omitted, Abs format (unit mm)*
G04 Created by KiCad (PCBNEW 8.0.1-rc1) date 2024-10-01 19:15:30*
%MOMM*%
%LPD*%
G01*
G04 APERTURE LIST*
%TA.AperFunction,SMDPad,CuDef*%
%ADD10R,2.850000X3.300000*%
%TD*%
%TA.AperFunction,ComponentPad*%
%ADD11R,1.700000X1.700000*%
%TD*%
%TA.AperFunction,ComponentPad*%
%ADD12O,1.700000X1.700000*%
%TD*%
%TA.AperFunction,ComponentPad*%
%ADD13R,1.600000X1.600000*%
%TD*%
%TA.AperFunction,ComponentPad*%
%ADD14C,1.600000*%
%TD*%
%TA.AperFunction,SMDPad,CuDef*%
%ADD15R,0.910000X2.160000*%
%TD*%
%TA.AperFunction,SMDPad,CuDef*%
%ADD16R,10.800000X10.410000*%
%TD*%
%TA.AperFunction,ViaPad*%
%ADD17C,0.800000*%
%TD*%
%TA.AperFunction,Conductor*%
%ADD18C,0.508000*%
%TD*%
%TA.AperFunction,Conductor*%
%ADD19C,0.635000*%
%TD*%
%TA.AperFunction,Conductor*%
%ADD20C,0.762000*%
%TD*%
%TA.AperFunction,Conductor*%
%ADD21C,1.778000*%
%TD*%
%TA.AperFunction,Conductor*%
%ADD22C,0.889000*%
%TD*%
%TA.AperFunction,Conductor*%
%ADD23C,1.016000*%
%TD*%
G04 APERTURE END LIST*
D10*
%TO.P,L2,1*%
%TO.N,Net-(IC1-SWITCH_OUTPUT)*%
X173586822Y-110983767D03*
%TO.P,L2,2*%
%TO.N,+3V3*%
X179536822Y-110983767D03*
%TD*%
D11*
%TO.P,J1,1,Pin_1*%
%TO.N,+VDC*%
X188747700Y-101470200D03*
D12*
%TO.P,J1,2,Pin_2*%
%TO.N,+3V3*%
X188747700Y-98930200D03*
%TO.P,J1,3,Pin_3*%
%TO.N,GND*%
X188747700Y-96390200D03*
%TD*%
D13*
%TO.P,C2,1*%
%TO.N,+VDC*%
X183049019Y-103113785D03*
D14*
%TO.P,C2,2*%
%TO.N,GND*%
X183049019Y-105613785D03*
%TD*%
D13*
%TO.P,C1,1*%
%TO.N,+VDC*%
X188788945Y-89705684D03*
D14*
%TO.P,C1,2*%
%TO.N,GND*%
X186288945Y-89705684D03*
%TD*%
D13*
%TO.P,C5,1*%
%TO.N,+3V3*%
X183607426Y-112364040D03*
D14*
%TO.P,C5,2*%
%TO.N,GND*%
X188607426Y-112364040D03*
%TD*%
D15*
%TO.P,IC1,1,SWITCH_OUTPUT*%
%TO.N,Net-(IC1-SWITCH_OUTPUT)*%
X173990000Y-99210000D03*
%TO.P,IC1,2,INPUT*%
%TO.N,+VDC*%
X175260000Y-99210000D03*
%TO.P,IC1,3,CBOOST/CB*%
%TO.N,Net-(IC1-CBOOST{slash}CB)*%
X176530000Y-99210000D03*
%TO.P,IC1,4,GND*%
%TO.N,GND*%
X177800000Y-99210000D03*
%TO.P,IC1,5,SYNC*%
%TO.N,Net-(IC1-SYNC)*%
X179070000Y-99210000D03*
%TO.P,IC1,6,FEEDBACK/FB*%
%TO.N,+3V3*%
X180340000Y-99210000D03*
%TO.P,IC1,7,ON/~{OFF}*%
%TO.N,unconnected-(IC1-ON{slash}~{OFF}-Pad7)*%
X181610000Y-99210000D03*
D16*
%TO.P,IC1,8,EP*%
%TO.N,GND*%
X177800000Y-90890000D03*
%TD*%
D17*
%TO.N,GND*%
X178675492Y-92784981D03*
%TO.N,+VDC*%
X173796818Y-104170090D03*
%TO.N,GND*%
X177800000Y-99210000D03*
%TO.N,Net-(IC1-CBOOST{slash}CB)*%
X176530000Y-99210000D03*
%TO.N,Net-(IC1-SWITCH_OUTPUT)*%
X176374583Y-103326798D03*
X173990000Y-99210000D03*
%TO.N,Net-(IC1-SYNC)*%
X179070000Y-99210000D03*
%TD*%
D18*
%TO.N,+VDC*%
X175260000Y-97124712D02*
X175260000Y-99210000D01*
X171995785Y-102369057D02*
X171995785Y-97124712D01*
X173796818Y-104170090D02*
X171995785Y-102369057D01*
X171995785Y-97124712D02*
X175260000Y-97124712D01*
D19*
X177944056Y-103113785D02*
X183049019Y-103113785D01*
X175260000Y-100429729D02*
X177944056Y-103113785D01*
X175260000Y-99210000D02*
X175260000Y-100429729D01*
D20*
%TO.N,Net-(IC1-SWITCH_OUTPUT)*%
X176387413Y-108183176D02*
X173586822Y-110983767D01*
X176374583Y-103326798D02*
X176387413Y-103339628D01*
X176387413Y-103339628D02*
X176387413Y-108183176D01*
X173990000Y-100942215D02*
X173990000Y-99210000D01*
X176374583Y-103326798D02*
X173990000Y-100942215D01*
D19*
%TO.N,+VDC*%
X187104115Y-103113785D02*
X188747700Y-101470200D01*
X183049019Y-103113785D02*
X187104115Y-103113785D01*
D21*
%TO.N,GND*%
X186288945Y-89705684D02*
X186288945Y-93931445D01*
D20*
X188607426Y-111172192D02*
X183049019Y-105613785D01*
D22*
X177800000Y-99210000D02*
X177800000Y-90890000D01*
D20*
X188607426Y-112364040D02*
X188607426Y-111172192D01*
D21*
X186288945Y-93931445D02*
X180841445Y-93931445D01*
X186288945Y-93931445D02*
X188747700Y-96390200D01*
D20*
%TO.N,+3V3*%
X182227153Y-110983767D02*
X183607426Y-112364040D01*
X179536822Y-110983767D02*
X182227153Y-110983767D01*
D23*
X180340000Y-97529000D02*
X180447000Y-97422000D01*
X180340000Y-99210000D02*
X180340000Y-97529000D01*
X180447000Y-97422000D02*
X187239500Y-97422000D01*
X187239500Y-97422000D02*
X188747700Y-98930200D01*
%TD*%
M02*
