%TF.GenerationSoftware,KiCad,Pcbnew,8.0.1-rc1*%
%TF.CreationDate,2024-10-01T19:15:30-07:00*%
%TF.ProjectId,LM2670SX-Carrier-SMD-inductor,4c4d3236-3730-4535-982d-436172726965,rev?*%
%TF.SameCoordinates,Original*%
%TF.FileFunction,Legend,Bot*%
%TF.FilePolarity,Positive*%
%FSLAX46Y46*%
G04 Gerber Fmt 4.6, Leading zero omitted, Abs format (unit mm)*
G04 Created by KiCad (PCBNEW 8.0.1-rc1) date 2024-10-01 19:15:30*
%MOMM*%
%LPD*%
G01*
G04 APERTURE LIST*
G04 Aperture macros list*
%AMRoundRect*
0 Rectangle with rounded corners*
0 $1 Rounding radius*
0 $2 $3 $4 $5 $6 $7 $8 $9 X,Y pos of 4 corners*
0 Add a 4 corners polygon primitive as box body*
4,1,4,$2,$3,$4,$5,$6,$7,$8,$9,$2,$3,0*
0 Add four circle primitives for the rounded corners*
1,1,$1+$1,$2,$3*
1,1,$1+$1,$4,$5*
1,1,$1+$1,$6,$7*
1,1,$1+$1,$8,$9*
0 Add four rect primitives between the rounded corners*
20,1,$1+$1,$2,$3,$4,$5,0*
20,1,$1+$1,$4,$5,$6,$7,0*
20,1,$1+$1,$6,$7,$8,$9,0*
20,1,$1+$1,$8,$9,$2,$3,0*%
G04 Aperture macros list end*
%ADD10C,0.150000*%
%ADD11C,0.254000*%
%ADD12C,0.120000*%
%ADD13C,0.200000*%
%ADD14RoundRect,0.250000X0.412500X0.650000X-0.412500X0.650000X-0.412500X-0.650000X0.412500X-0.650000X0*%
%ADD15R,1.450000X1.490000*%
%ADD16RoundRect,0.250000X-0.650000X0.412500X-0.650000X-0.412500X0.650000X-0.412500X0.650000X0.412500X0*%
%ADD17R,1.700000X1.700000*%
%ADD18O,1.700000X1.700000*%
%ADD19R,1.600000X1.600000*%
%ADD20C,1.600000*%
G04 APERTURE END LIST*
D10*
X180404658Y-91389800D02*
X180737991Y-90913609D01*
X180976086Y-91389800D02*
X180976086Y-90389800D01*
X180976086Y-90389800D02*
X180595134Y-90389800D01*
X180595134Y-90389800D02*
X180499896Y-90437419D01*
X180499896Y-90437419D02*
X180452277Y-90485038D01*
X180452277Y-90485038D02*
X180404658Y-90580276D01*
X180404658Y-90580276D02*
X180404658Y-90723133D01*
X180404658Y-90723133D02*
X180452277Y-90818371D01*
X180452277Y-90818371D02*
X180499896Y-90865990D01*
X180499896Y-90865990D02*
X180595134Y-90913609D01*
X180595134Y-90913609D02*
X180976086Y-90913609D01*
X179452277Y-91389800D02*
X180023705Y-91389800D01*
X179737991Y-91389800D02*
X179737991Y-90389800D01*
X179737991Y-90389800D02*
X179833229Y-90532657D01*
X179833229Y-90532657D02*
X179928467Y-90627895D01*
X179928467Y-90627895D02*
X180023705Y-90675514D01*
D11*
X179486964Y-103901116D02*
X179486964Y-102631116D01*
X179486964Y-102631116D02*
X179184583Y-102631116D01*
X179184583Y-102631116D02*
X179003154Y-102691592D01*
X179003154Y-102691592D02*
X178882202Y-102812544D01*
X178882202Y-102812544D02*
X178821725Y-102933497D01*
X178821725Y-102933497D02*
X178761249Y-103175401D01*
X178761249Y-103175401D02*
X178761249Y-103356830D01*
X178761249Y-103356830D02*
X178821725Y-103598735D01*
X178821725Y-103598735D02*
X178882202Y-103719687D01*
X178882202Y-103719687D02*
X179003154Y-103840640D01*
X179003154Y-103840640D02*
X179184583Y-103901116D01*
X179184583Y-103901116D02*
X179486964Y-103901116D01*
X178277440Y-102752068D02*
X178216964Y-102691592D01*
X178216964Y-102691592D02*
X178096011Y-102631116D01*
X178096011Y-102631116D02*
X177793630Y-102631116D01*
X177793630Y-102631116D02*
X177672678Y-102691592D01*
X177672678Y-102691592D02*
X177612202Y-102752068D01*
X177612202Y-102752068D02*
X177551725Y-102873020D01*
X177551725Y-102873020D02*
X177551725Y-102993973D01*
X177551725Y-102993973D02*
X177612202Y-103175401D01*
X177612202Y-103175401D02*
X178337916Y-103901116D01*
X178337916Y-103901116D02*
X177551725Y-103901116D01*
D10*
X172306398Y-105565923D02*
X172354018Y-105518304D01*
X172354018Y-105518304D02*
X172401637Y-105375447D01*
X172401637Y-105375447D02*
X172401637Y-105280209D01*
X172401637Y-105280209D02*
X172354018Y-105137352D01*
X172354018Y-105137352D02*
X172258779Y-105042114D01*
X172258779Y-105042114D02*
X172163541Y-104994495D01*
X172163541Y-104994495D02*
X171973065Y-104946876D01*
X171973065Y-104946876D02*
X171830208Y-104946876D01*
X171830208Y-104946876D02*
X171639732Y-104994495D01*
X171639732Y-104994495D02*
X171544494Y-105042114D01*
X171544494Y-105042114D02*
X171449256Y-105137352D01*
X171449256Y-105137352D02*
X171401637Y-105280209D01*
X171401637Y-105280209D02*
X171401637Y-105375447D01*
X171401637Y-105375447D02*
X171449256Y-105518304D01*
X171449256Y-105518304D02*
X171496875Y-105565923D01*
X171734970Y-106423066D02*
X172401637Y-106423066D01*
X171354018Y-106184971D02*
X172068303Y-105946876D01*
X172068303Y-105946876D02*
X172068303Y-106565923D01*
X175159042Y-91306015D02*
X175206661Y-91353635D01*
X175206661Y-91353635D02*
X175349518Y-91401254D01*
X175349518Y-91401254D02*
X175444756Y-91401254D01*
X175444756Y-91401254D02*
X175587613Y-91353635D01*
X175587613Y-91353635D02*
X175682851Y-91258396D01*
X175682851Y-91258396D02*
X175730470Y-91163158D01*
X175730470Y-91163158D02*
X175778089Y-90972682D01*
X175778089Y-90972682D02*
X175778089Y-90829825D01*
X175778089Y-90829825D02*
X175730470Y-90639349D01*
X175730470Y-90639349D02*
X175682851Y-90544111D01*
X175682851Y-90544111D02*
X175587613Y-90448873D01*
X175587613Y-90448873D02*
X175444756Y-90401254D01*
X175444756Y-90401254D02*
X175349518Y-90401254D01*
X175349518Y-90401254D02*
X175206661Y-90448873D01*
X175206661Y-90448873D02*
X175159042Y-90496492D01*
X174825708Y-90401254D02*
X174206661Y-90401254D01*
X174206661Y-90401254D02*
X174539994Y-90782206D01*
X174539994Y-90782206D02*
X174397137Y-90782206D01*
X174397137Y-90782206D02*
X174301899Y-90829825D01*
X174301899Y-90829825D02*
X174254280Y-90877444D01*
X174254280Y-90877444D02*
X174206661Y-90972682D01*
X174206661Y-90972682D02*
X174206661Y-91210777D01*
X174206661Y-91210777D02*
X174254280Y-91306015D01*
X174254280Y-91306015D02*
X174301899Y-91353635D01*
X174301899Y-91353635D02*
X174397137Y-91401254D01*
X174397137Y-91401254D02*
X174682851Y-91401254D01*
X174682851Y-91401254D02*
X174778089Y-91353635D01*
X174778089Y-91353635D02*
X174825708Y-91306015D01*
D12*
%TO.C,R1*%
X179526740Y-91874981D02*
X180949244Y-91874981D01*
X179526740Y-93694981D02*
X180949244Y-93694981D01*
D13*
%TO.C,D2*%
X180674583Y-104626798D02*
X175649583Y-104626798D01*
X180674583Y-102026798D02*
X176424583Y-102026798D01*
D12*
%TO.C,C4*%
X172886818Y-106443842D02*
X172886818Y-105021338D01*
X174706818Y-106443842D02*
X174706818Y-105021338D01*
%TO.C,C3*%
X174281124Y-91886435D02*
X175703628Y-91886435D01*
X174281124Y-93706435D02*
X175703628Y-93706435D01*
%TD*%
%LPC*%
D14*
%TO.C,R1*%
X181800492Y-92784981D03*
X178675492Y-92784981D03*
%TD*%
D15*
%TO.C,D2*%
X176374583Y-103326798D03*
X180724583Y-103326798D03*
%TD*%
D16*
%TO.C,C4*%
X173796818Y-104170090D03*
X173796818Y-107295090D03*
%TD*%
D14*
%TO.C,C3*%
X176554876Y-92796435D03*
X173429876Y-92796435D03*
%TD*%
D17*
%TO.C,J1*%
X188747700Y-101470200D03*
D18*
X188747700Y-98930200D03*
X188747700Y-96390200D03*
%TD*%
D19*
%TO.C,C2*%
X183049019Y-103113785D03*
D20*
X183049019Y-105613785D03*
%TD*%
D19*
%TO.C,C1*%
X188788945Y-89705684D03*
D20*
X186288945Y-89705684D03*
%TD*%
D19*
%TO.C,C5*%
X183607426Y-112364040D03*
D20*
X188607426Y-112364040D03*
%TD*%
%LPD*%
M02*
