%TF.GenerationSoftware,KiCad,Pcbnew,8.0.1-rc1*%
%TF.CreationDate,2024-10-01T19:15:30-07:00*%
%TF.ProjectId,LM2670SX-Carrier-SMD-inductor,4c4d3236-3730-4535-982d-436172726965,rev?*%
%TF.SameCoordinates,Original*%
%TF.FileFunction,Legend,Top*%
%TF.FilePolarity,Positive*%
%FSLAX46Y46*%
G04 Gerber Fmt 4.6, Leading zero omitted, Abs format (unit mm)*
G04 Created by KiCad (PCBNEW 8.0.1-rc1) date 2024-10-01 19:15:30*
%MOMM*%
%LPD*%
G01*
G04 APERTURE LIST*
%ADD10C,0.150000*%
%ADD11C,0.254000*%
%ADD12C,0.100000*%
%ADD13C,0.200000*%
%ADD14C,0.120000*%
%ADD15R,2.850000X3.300000*%
%ADD16R,1.700000X1.700000*%
%ADD17O,1.700000X1.700000*%
%ADD18R,1.600000X1.600000*%
%ADD19C,1.600000*%
%ADD20R,0.910000X2.160000*%
%ADD21R,10.800000X10.410000*%
G04 APERTURE END LIST*
D10*
X184963551Y-100375266D02*
X185296884Y-101375266D01*
X185296884Y-101375266D02*
X185630217Y-100375266D01*
X185963551Y-101375266D02*
X185963551Y-100375266D01*
X185963551Y-100375266D02*
X186201646Y-100375266D01*
X186201646Y-100375266D02*
X186344503Y-100422885D01*
X186344503Y-100422885D02*
X186439741Y-100518123D01*
X186439741Y-100518123D02*
X186487360Y-100613361D01*
X186487360Y-100613361D02*
X186534979Y-100803837D01*
X186534979Y-100803837D02*
X186534979Y-100946694D01*
X186534979Y-100946694D02*
X186487360Y-101137170D01*
X186487360Y-101137170D02*
X186439741Y-101232408D01*
X186439741Y-101232408D02*
X186344503Y-101327647D01*
X186344503Y-101327647D02*
X186201646Y-101375266D01*
X186201646Y-101375266D02*
X185963551Y-101375266D01*
X187534979Y-101280027D02*
X187487360Y-101327647D01*
X187487360Y-101327647D02*
X187344503Y-101375266D01*
X187344503Y-101375266D02*
X187249265Y-101375266D01*
X187249265Y-101375266D02*
X187106408Y-101327647D01*
X187106408Y-101327647D02*
X187011170Y-101232408D01*
X187011170Y-101232408D02*
X186963551Y-101137170D01*
X186963551Y-101137170D02*
X186915932Y-100946694D01*
X186915932Y-100946694D02*
X186915932Y-100803837D01*
X186915932Y-100803837D02*
X186963551Y-100613361D01*
X186963551Y-100613361D02*
X187011170Y-100518123D01*
X187011170Y-100518123D02*
X187106408Y-100422885D01*
X187106408Y-100422885D02*
X187249265Y-100375266D01*
X187249265Y-100375266D02*
X187344503Y-100375266D01*
X187344503Y-100375266D02*
X187487360Y-100422885D01*
X187487360Y-100422885D02*
X187534979Y-100470504D01*
X185063881Y-95834262D02*
X184968643Y-95786643D01*
X184968643Y-95786643D02*
X184825786Y-95786643D01*
X184825786Y-95786643D02*
X184682929Y-95834262D01*
X184682929Y-95834262D02*
X184587691Y-95929500D01*
X184587691Y-95929500D02*
X184540072Y-96024738D01*
X184540072Y-96024738D02*
X184492453Y-96215214D01*
X184492453Y-96215214D02*
X184492453Y-96358071D01*
X184492453Y-96358071D02*
X184540072Y-96548547D01*
X184540072Y-96548547D02*
X184587691Y-96643785D01*
X184587691Y-96643785D02*
X184682929Y-96739024D01*
X184682929Y-96739024D02*
X184825786Y-96786643D01*
X184825786Y-96786643D02*
X184921024Y-96786643D01*
X184921024Y-96786643D02*
X185063881Y-96739024D01*
X185063881Y-96739024D02*
X185111500Y-96691404D01*
X185111500Y-96691404D02*
X185111500Y-96358071D01*
X185111500Y-96358071D02*
X184921024Y-96358071D01*
X185540072Y-96786643D02*
X185540072Y-95786643D01*
X185540072Y-95786643D02*
X186111500Y-96786643D01*
X186111500Y-96786643D02*
X186111500Y-95786643D01*
X186587691Y-96786643D02*
X186587691Y-95786643D01*
X186587691Y-95786643D02*
X186825786Y-95786643D01*
X186825786Y-95786643D02*
X186968643Y-95834262D01*
X186968643Y-95834262D02*
X187063881Y-95929500D01*
X187063881Y-95929500D02*
X187111500Y-96024738D01*
X187111500Y-96024738D02*
X187159119Y-96215214D01*
X187159119Y-96215214D02*
X187159119Y-96358071D01*
X187159119Y-96358071D02*
X187111500Y-96548547D01*
X187111500Y-96548547D02*
X187063881Y-96643785D01*
X187063881Y-96643785D02*
X186968643Y-96739024D01*
X186968643Y-96739024D02*
X186825786Y-96786643D01*
X186825786Y-96786643D02*
X186587691Y-96786643D01*
X185571293Y-98278597D02*
X185904626Y-99278597D01*
X185904626Y-99278597D02*
X186237959Y-98278597D01*
X186761769Y-98278597D02*
X186952245Y-98278597D01*
X186952245Y-98278597D02*
X187047483Y-98326216D01*
X187047483Y-98326216D02*
X187142721Y-98421454D01*
X187142721Y-98421454D02*
X187190340Y-98611930D01*
X187190340Y-98611930D02*
X187190340Y-98945263D01*
X187190340Y-98945263D02*
X187142721Y-99135739D01*
X187142721Y-99135739D02*
X187047483Y-99230978D01*
X187047483Y-99230978D02*
X186952245Y-99278597D01*
X186952245Y-99278597D02*
X186761769Y-99278597D01*
X186761769Y-99278597D02*
X186666531Y-99230978D01*
X186666531Y-99230978D02*
X186571293Y-99135739D01*
X186571293Y-99135739D02*
X186523674Y-98945263D01*
X186523674Y-98945263D02*
X186523674Y-98611930D01*
X186523674Y-98611930D02*
X186571293Y-98421454D01*
X186571293Y-98421454D02*
X186666531Y-98326216D01*
X186666531Y-98326216D02*
X186761769Y-98278597D01*
X173402095Y-116460706D02*
X172925905Y-116460706D01*
X172925905Y-116460706D02*
X172925905Y-115460706D01*
X173735429Y-116460706D02*
X173735429Y-115460706D01*
X173735429Y-115460706D02*
X174068762Y-116174991D01*
X174068762Y-116174991D02*
X174402095Y-115460706D01*
X174402095Y-115460706D02*
X174402095Y-116460706D01*
X174830667Y-115555944D02*
X174878286Y-115508325D01*
X174878286Y-115508325D02*
X174973524Y-115460706D01*
X174973524Y-115460706D02*
X175211619Y-115460706D01*
X175211619Y-115460706D02*
X175306857Y-115508325D01*
X175306857Y-115508325D02*
X175354476Y-115555944D01*
X175354476Y-115555944D02*
X175402095Y-115651182D01*
X175402095Y-115651182D02*
X175402095Y-115746420D01*
X175402095Y-115746420D02*
X175354476Y-115889277D01*
X175354476Y-115889277D02*
X174783048Y-116460706D01*
X174783048Y-116460706D02*
X175402095Y-116460706D01*
X176259238Y-115460706D02*
X176068762Y-115460706D01*
X176068762Y-115460706D02*
X175973524Y-115508325D01*
X175973524Y-115508325D02*
X175925905Y-115555944D01*
X175925905Y-115555944D02*
X175830667Y-115698801D01*
X175830667Y-115698801D02*
X175783048Y-115889277D01*
X175783048Y-115889277D02*
X175783048Y-116270229D01*
X175783048Y-116270229D02*
X175830667Y-116365467D01*
X175830667Y-116365467D02*
X175878286Y-116413087D01*
X175878286Y-116413087D02*
X175973524Y-116460706D01*
X175973524Y-116460706D02*
X176164000Y-116460706D01*
X176164000Y-116460706D02*
X176259238Y-116413087D01*
X176259238Y-116413087D02*
X176306857Y-116365467D01*
X176306857Y-116365467D02*
X176354476Y-116270229D01*
X176354476Y-116270229D02*
X176354476Y-116032134D01*
X176354476Y-116032134D02*
X176306857Y-115936896D01*
X176306857Y-115936896D02*
X176259238Y-115889277D01*
X176259238Y-115889277D02*
X176164000Y-115841658D01*
X176164000Y-115841658D02*
X175973524Y-115841658D01*
X175973524Y-115841658D02*
X175878286Y-115889277D01*
X175878286Y-115889277D02*
X175830667Y-115936896D01*
X175830667Y-115936896D02*
X175783048Y-116032134D01*
X176687810Y-115460706D02*
X177354476Y-115460706D01*
X177354476Y-115460706D02*
X176925905Y-116460706D01*
X177925905Y-115460706D02*
X178021143Y-115460706D01*
X178021143Y-115460706D02*
X178116381Y-115508325D01*
X178116381Y-115508325D02*
X178164000Y-115555944D01*
X178164000Y-115555944D02*
X178211619Y-115651182D01*
X178211619Y-115651182D02*
X178259238Y-115841658D01*
X178259238Y-115841658D02*
X178259238Y-116079753D01*
X178259238Y-116079753D02*
X178211619Y-116270229D01*
X178211619Y-116270229D02*
X178164000Y-116365467D01*
X178164000Y-116365467D02*
X178116381Y-116413087D01*
X178116381Y-116413087D02*
X178021143Y-116460706D01*
X178021143Y-116460706D02*
X177925905Y-116460706D01*
X177925905Y-116460706D02*
X177830667Y-116413087D01*
X177830667Y-116413087D02*
X177783048Y-116365467D01*
X177783048Y-116365467D02*
X177735429Y-116270229D01*
X177735429Y-116270229D02*
X177687810Y-116079753D01*
X177687810Y-116079753D02*
X177687810Y-115841658D01*
X177687810Y-115841658D02*
X177735429Y-115651182D01*
X177735429Y-115651182D02*
X177783048Y-115555944D01*
X177783048Y-115555944D02*
X177830667Y-115508325D01*
X177830667Y-115508325D02*
X177925905Y-115460706D01*
X178640191Y-116413087D02*
X178783048Y-116460706D01*
X178783048Y-116460706D02*
X179021143Y-116460706D01*
X179021143Y-116460706D02*
X179116381Y-116413087D01*
X179116381Y-116413087D02*
X179164000Y-116365467D01*
X179164000Y-116365467D02*
X179211619Y-116270229D01*
X179211619Y-116270229D02*
X179211619Y-116174991D01*
X179211619Y-116174991D02*
X179164000Y-116079753D01*
X179164000Y-116079753D02*
X179116381Y-116032134D01*
X179116381Y-116032134D02*
X179021143Y-115984515D01*
X179021143Y-115984515D02*
X178830667Y-115936896D01*
X178830667Y-115936896D02*
X178735429Y-115889277D01*
X178735429Y-115889277D02*
X178687810Y-115841658D01*
X178687810Y-115841658D02*
X178640191Y-115746420D01*
X178640191Y-115746420D02*
X178640191Y-115651182D01*
X178640191Y-115651182D02*
X178687810Y-115555944D01*
X178687810Y-115555944D02*
X178735429Y-115508325D01*
X178735429Y-115508325D02*
X178830667Y-115460706D01*
X178830667Y-115460706D02*
X179068762Y-115460706D01*
X179068762Y-115460706D02*
X179211619Y-115508325D01*
X179544953Y-115460706D02*
X180211619Y-116460706D01*
X180211619Y-115460706D02*
X179544953Y-116460706D01*
D11*
X176350155Y-111558085D02*
X175745393Y-111558085D01*
X175745393Y-111558085D02*
X175745393Y-110288085D01*
X176713012Y-110409037D02*
X176773488Y-110348561D01*
X176773488Y-110348561D02*
X176894441Y-110288085D01*
X176894441Y-110288085D02*
X177196822Y-110288085D01*
X177196822Y-110288085D02*
X177317774Y-110348561D01*
X177317774Y-110348561D02*
X177378250Y-110409037D01*
X177378250Y-110409037D02*
X177438727Y-110529989D01*
X177438727Y-110529989D02*
X177438727Y-110650942D01*
X177438727Y-110650942D02*
X177378250Y-110832370D01*
X177378250Y-110832370D02*
X176652536Y-111558085D01*
X176652536Y-111558085D02*
X177438727Y-111558085D01*
D10*
X188414366Y-103255019D02*
X188414366Y-103969304D01*
X188414366Y-103969304D02*
X188366747Y-104112161D01*
X188366747Y-104112161D02*
X188271509Y-104207400D01*
X188271509Y-104207400D02*
X188128652Y-104255019D01*
X188128652Y-104255019D02*
X188033414Y-104255019D01*
X189414366Y-104255019D02*
X188842938Y-104255019D01*
X189128652Y-104255019D02*
X189128652Y-103255019D01*
X189128652Y-103255019D02*
X189033414Y-103397876D01*
X189033414Y-103397876D02*
X188938176Y-103493114D01*
X188938176Y-103493114D02*
X188842938Y-103540733D01*
X180112468Y-106433994D02*
X180160088Y-106481613D01*
X180160088Y-106481613D02*
X180207707Y-106624470D01*
X180207707Y-106624470D02*
X180207707Y-106719708D01*
X180207707Y-106719708D02*
X180160088Y-106862565D01*
X180160088Y-106862565D02*
X180064849Y-106957803D01*
X180064849Y-106957803D02*
X179969611Y-107005422D01*
X179969611Y-107005422D02*
X179779135Y-107053041D01*
X179779135Y-107053041D02*
X179636278Y-107053041D01*
X179636278Y-107053041D02*
X179445802Y-107005422D01*
X179445802Y-107005422D02*
X179350564Y-106957803D01*
X179350564Y-106957803D02*
X179255326Y-106862565D01*
X179255326Y-106862565D02*
X179207707Y-106719708D01*
X179207707Y-106719708D02*
X179207707Y-106624470D01*
X179207707Y-106624470D02*
X179255326Y-106481613D01*
X179255326Y-106481613D02*
X179302945Y-106433994D01*
X179302945Y-106053041D02*
X179255326Y-106005422D01*
X179255326Y-106005422D02*
X179207707Y-105910184D01*
X179207707Y-105910184D02*
X179207707Y-105672089D01*
X179207707Y-105672089D02*
X179255326Y-105576851D01*
X179255326Y-105576851D02*
X179302945Y-105529232D01*
X179302945Y-105529232D02*
X179398183Y-105481613D01*
X179398183Y-105481613D02*
X179493421Y-105481613D01*
X179493421Y-105481613D02*
X179636278Y-105529232D01*
X179636278Y-105529232D02*
X180207707Y-106100660D01*
X180207707Y-106100660D02*
X180207707Y-105481613D01*
X187372278Y-93815264D02*
X187324659Y-93862884D01*
X187324659Y-93862884D02*
X187181802Y-93910503D01*
X187181802Y-93910503D02*
X187086564Y-93910503D01*
X187086564Y-93910503D02*
X186943707Y-93862884D01*
X186943707Y-93862884D02*
X186848469Y-93767645D01*
X186848469Y-93767645D02*
X186800850Y-93672407D01*
X186800850Y-93672407D02*
X186753231Y-93481931D01*
X186753231Y-93481931D02*
X186753231Y-93339074D01*
X186753231Y-93339074D02*
X186800850Y-93148598D01*
X186800850Y-93148598D02*
X186848469Y-93053360D01*
X186848469Y-93053360D02*
X186943707Y-92958122D01*
X186943707Y-92958122D02*
X187086564Y-92910503D01*
X187086564Y-92910503D02*
X187181802Y-92910503D01*
X187181802Y-92910503D02*
X187324659Y-92958122D01*
X187324659Y-92958122D02*
X187372278Y-93005741D01*
X188324659Y-93910503D02*
X187753231Y-93910503D01*
X188038945Y-93910503D02*
X188038945Y-92910503D01*
X188038945Y-92910503D02*
X187943707Y-93053360D01*
X187943707Y-93053360D02*
X187848469Y-93148598D01*
X187848469Y-93148598D02*
X187753231Y-93196217D01*
X185940759Y-107473620D02*
X185893140Y-107521240D01*
X185893140Y-107521240D02*
X185750283Y-107568859D01*
X185750283Y-107568859D02*
X185655045Y-107568859D01*
X185655045Y-107568859D02*
X185512188Y-107521240D01*
X185512188Y-107521240D02*
X185416950Y-107426001D01*
X185416950Y-107426001D02*
X185369331Y-107330763D01*
X185369331Y-107330763D02*
X185321712Y-107140287D01*
X185321712Y-107140287D02*
X185321712Y-106997430D01*
X185321712Y-106997430D02*
X185369331Y-106806954D01*
X185369331Y-106806954D02*
X185416950Y-106711716D01*
X185416950Y-106711716D02*
X185512188Y-106616478D01*
X185512188Y-106616478D02*
X185655045Y-106568859D01*
X185655045Y-106568859D02*
X185750283Y-106568859D01*
X185750283Y-106568859D02*
X185893140Y-106616478D01*
X185893140Y-106616478D02*
X185940759Y-106664097D01*
X186845521Y-106568859D02*
X186369331Y-106568859D01*
X186369331Y-106568859D02*
X186321712Y-107045049D01*
X186321712Y-107045049D02*
X186369331Y-106997430D01*
X186369331Y-106997430D02*
X186464569Y-106949811D01*
X186464569Y-106949811D02*
X186702664Y-106949811D01*
X186702664Y-106949811D02*
X186797902Y-106997430D01*
X186797902Y-106997430D02*
X186845521Y-107045049D01*
X186845521Y-107045049D02*
X186893140Y-107140287D01*
X186893140Y-107140287D02*
X186893140Y-107378382D01*
X186893140Y-107378382D02*
X186845521Y-107473620D01*
X186845521Y-107473620D02*
X186797902Y-107521240D01*
X186797902Y-107521240D02*
X186702664Y-107568859D01*
X186702664Y-107568859D02*
X186464569Y-107568859D01*
X186464569Y-107568859D02*
X186369331Y-107521240D01*
X186369331Y-107521240D02*
X186321712Y-107473620D01*
D11*
X183869121Y-100328745D02*
X182599121Y-100328745D01*
X183748168Y-98998268D02*
X183808645Y-99058744D01*
X183808645Y-99058744D02*
X183869121Y-99240173D01*
X183869121Y-99240173D02*
X183869121Y-99361125D01*
X183869121Y-99361125D02*
X183808645Y-99542554D01*
X183808645Y-99542554D02*
X183687692Y-99663506D01*
X183687692Y-99663506D02*
X183566740Y-99723983D01*
X183566740Y-99723983D02*
X183324835Y-99784459D01*
X183324835Y-99784459D02*
X183143406Y-99784459D01*
X183143406Y-99784459D02*
X182901502Y-99723983D01*
X182901502Y-99723983D02*
X182780549Y-99663506D01*
X182780549Y-99663506D02*
X182659597Y-99542554D01*
X182659597Y-99542554D02*
X182599121Y-99361125D01*
X182599121Y-99361125D02*
X182599121Y-99240173D01*
X182599121Y-99240173D02*
X182659597Y-99058744D01*
X182659597Y-99058744D02*
X182720073Y-98998268D01*
X183869121Y-97788744D02*
X183869121Y-98514459D01*
X183869121Y-98151602D02*
X182599121Y-98151602D01*
X182599121Y-98151602D02*
X182780549Y-98272554D01*
X182780549Y-98272554D02*
X182901502Y-98393506D01*
X182901502Y-98393506D02*
X182961978Y-98514459D01*
D12*
%TO.C,L2*%
X173061822Y-107483767D02*
X180061822Y-107483767D01*
X180061822Y-114483767D02*
X173061822Y-114483767D01*
D13*
X171786822Y-110983767D02*
G75*
G02*
X171686822Y-110983767I-50000J0D01*
G01*
X171686822Y-110983767D02*
G75*
G02*
X171786822Y-110983767I50000J0D01*
G01*
D14*
%TO.C,J1*%
X187417700Y-100200200D02*
X187417700Y-95060200D01*
X190077700Y-95060200D02*
X187417700Y-95060200D01*
X190077700Y-100200200D02*
X187417700Y-100200200D01*
X190077700Y-100200200D02*
X190077700Y-95060200D01*
X190077700Y-101470200D02*
X190077700Y-102800200D01*
X190077700Y-102800200D02*
X188747700Y-102800200D01*
%TO.C,C2*%
X182009019Y-104603785D02*
X180480019Y-104603785D01*
X182009019Y-104643785D02*
X180484019Y-104643785D01*
X182009019Y-104683785D02*
X180488019Y-104683785D01*
X182009019Y-104723785D02*
X180493019Y-104723785D01*
X182009019Y-104763785D02*
X180499019Y-104763785D01*
X182009019Y-104803785D02*
X180506019Y-104803785D01*
X182009019Y-104843785D02*
X180513019Y-104843785D01*
X182009019Y-104883785D02*
X180521019Y-104883785D01*
X182009019Y-104923785D02*
X180529019Y-104923785D01*
X182009019Y-104963785D02*
X180538019Y-104963785D01*
X182009019Y-105003785D02*
X180548019Y-105003785D01*
X182009019Y-105043785D02*
X180558019Y-105043785D01*
X182009019Y-105084785D02*
X180569019Y-105084785D01*
X182009019Y-105124785D02*
X180581019Y-105124785D01*
X182009019Y-105164785D02*
X180594019Y-105164785D01*
X182009019Y-105204785D02*
X180607019Y-105204785D01*
X182009019Y-105244785D02*
X180621019Y-105244785D01*
X182009019Y-105284785D02*
X180635019Y-105284785D01*
X182009019Y-105324785D02*
X180651019Y-105324785D01*
X182009019Y-105364785D02*
X180667019Y-105364785D01*
X182009019Y-105404785D02*
X180684019Y-105404785D01*
X182009019Y-105444785D02*
X180701019Y-105444785D01*
X182009019Y-105484785D02*
X180720019Y-105484785D01*
X182009019Y-105524785D02*
X180739019Y-105524785D01*
X182009019Y-105564785D02*
X180759019Y-105564785D01*
X182009019Y-105604785D02*
X180781019Y-105604785D01*
X182009019Y-105644785D02*
X180802019Y-105644785D01*
X182009019Y-105684785D02*
X180825019Y-105684785D01*
X182009019Y-105724785D02*
X180849019Y-105724785D01*
X182009019Y-105764785D02*
X180874019Y-105764785D01*
X182009019Y-105804785D02*
X180900019Y-105804785D01*
X182009019Y-105844785D02*
X180927019Y-105844785D01*
X182009019Y-105884785D02*
X180954019Y-105884785D01*
X182009019Y-105924785D02*
X180984019Y-105924785D01*
X182009019Y-105964785D02*
X181014019Y-105964785D01*
X182009019Y-106004785D02*
X181045019Y-106004785D01*
X182009019Y-106044785D02*
X181078019Y-106044785D01*
X182009019Y-106084785D02*
X181112019Y-106084785D01*
X182009019Y-106124785D02*
X181148019Y-106124785D01*
X182009019Y-106164785D02*
X181185019Y-106164785D01*
X182009019Y-106204785D02*
X181223019Y-106204785D01*
X182009019Y-106244785D02*
X181264019Y-106244785D01*
X182009019Y-106284785D02*
X181306019Y-106284785D01*
X182009019Y-106324785D02*
X181350019Y-106324785D01*
X182009019Y-106364785D02*
X181396019Y-106364785D01*
X182009019Y-106404785D02*
X181444019Y-106404785D01*
X182009019Y-106444785D02*
X181495019Y-106444785D01*
X182009019Y-106484785D02*
X181549019Y-106484785D01*
X182009019Y-106524785D02*
X181606019Y-106524785D01*
X182009019Y-106564785D02*
X181666019Y-106564785D01*
X182009019Y-106604785D02*
X181730019Y-106604785D01*
X182009019Y-106644785D02*
X181798019Y-106644785D01*
X183333019Y-106964785D02*
X182765019Y-106964785D01*
X183567019Y-106924785D02*
X182531019Y-106924785D01*
X183726019Y-106884785D02*
X182372019Y-106884785D01*
X183854019Y-106844785D02*
X182244019Y-106844785D01*
X183964019Y-106804785D02*
X182134019Y-106804785D01*
X184060019Y-106764785D02*
X182038019Y-106764785D01*
X184147019Y-106724785D02*
X181951019Y-106724785D01*
X184227019Y-106684785D02*
X181871019Y-106684785D01*
X184300019Y-106644785D02*
X184089019Y-106644785D01*
X184368019Y-106604785D02*
X184089019Y-106604785D01*
X184432019Y-106564785D02*
X184089019Y-106564785D01*
X184492019Y-106524785D02*
X184089019Y-106524785D01*
X184524019Y-101559010D02*
X184524019Y-102059010D01*
X184549019Y-106484785D02*
X184089019Y-106484785D01*
X184603019Y-106444785D02*
X184089019Y-106444785D01*
X184654019Y-106404785D02*
X184089019Y-106404785D01*
X184702019Y-106364785D02*
X184089019Y-106364785D01*
X184748019Y-106324785D02*
X184089019Y-106324785D01*
X184774019Y-101809010D02*
X184274019Y-101809010D01*
X184792019Y-106284785D02*
X184089019Y-106284785D01*
X184834019Y-106244785D02*
X184089019Y-106244785D01*
X184875019Y-106204785D02*
X184089019Y-106204785D01*
X184913019Y-106164785D02*
X184089019Y-106164785D01*
X184950019Y-106124785D02*
X184089019Y-106124785D01*
X184986019Y-106084785D02*
X184089019Y-106084785D01*
X185020019Y-106044785D02*
X184089019Y-106044785D01*
X185053019Y-106004785D02*
X184089019Y-106004785D01*
X185084019Y-105964785D02*
X184089019Y-105964785D01*
X185114019Y-105924785D02*
X184089019Y-105924785D01*
X185144019Y-105884785D02*
X184089019Y-105884785D01*
X185171019Y-105844785D02*
X184089019Y-105844785D01*
X185198019Y-105804785D02*
X184089019Y-105804785D01*
X185224019Y-105764785D02*
X184089019Y-105764785D01*
X185249019Y-105724785D02*
X184089019Y-105724785D01*
X185273019Y-105684785D02*
X184089019Y-105684785D01*
X185296019Y-105644785D02*
X184089019Y-105644785D01*
X185317019Y-105604785D02*
X184089019Y-105604785D01*
X185339019Y-105564785D02*
X184089019Y-105564785D01*
X185359019Y-105524785D02*
X184089019Y-105524785D01*
X185378019Y-105484785D02*
X184089019Y-105484785D01*
X185397019Y-105444785D02*
X184089019Y-105444785D01*
X185414019Y-105404785D02*
X184089019Y-105404785D01*
X185431019Y-105364785D02*
X184089019Y-105364785D01*
X185447019Y-105324785D02*
X184089019Y-105324785D01*
X185463019Y-105284785D02*
X184089019Y-105284785D01*
X185477019Y-105244785D02*
X184089019Y-105244785D01*
X185491019Y-105204785D02*
X184089019Y-105204785D01*
X185504019Y-105164785D02*
X184089019Y-105164785D01*
X185517019Y-105124785D02*
X184089019Y-105124785D01*
X185529019Y-105084785D02*
X184089019Y-105084785D01*
X185540019Y-105043785D02*
X184089019Y-105043785D01*
X185550019Y-105003785D02*
X184089019Y-105003785D01*
X185560019Y-104963785D02*
X184089019Y-104963785D01*
X185569019Y-104923785D02*
X184089019Y-104923785D01*
X185577019Y-104883785D02*
X184089019Y-104883785D01*
X185585019Y-104843785D02*
X184089019Y-104843785D01*
X185592019Y-104803785D02*
X184089019Y-104803785D01*
X185599019Y-104763785D02*
X184089019Y-104763785D01*
X185605019Y-104723785D02*
X184089019Y-104723785D01*
X185610019Y-104683785D02*
X184089019Y-104683785D01*
X185614019Y-104643785D02*
X184089019Y-104643785D01*
X185618019Y-104603785D02*
X184089019Y-104603785D01*
X185622019Y-104563785D02*
X180476019Y-104563785D01*
X185625019Y-104523785D02*
X180473019Y-104523785D01*
X185627019Y-104483785D02*
X180471019Y-104483785D01*
X185628019Y-104443785D02*
X180470019Y-104443785D01*
X185629019Y-104363785D02*
X180469019Y-104363785D01*
X185629019Y-104403785D02*
X180469019Y-104403785D01*
X185669019Y-104363785D02*
G75*
G02*
X180429019Y-104363785I-2620000J0D01*
G01*
X180429019Y-104363785D02*
G75*
G02*
X185669019Y-104363785I2620000J0D01*
G01*
%TO.C,C1*%
X184937945Y-89989684D02*
X184937945Y-89421684D01*
X184977945Y-90223684D02*
X184977945Y-89187684D01*
X185017945Y-90382684D02*
X185017945Y-89028684D01*
X185057945Y-90510684D02*
X185057945Y-88900684D01*
X185097945Y-90620684D02*
X185097945Y-88790684D01*
X185137945Y-90716684D02*
X185137945Y-88694684D01*
X185177945Y-90803684D02*
X185177945Y-88607684D01*
X185217945Y-90883684D02*
X185217945Y-88527684D01*
X185257945Y-88665684D02*
X185257945Y-88454684D01*
X185257945Y-90956684D02*
X185257945Y-90745684D01*
X185297945Y-88665684D02*
X185297945Y-88386684D01*
X185297945Y-91024684D02*
X185297945Y-90745684D01*
X185337945Y-88665684D02*
X185337945Y-88322684D01*
X185337945Y-91088684D02*
X185337945Y-90745684D01*
X185377945Y-88665684D02*
X185377945Y-88262684D01*
X185377945Y-91148684D02*
X185377945Y-90745684D01*
X185417945Y-88665684D02*
X185417945Y-88205684D01*
X185417945Y-91205684D02*
X185417945Y-90745684D01*
X185457945Y-88665684D02*
X185457945Y-88151684D01*
X185457945Y-91259684D02*
X185457945Y-90745684D01*
X185497945Y-88665684D02*
X185497945Y-88100684D01*
X185497945Y-91310684D02*
X185497945Y-90745684D01*
X185537945Y-88665684D02*
X185537945Y-88052684D01*
X185537945Y-91358684D02*
X185537945Y-90745684D01*
X185577945Y-88665684D02*
X185577945Y-88006684D01*
X185577945Y-91404684D02*
X185577945Y-90745684D01*
X185617945Y-88665684D02*
X185617945Y-87962684D01*
X185617945Y-91448684D02*
X185617945Y-90745684D01*
X185657945Y-88665684D02*
X185657945Y-87920684D01*
X185657945Y-91490684D02*
X185657945Y-90745684D01*
X185697945Y-88665684D02*
X185697945Y-87879684D01*
X185697945Y-91531684D02*
X185697945Y-90745684D01*
X185737945Y-88665684D02*
X185737945Y-87841684D01*
X185737945Y-91569684D02*
X185737945Y-90745684D01*
X185777945Y-88665684D02*
X185777945Y-87804684D01*
X185777945Y-91606684D02*
X185777945Y-90745684D01*
X185817945Y-88665684D02*
X185817945Y-87768684D01*
X185817945Y-91642684D02*
X185817945Y-90745684D01*
X185857945Y-88665684D02*
X185857945Y-87734684D01*
X185857945Y-91676684D02*
X185857945Y-90745684D01*
X185897945Y-88665684D02*
X185897945Y-87701684D01*
X185897945Y-91709684D02*
X185897945Y-90745684D01*
X185937945Y-88665684D02*
X185937945Y-87670684D01*
X185937945Y-91740684D02*
X185937945Y-90745684D01*
X185977945Y-88665684D02*
X185977945Y-87640684D01*
X185977945Y-91770684D02*
X185977945Y-90745684D01*
X186017945Y-88665684D02*
X186017945Y-87610684D01*
X186017945Y-91800684D02*
X186017945Y-90745684D01*
X186057945Y-88665684D02*
X186057945Y-87583684D01*
X186057945Y-91827684D02*
X186057945Y-90745684D01*
X186097945Y-88665684D02*
X186097945Y-87556684D01*
X186097945Y-91854684D02*
X186097945Y-90745684D01*
X186137945Y-88665684D02*
X186137945Y-87530684D01*
X186137945Y-91880684D02*
X186137945Y-90745684D01*
X186177945Y-88665684D02*
X186177945Y-87505684D01*
X186177945Y-91905684D02*
X186177945Y-90745684D01*
X186217945Y-88665684D02*
X186217945Y-87481684D01*
X186217945Y-91929684D02*
X186217945Y-90745684D01*
X186257945Y-88665684D02*
X186257945Y-87458684D01*
X186257945Y-91952684D02*
X186257945Y-90745684D01*
X186297945Y-88665684D02*
X186297945Y-87437684D01*
X186297945Y-91973684D02*
X186297945Y-90745684D01*
X186337945Y-88665684D02*
X186337945Y-87415684D01*
X186337945Y-91995684D02*
X186337945Y-90745684D01*
X186377945Y-88665684D02*
X186377945Y-87395684D01*
X186377945Y-92015684D02*
X186377945Y-90745684D01*
X186417945Y-88665684D02*
X186417945Y-87376684D01*
X186417945Y-92034684D02*
X186417945Y-90745684D01*
X186457945Y-88665684D02*
X186457945Y-87357684D01*
X186457945Y-92053684D02*
X186457945Y-90745684D01*
X186497945Y-88665684D02*
X186497945Y-87340684D01*
X186497945Y-92070684D02*
X186497945Y-90745684D01*
X186537945Y-88665684D02*
X186537945Y-87323684D01*
X186537945Y-92087684D02*
X186537945Y-90745684D01*
X186577945Y-88665684D02*
X186577945Y-87307684D01*
X186577945Y-92103684D02*
X186577945Y-90745684D01*
X186617945Y-88665684D02*
X186617945Y-87291684D01*
X186617945Y-92119684D02*
X186617945Y-90745684D01*
X186657945Y-88665684D02*
X186657945Y-87277684D01*
X186657945Y-92133684D02*
X186657945Y-90745684D01*
X186697945Y-88665684D02*
X186697945Y-87263684D01*
X186697945Y-92147684D02*
X186697945Y-90745684D01*
X186737945Y-88665684D02*
X186737945Y-87250684D01*
X186737945Y-92160684D02*
X186737945Y-90745684D01*
X186777945Y-88665684D02*
X186777945Y-87237684D01*
X186777945Y-92173684D02*
X186777945Y-90745684D01*
X186817945Y-88665684D02*
X186817945Y-87225684D01*
X186817945Y-92185684D02*
X186817945Y-90745684D01*
X186858945Y-88665684D02*
X186858945Y-87214684D01*
X186858945Y-92196684D02*
X186858945Y-90745684D01*
X186898945Y-88665684D02*
X186898945Y-87204684D01*
X186898945Y-92206684D02*
X186898945Y-90745684D01*
X186938945Y-88665684D02*
X186938945Y-87194684D01*
X186938945Y-92216684D02*
X186938945Y-90745684D01*
X186978945Y-88665684D02*
X186978945Y-87185684D01*
X186978945Y-92225684D02*
X186978945Y-90745684D01*
X187018945Y-88665684D02*
X187018945Y-87177684D01*
X187018945Y-92233684D02*
X187018945Y-90745684D01*
X187058945Y-88665684D02*
X187058945Y-87169684D01*
X187058945Y-92241684D02*
X187058945Y-90745684D01*
X187098945Y-88665684D02*
X187098945Y-87162684D01*
X187098945Y-92248684D02*
X187098945Y-90745684D01*
X187138945Y-88665684D02*
X187138945Y-87155684D01*
X187138945Y-92255684D02*
X187138945Y-90745684D01*
X187178945Y-88665684D02*
X187178945Y-87149684D01*
X187178945Y-92261684D02*
X187178945Y-90745684D01*
X187218945Y-88665684D02*
X187218945Y-87144684D01*
X187218945Y-92266684D02*
X187218945Y-90745684D01*
X187258945Y-88665684D02*
X187258945Y-87140684D01*
X187258945Y-92270684D02*
X187258945Y-90745684D01*
X187298945Y-88665684D02*
X187298945Y-87136684D01*
X187298945Y-92274684D02*
X187298945Y-90745684D01*
X187338945Y-92278684D02*
X187338945Y-87132684D01*
X187378945Y-92281684D02*
X187378945Y-87129684D01*
X187418945Y-92283684D02*
X187418945Y-87127684D01*
X187458945Y-92284684D02*
X187458945Y-87126684D01*
X187498945Y-92285684D02*
X187498945Y-87125684D01*
X187538945Y-92285684D02*
X187538945Y-87125684D01*
X190093720Y-91430684D02*
X190093720Y-90930684D01*
X190343720Y-91180684D02*
X189843720Y-91180684D01*
X190158945Y-89705684D02*
G75*
G02*
X184918945Y-89705684I-2620000J0D01*
G01*
X184918945Y-89705684D02*
G75*
G02*
X190158945Y-89705684I2620000J0D01*
G01*
%TO.C,C5*%
X181697728Y-110049040D02*
X182497728Y-110049040D01*
X182097728Y-109649040D02*
X182097728Y-110449040D01*
X186107426Y-108284040D02*
X186107426Y-116444040D01*
X186147426Y-108284040D02*
X186147426Y-116444040D01*
X186187426Y-108284040D02*
X186187426Y-116444040D01*
X186227426Y-108285040D02*
X186227426Y-116443040D01*
X186267426Y-108287040D02*
X186267426Y-116441040D01*
X186307426Y-108288040D02*
X186307426Y-116440040D01*
X186347426Y-108290040D02*
X186347426Y-116438040D01*
X186387426Y-108293040D02*
X186387426Y-116435040D01*
X186427426Y-108296040D02*
X186427426Y-116432040D01*
X186467426Y-108299040D02*
X186467426Y-116429040D01*
X186507426Y-108303040D02*
X186507426Y-116425040D01*
X186547426Y-108307040D02*
X186547426Y-116421040D01*
X186587426Y-108312040D02*
X186587426Y-116416040D01*
X186627426Y-108316040D02*
X186627426Y-116412040D01*
X186667426Y-108322040D02*
X186667426Y-116406040D01*
X186707426Y-108327040D02*
X186707426Y-116401040D01*
X186747426Y-108334040D02*
X186747426Y-116394040D01*
X186787426Y-108340040D02*
X186787426Y-116388040D01*
X186828426Y-108347040D02*
X186828426Y-116381040D01*
X186868426Y-108354040D02*
X186868426Y-116374040D01*
X186908426Y-108362040D02*
X186908426Y-116366040D01*
X186948426Y-108370040D02*
X186948426Y-116358040D01*
X186988426Y-108379040D02*
X186988426Y-116349040D01*
X187028426Y-108388040D02*
X187028426Y-116340040D01*
X187068426Y-108397040D02*
X187068426Y-116331040D01*
X187108426Y-108407040D02*
X187108426Y-116321040D01*
X187148426Y-108417040D02*
X187148426Y-116311040D01*
X187188426Y-108428040D02*
X187188426Y-116300040D01*
X187228426Y-108439040D02*
X187228426Y-116289040D01*
X187268426Y-108450040D02*
X187268426Y-116278040D01*
X187308426Y-108462040D02*
X187308426Y-116266040D01*
X187348426Y-108475040D02*
X187348426Y-116253040D01*
X187388426Y-108487040D02*
X187388426Y-116241040D01*
X187428426Y-108501040D02*
X187428426Y-116227040D01*
X187468426Y-108514040D02*
X187468426Y-116214040D01*
X187508426Y-108529040D02*
X187508426Y-116199040D01*
X187548426Y-108543040D02*
X187548426Y-116185040D01*
X187588426Y-108559040D02*
X187588426Y-111324040D01*
X187588426Y-113404040D02*
X187588426Y-116169040D01*
X187628426Y-108574040D02*
X187628426Y-111324040D01*
X187628426Y-113404040D02*
X187628426Y-116154040D01*
X187668426Y-108590040D02*
X187668426Y-111324040D01*
X187668426Y-113404040D02*
X187668426Y-116138040D01*
X187708426Y-108607040D02*
X187708426Y-111324040D01*
X187708426Y-113404040D02*
X187708426Y-116121040D01*
X187748426Y-108624040D02*
X187748426Y-111324040D01*
X187748426Y-113404040D02*
X187748426Y-116104040D01*
X187788426Y-108642040D02*
X187788426Y-111324040D01*
X187788426Y-113404040D02*
X187788426Y-116086040D01*
X187828426Y-108660040D02*
X187828426Y-111324040D01*
X187828426Y-113404040D02*
X187828426Y-116068040D01*
X187868426Y-108678040D02*
X187868426Y-111324040D01*
X187868426Y-113404040D02*
X187868426Y-116050040D01*
X187908426Y-108698040D02*
X187908426Y-111324040D01*
X187908426Y-113404040D02*
X187908426Y-116030040D01*
X187948426Y-108717040D02*
X187948426Y-111324040D01*
X187948426Y-113404040D02*
X187948426Y-116011040D01*
X187988426Y-108737040D02*
X187988426Y-111324040D01*
X187988426Y-113404040D02*
X187988426Y-115991040D01*
X188028426Y-108758040D02*
X188028426Y-111324040D01*
X188028426Y-113404040D02*
X188028426Y-115970040D01*
X188068426Y-108780040D02*
X188068426Y-111324040D01*
X188068426Y-113404040D02*
X188068426Y-115948040D01*
X188108426Y-108802040D02*
X188108426Y-111324040D01*
X188108426Y-113404040D02*
X188108426Y-115926040D01*
X188148426Y-108824040D02*
X188148426Y-111324040D01*
X188148426Y-113404040D02*
X188148426Y-115904040D01*
X188188426Y-108847040D02*
X188188426Y-111324040D01*
X188188426Y-113404040D02*
X188188426Y-115881040D01*
X188228426Y-108871040D02*
X188228426Y-111324040D01*
X188228426Y-113404040D02*
X188228426Y-115857040D01*
X188268426Y-108895040D02*
X188268426Y-111324040D01*
X188268426Y-113404040D02*
X188268426Y-115833040D01*
X188308426Y-108920040D02*
X188308426Y-111324040D01*
X188308426Y-113404040D02*
X188308426Y-115808040D01*
X188348426Y-108946040D02*
X188348426Y-111324040D01*
X188348426Y-113404040D02*
X188348426Y-115782040D01*
X188388426Y-108972040D02*
X188388426Y-111324040D01*
X188388426Y-113404040D02*
X188388426Y-115756040D01*
X188428426Y-108999040D02*
X188428426Y-111324040D01*
X188428426Y-113404040D02*
X188428426Y-115729040D01*
X188468426Y-109026040D02*
X188468426Y-111324040D01*
X188468426Y-113404040D02*
X188468426Y-115702040D01*
X188508426Y-109055040D02*
X188508426Y-111324040D01*
X188508426Y-113404040D02*
X188508426Y-115673040D01*
X188548426Y-109084040D02*
X188548426Y-111324040D01*
X188548426Y-113404040D02*
X188548426Y-115644040D01*
X188588426Y-109114040D02*
X188588426Y-111324040D01*
X188588426Y-113404040D02*
X188588426Y-115614040D01*
X188628426Y-109144040D02*
X188628426Y-111324040D01*
X188628426Y-113404040D02*
X188628426Y-115584040D01*
X188668426Y-109175040D02*
X188668426Y-111324040D01*
X188668426Y-113404040D02*
X188668426Y-115553040D01*
X188708426Y-109208040D02*
X188708426Y-111324040D01*
X188708426Y-113404040D02*
X188708426Y-115520040D01*
X188748426Y-109240040D02*
X188748426Y-111324040D01*
X188748426Y-113404040D02*
X188748426Y-115488040D01*
X188788426Y-109274040D02*
X188788426Y-111324040D01*
X188788426Y-113404040D02*
X188788426Y-115454040D01*
X188828426Y-109309040D02*
X188828426Y-111324040D01*
X188828426Y-113404040D02*
X188828426Y-115419040D01*
X188868426Y-109345040D02*
X188868426Y-111324040D01*
X188868426Y-113404040D02*
X188868426Y-115383040D01*
X188908426Y-109381040D02*
X188908426Y-111324040D01*
X188908426Y-113404040D02*
X188908426Y-115347040D01*
X188948426Y-109419040D02*
X188948426Y-111324040D01*
X188948426Y-113404040D02*
X188948426Y-115309040D01*
X188988426Y-109457040D02*
X188988426Y-111324040D01*
X188988426Y-113404040D02*
X188988426Y-115271040D01*
X189028426Y-109497040D02*
X189028426Y-111324040D01*
X189028426Y-113404040D02*
X189028426Y-115231040D01*
X189068426Y-109538040D02*
X189068426Y-111324040D01*
X189068426Y-113404040D02*
X189068426Y-115190040D01*
X189108426Y-109580040D02*
X189108426Y-111324040D01*
X189108426Y-113404040D02*
X189108426Y-115148040D01*
X189148426Y-109623040D02*
X189148426Y-111324040D01*
X189148426Y-113404040D02*
X189148426Y-115105040D01*
X189188426Y-109667040D02*
X189188426Y-111324040D01*
X189188426Y-113404040D02*
X189188426Y-115061040D01*
X189228426Y-109713040D02*
X189228426Y-111324040D01*
X189228426Y-113404040D02*
X189228426Y-115015040D01*
X189268426Y-109760040D02*
X189268426Y-111324040D01*
X189268426Y-113404040D02*
X189268426Y-114968040D01*
X189308426Y-109808040D02*
X189308426Y-111324040D01*
X189308426Y-113404040D02*
X189308426Y-114920040D01*
X189348426Y-109859040D02*
X189348426Y-111324040D01*
X189348426Y-113404040D02*
X189348426Y-114869040D01*
X189388426Y-109910040D02*
X189388426Y-111324040D01*
X189388426Y-113404040D02*
X189388426Y-114818040D01*
X189428426Y-109964040D02*
X189428426Y-111324040D01*
X189428426Y-113404040D02*
X189428426Y-114764040D01*
X189468426Y-110019040D02*
X189468426Y-111324040D01*
X189468426Y-113404040D02*
X189468426Y-114709040D01*
X189508426Y-110077040D02*
X189508426Y-111324040D01*
X189508426Y-113404040D02*
X189508426Y-114651040D01*
X189548426Y-110136040D02*
X189548426Y-111324040D01*
X189548426Y-113404040D02*
X189548426Y-114592040D01*
X189588426Y-110198040D02*
X189588426Y-111324040D01*
X189588426Y-113404040D02*
X189588426Y-114530040D01*
X189628426Y-110262040D02*
X189628426Y-111324040D01*
X189628426Y-113404040D02*
X189628426Y-114466040D01*
X189668426Y-110330040D02*
X189668426Y-114398040D01*
X189708426Y-110400040D02*
X189708426Y-114328040D01*
X189748426Y-110474040D02*
X189748426Y-114254040D01*
X189788426Y-110551040D02*
X189788426Y-114177040D01*
X189828426Y-110633040D02*
X189828426Y-114095040D01*
X189868426Y-110719040D02*
X189868426Y-114009040D01*
X189908426Y-110812040D02*
X189908426Y-113916040D01*
X189948426Y-110911040D02*
X189948426Y-113817040D01*
X189988426Y-111018040D02*
X189988426Y-113710040D01*
X190028426Y-111135040D02*
X190028426Y-113593040D01*
X190068426Y-111266040D02*
X190068426Y-113462040D01*
X190108426Y-111416040D02*
X190108426Y-113312040D01*
X190148426Y-111596040D02*
X190148426Y-113132040D01*
X190188426Y-111831040D02*
X190188426Y-112897040D01*
X190227426Y-112364040D02*
G75*
G02*
X181987426Y-112364040I-4120000J0D01*
G01*
X181987426Y-112364040D02*
G75*
G02*
X190227426Y-112364040I4120000J0D01*
G01*
D12*
%TO.C,IC1*%
X173990000Y-100840000D02*
X173990000Y-100840000D01*
X173990000Y-100940000D02*
X173990000Y-100940000D01*
X173990000Y-100840000D02*
G75*
G02*
X173990000Y-100940000I0J-50000D01*
G01*
X173990000Y-100940000D02*
G75*
G02*
X173990000Y-100840000I0J50000D01*
G01*
%TD*%
%LPC*%
D15*
%TO.C,L2*%
X173586822Y-110983767D03*
X179536822Y-110983767D03*
%TD*%
D16*
%TO.C,J1*%
X188747700Y-101470200D03*
D17*
X188747700Y-98930200D03*
X188747700Y-96390200D03*
%TD*%
D18*
%TO.C,C2*%
X183049019Y-103113785D03*
D19*
X183049019Y-105613785D03*
%TD*%
D18*
%TO.C,C1*%
X188788945Y-89705684D03*
D19*
X186288945Y-89705684D03*
%TD*%
D18*
%TO.C,C5*%
X183607426Y-112364040D03*
D19*
X188607426Y-112364040D03*
%TD*%
D20*
%TO.C,IC1*%
X173990000Y-99210000D03*
X175260000Y-99210000D03*
X176530000Y-99210000D03*
X177800000Y-99210000D03*
X179070000Y-99210000D03*
X180340000Y-99210000D03*
X181610000Y-99210000D03*
D21*
X177800000Y-90890000D03*
%TD*%
%LPD*%
M02*
